<svg width="46" height="34" viewBox="0 0 46 34" fill="none" xmlns="http://www.w3.org/2000/svg">
<path opacity="0.7" fill-rule="evenodd" clip-rule="evenodd" d="M2.9421 17.7564C4.29034 16.7934 6.16399 17.1057 7.12702 18.4539L13.5206 27.405C14.4837 28.7532 14.1714 30.6269 12.8231 31.5899C11.4749 32.5529 9.60126 32.2406 8.63823 30.8924L2.24461 21.9413C1.28159 20.5931 1.59386 18.7194 2.9421 17.7564Z" fill="#FF8D24"/>
<path opacity="0.7" fill-rule="evenodd" clip-rule="evenodd" d="M21.6057 10.9881C23.0443 11.8102 23.5441 13.6427 22.722 15.0813L13.7915 30.7097C12.9695 32.1482 11.1369 32.648 9.69839 31.826C8.25983 31.004 7.76004 29.1714 8.58207 27.7328L17.5126 12.1045C18.3346 10.6659 20.1672 10.1661 21.6057 10.9881Z" fill="#FF8D24"/>
<path opacity="0.7" fill-rule="evenodd" clip-rule="evenodd" d="M18.5964 10.9881C17.1579 11.8102 16.6581 13.6427 17.4801 15.0813L26.4106 30.7097C27.2326 32.1482 29.0652 32.648 30.5038 31.826C31.9423 31.004 32.4421 29.1714 31.6201 27.7328L22.6896 12.1045C21.8675 10.6659 20.035 10.1661 18.5964 10.9881Z" fill="#FF8D24"/>
<path opacity="0.7" fill-rule="evenodd" clip-rule="evenodd" d="M42.51 1.3066C44.0014 2.02826 44.6254 3.82233 43.9038 5.31376L31.7081 30.5182C30.9864 32.0096 29.1923 32.6337 27.7009 31.912C26.2095 31.1904 25.5854 29.3963 26.3071 27.9049L38.5028 2.70039C39.2245 1.20896 41.0185 0.584938 42.51 1.3066Z" fill="#FF8D24"/>
</svg>
