<svg width="48" height="48" viewBox="0 0 48 48" fill="none" xmlns="http://www.w3.org/2000/svg">
<circle cx="24" cy="24" r="24" fill="#34A853"/>
<path d="M32.6036 15.5622L19.9918 28.1657L15.3964 23.5733C15.0184 23.2085 14.5122 23.0066 13.9867 23.0112C13.4612 23.0158 12.9586 23.2264 12.587 23.5977C12.2154 23.9691 12.0046 24.4714 12.0001 24.9965C11.9955 25.5216 12.1975 26.0275 12.5626 26.4053L18.5749 32.4136C18.9507 32.7891 19.4604 33 19.9918 33C20.5232 33 21.0329 32.7891 21.4087 32.4136L35.4374 18.3941C35.8025 18.0164 36.0045 17.5105 35.9999 16.9854C35.9954 16.4603 35.7846 15.9579 35.413 15.5866C35.0414 15.2153 34.5388 15.0046 34.0133 15.0001C33.4878 14.9955 32.9816 15.1974 32.6036 15.5622Z" fill="white"/>
</svg>
