<svg width="22" height="22" viewBox="0 0 22 22" fill="none" xmlns="http://www.w3.org/2000/svg">
<path d="M11 6.83337C12.3807 6.83337 13.5 5.71409 13.5 4.33337C13.5 2.95266 12.3807 1.83337 11 1.83337C9.61929 1.83337 8.5 2.95266 8.5 4.33337C8.5 5.71409 9.61929 6.83337 11 6.83337Z" stroke="#FF8D24" stroke-width="2" stroke-miterlimit="10" stroke-linecap="square"/>
<path d="M17.6665 13.5C19.0472 13.5 20.1665 12.3807 20.1665 11C20.1665 9.61929 19.0472 8.5 17.6665 8.5C16.2858 8.5 15.1665 9.61929 15.1665 11C15.1665 12.3807 16.2858 13.5 17.6665 13.5Z" stroke="#FF8D24" stroke-width="2" stroke-miterlimit="10" stroke-linecap="square"/>
<path d="M11 20.1667C12.3807 20.1667 13.5 19.0475 13.5 17.6667C13.5 16.286 12.3807 15.1667 11 15.1667C9.61929 15.1667 8.5 16.286 8.5 17.6667C8.5 19.0475 9.61929 20.1667 11 20.1667Z" stroke="#FF8D24" stroke-width="2" stroke-miterlimit="10" stroke-linecap="square"/>
<path d="M4.3335 13.5C5.71422 13.5 6.8335 12.3807 6.8335 11C6.8335 9.61929 5.71422 8.5 4.3335 8.5C2.95279 8.5 1.8335 9.61929 1.8335 11C1.8335 12.3807 2.95279 13.5 4.3335 13.5Z" stroke="#FF8D24" stroke-width="2" stroke-miterlimit="10" stroke-linecap="square"/>
</svg>
