<svg width="22" height="22" viewBox="0 0 22 22" fill="none" xmlns="http://www.w3.org/2000/svg">
<path d="M11 6.83337C12.3807 6.83337 13.5 5.71409 13.5 4.33337C13.5 2.95266 12.3807 1.83337 11 1.83337C9.61929 1.83337 8.5 2.95266 8.5 4.33337C8.5 5.71409 9.61929 6.83337 11 6.83337Z" stroke="#797E8A" stroke-width="2" stroke-miterlimit="10" stroke-linecap="square"/>
<path d="M17.6667 13.5C19.0474 13.5 20.1667 12.3807 20.1667 11C20.1667 9.61929 19.0474 8.5 17.6667 8.5C16.286 8.5 15.1667 9.61929 15.1667 11C15.1667 12.3807 16.286 13.5 17.6667 13.5Z" stroke="#797E8A" stroke-width="2" stroke-miterlimit="10" stroke-linecap="square"/>
<path d="M11 20.1667C12.3807 20.1667 13.5 19.0475 13.5 17.6667C13.5 16.286 12.3807 15.1667 11 15.1667C9.61929 15.1667 8.5 16.286 8.5 17.6667C8.5 19.0475 9.61929 20.1667 11 20.1667Z" stroke="#797E8A" stroke-width="2" stroke-miterlimit="10" stroke-linecap="square"/>
<path d="M4.33334 13.5C5.71406 13.5 6.83334 12.3807 6.83334 11C6.83334 9.61929 5.71406 8.5 4.33334 8.5C2.95263 8.5 1.83334 9.61929 1.83334 11C1.83334 12.3807 2.95263 13.5 4.33334 13.5Z" stroke="#797E8A" stroke-width="2" stroke-miterlimit="10" stroke-linecap="square"/>
</svg>
