<svg width="16" height="14" viewBox="0 0 16 14" fill="none" xmlns="http://www.w3.org/2000/svg">
<path d="M8 9.66667V1" stroke="#979EAC" stroke-width="1.5" stroke-miterlimit="10"/>
<path d="M11.3334 1H14.0001C14.3537 1 14.6928 1.14048 14.9429 1.39052C15.1929 1.64057 15.3334 1.97971 15.3334 2.33333V11.6667C15.3334 12.0203 15.1929 12.3594 14.9429 12.6095C14.6928 12.8595 14.3537 13 14.0001 13H2.00008C1.64646 13 1.30732 12.8595 1.05727 12.6095C0.807224 12.3594 0.666748 12.0203 0.666748 11.6667V2.33333C0.666748 1.97971 0.807224 1.64057 1.05727 1.39052C1.30732 1.14048 1.64646 1 2.00008 1H4.66675" stroke="#979EAC" stroke-width="1.5" stroke-miterlimit="10" stroke-linecap="square"/>
<path d="M11.3334 6.33331L8.00008 9.66665L4.66675 6.33331" stroke="#979EAC" stroke-width="1.5" stroke-miterlimit="10" stroke-linecap="square"/>
</svg>
