<svg width="62" height="61" viewBox="0 0 62 61" fill="none" xmlns="http://www.w3.org/2000/svg">
<path d="M31 34V24" stroke="#FF8D24" stroke-width="2" stroke-miterlimit="10"/>
<path d="M21 3H14V8C14 14 17.2 17 21.2 17" stroke="#FF8D24" stroke-width="2" stroke-miterlimit="10"/>
<path d="M41 3H48V8C48 14 44.8 17 40.8 17" stroke="#FF8D24" stroke-width="2" stroke-miterlimit="10"/>
<path d="M21 1H41V14C41 16.6522 39.9464 19.1957 38.0711 21.0711C36.1957 22.9464 33.6522 24 31 24C28.3478 24 25.8043 22.9464 23.9289 21.0711C22.0536 19.1957 21 16.6522 21 14V1Z" stroke="#FF8D24" stroke-width="2" stroke-miterlimit="10" stroke-linecap="square"/>
<path d="M24 34H38" stroke="#FF8D24" stroke-width="2" stroke-miterlimit="10" stroke-linecap="square"/>
<path d="M13 61V57L2.444 44.685C1.512 43.5974 0.999812 42.2123 1 40.78V22.5C1 21.5717 1.36875 20.6815 2.02513 20.0251C2.6815 19.3687 3.57174 19 4.5 19V19C5.42826 19 6.3185 19.3687 6.97487 20.0251C7.63125 20.6815 8 21.5717 8 22.5V34.13" stroke="#FF8D24" stroke-width="2" stroke-miterlimit="10"/>
<path d="M25 61V47.485C24.9999 45.894 24.3679 44.3681 23.243 43.243L13.5 33.5C13.1717 33.1716 12.782 32.9111 12.353 32.7334C11.9241 32.5557 11.4643 32.4642 11 32.4642C10.5357 32.4642 10.0759 32.5557 9.64696 32.7334C9.218 32.9111 8.82826 33.1716 8.49999 33.5V33.5C8.17162 33.8283 7.91114 34.218 7.73342 34.647C7.5557 35.0759 7.46423 35.5357 7.46423 36C7.46423 36.4643 7.5557 36.9241 7.73342 37.353C7.91114 37.782 8.17162 38.1717 8.49999 38.5L16 46" stroke="#FF8D24" stroke-width="2" stroke-miterlimit="10"/>
<path d="M49 61V57L59.556 44.685C60.488 43.5974 61.0002 42.2123 61 40.78V22.5C61 21.5717 60.6312 20.6815 59.9749 20.0251C59.3185 19.3687 58.4283 19 57.5 19C56.5717 19 55.6815 19.3687 55.0251 20.0251C54.3688 20.6815 54 21.5717 54 22.5V34.13" stroke="#FF8D24" stroke-width="2" stroke-miterlimit="10"/>
<path d="M37 61V47.485C37.0001 45.894 37.6321 44.3681 38.757 43.243L48.5 33.5C48.8283 33.1716 49.218 32.9111 49.647 32.7334C50.0759 32.5557 50.5357 32.4642 51 32.4642C51.4643 32.4642 51.9241 32.5557 52.353 32.7334C52.782 32.9111 53.1717 33.1716 53.5 33.5V33.5C53.8284 33.8283 54.0889 34.218 54.2666 34.647C54.4443 35.0759 54.5358 35.5357 54.5358 36C54.5358 36.4643 54.4443 36.9241 54.2666 37.353C54.0889 37.782 53.8284 38.1717 53.5 38.5L46 46" stroke="#FF8D24" stroke-width="2" stroke-miterlimit="10"/>
</svg>
