<svg width="20" height="20" viewBox="0 0 20 20" fill="none" xmlns="http://www.w3.org/2000/svg">
<path d="M8.33328 19.8888C3.61109 19.0554 0 14.9444 0 9.99994C0 4.49997 4.49997 0 9.99994 0C15.4999 0 19.9999 4.49997 19.9999 9.99994C19.9999 14.9444 16.3888 19.0554 11.6666 19.8888L11.111 19.4443H8.88883L8.33328 19.8888Z" fill="url(#paint0_linear_528_52)"/>
<path d="M13.8885 12.7779L14.333 10.0001H11.6663V8.05568C11.6663 7.27791 11.9441 6.6668 13.1663 6.6668H14.4441V4.11126C13.7218 4.00015 12.9441 3.88904 12.2219 3.88904C9.94409 3.88904 8.33299 5.27792 8.33299 7.7779V10.0001H5.83301V12.7779H8.33299V19.8334C8.88855 19.9445 9.4441 20.0001 9.99965 20.0001C10.5552 20.0001 11.1108 19.9445 11.6663 19.8334V12.7779H13.8885Z" fill="white"/>
<defs>
<linearGradient id="paint0_linear_528_52" x1="9.99994" y1="19.3077" x2="9.99994" y2="0" gradientUnits="userSpaceOnUse">
<stop stop-color="#0062E0"/>
<stop offset="1" stop-color="#19AFFF"/>
</linearGradient>
</defs>
</svg>
