<svg width="24" height="24" viewBox="0 0 24 24" fill="none" xmlns="http://www.w3.org/2000/svg">
<path d="M16.243 16.243C15.157 17.328 13.657 18 12 18C8.686 18 6 15.314 6 12C6 8.686 8.686 6 12 6C13.656 6 15.156 6.671 16.242 7.757" stroke="#FF8D24" stroke-width="2" stroke-miterlimit="10"/>
<path d="M12.707 12.707L19.778 19.778" stroke="#FF8D24" stroke-width="2" stroke-miterlimit="10"/>
<path d="M19.778 4.22192L12.708 11.2919" stroke="#FF8D24" stroke-width="2" stroke-miterlimit="10"/>
<path d="M12 23C18.0751 23 23 18.0751 23 12C23 5.92487 18.0751 1 12 1C5.92487 1 1 5.92487 1 12C1 18.0751 5.92487 23 12 23Z" stroke="#FF8D24" stroke-width="2" stroke-miterlimit="10" stroke-linecap="square"/>
<path d="M12 13C12.5523 13 13 12.5523 13 12C13 11.4477 12.5523 11 12 11C11.4477 11 11 11.4477 11 12C11 12.5523 11.4477 13 12 13Z" stroke="#FF8D24" stroke-width="2" stroke-miterlimit="10" stroke-linecap="square"/>
<path d="M12 13C12.5523 13 13 12.5523 13 12C13 11.4477 12.5523 11 12 11C11.4477 11 11 11.4477 11 12C11 12.5523 11.4477 13 12 13Z" fill="#FF8D24"/>
</svg>
