<svg width="580" height="206" viewBox="0 0 580 206" fill="none" xmlns="http://www.w3.org/2000/svg">
<path d="M81.0006 203V196H82.2506L84.6206 200.66L86.9806 196H88.2306V203H87.1706V197.83L85.0306 202H84.2106L82.0606 197.84V203H81.0006ZM91.093 203.12C90.673 203.12 90.3263 203.05 90.053 202.91C89.7796 202.77 89.5763 202.587 89.443 202.36C89.3096 202.127 89.243 201.873 89.243 201.6C89.243 201.12 89.4296 200.74 89.803 200.46C90.1763 200.18 90.7096 200.04 91.403 200.04H92.703V199.95C92.703 199.563 92.5963 199.273 92.383 199.08C92.1763 198.887 91.9063 198.79 91.573 198.79C91.2796 198.79 91.023 198.863 90.803 199.01C90.5896 199.15 90.4596 199.36 90.413 199.64H89.353C89.3863 199.28 89.5063 198.973 89.713 198.72C89.9263 198.46 90.193 198.263 90.513 198.13C90.8396 197.99 91.1963 197.92 91.583 197.92C92.2763 197.92 92.813 198.103 93.193 198.47C93.573 198.83 93.763 199.323 93.763 199.95V203H92.843L92.753 202.15C92.613 202.423 92.4096 202.653 92.143 202.84C91.8763 203.027 91.5263 203.12 91.093 203.12ZM91.303 202.26C91.5896 202.26 91.8296 202.193 92.023 202.06C92.223 201.92 92.3763 201.737 92.483 201.51C92.5963 201.283 92.6663 201.033 92.693 200.76H91.513C91.093 200.76 90.793 200.833 90.613 200.98C90.4396 201.127 90.353 201.31 90.353 201.53C90.353 201.757 90.4363 201.937 90.603 202.07C90.7763 202.197 91.0096 202.26 91.303 202.26ZM94.7989 203V198.04H95.7489L95.8389 198.98C96.0122 198.653 96.2522 198.397 96.5589 198.21C96.8722 198.017 97.2489 197.92 97.6889 197.92V199.03H97.3989C97.1056 199.03 96.8422 199.08 96.6089 199.18C96.3822 199.273 96.1989 199.437 96.0589 199.67C95.9256 199.897 95.8589 200.213 95.8589 200.62V203H94.7989ZM100.617 203V202.24C101.071 201.88 101.504 201.517 101.917 201.15C102.331 200.783 102.697 200.423 103.017 200.07C103.344 199.71 103.601 199.36 103.787 199.02C103.974 198.673 104.067 198.34 104.067 198.02C104.067 197.807 104.031 197.607 103.957 197.42C103.884 197.227 103.764 197.073 103.597 196.96C103.431 196.84 103.207 196.78 102.927 196.78C102.507 196.78 102.191 196.913 101.977 197.18C101.771 197.447 101.671 197.767 101.677 198.14H100.647C100.654 197.647 100.757 197.233 100.957 196.9C101.164 196.567 101.437 196.313 101.777 196.14C102.124 195.967 102.514 195.88 102.947 195.88C103.607 195.88 104.134 196.067 104.527 196.44C104.927 196.807 105.127 197.32 105.127 197.98C105.127 198.373 105.031 198.763 104.837 199.15C104.651 199.537 104.404 199.91 104.097 200.27C103.797 200.623 103.474 200.957 103.127 201.27C102.781 201.583 102.451 201.867 102.137 202.12H105.337V203H100.617ZM109.002 203.12C108.368 203.12 107.822 202.97 107.362 202.67C106.908 202.363 106.558 201.94 106.312 201.4C106.072 200.853 105.952 200.22 105.952 199.5C105.952 198.78 106.072 198.15 106.312 197.61C106.558 197.063 106.908 196.64 107.362 196.34C107.822 196.033 108.368 195.88 109.002 195.88C109.635 195.88 110.178 196.033 110.632 196.34C111.085 196.64 111.432 197.063 111.672 197.61C111.918 198.15 112.042 198.78 112.042 199.5C112.042 200.22 111.918 200.853 111.672 201.4C111.432 201.94 111.085 202.363 110.632 202.67C110.178 202.97 109.635 203.12 109.002 203.12ZM109.002 202.17C109.382 202.17 109.718 202.063 110.012 201.85C110.312 201.637 110.545 201.33 110.712 200.93C110.878 200.53 110.962 200.053 110.962 199.5C110.962 198.947 110.878 198.47 110.712 198.07C110.545 197.67 110.312 197.363 110.012 197.15C109.718 196.937 109.382 196.83 109.002 196.83C108.615 196.83 108.275 196.937 107.982 197.15C107.688 197.363 107.458 197.67 107.292 198.07C107.125 198.47 107.042 198.947 107.042 199.5C107.042 200.053 107.125 200.53 107.292 200.93C107.458 201.33 107.688 201.637 107.982 201.85C108.275 202.063 108.615 202.17 109.002 202.17ZM112.805 203V202.24C113.258 201.88 113.692 201.517 114.105 201.15C114.518 200.783 114.885 200.423 115.205 200.07C115.532 199.71 115.788 199.36 115.975 199.02C116.162 198.673 116.255 198.34 116.255 198.02C116.255 197.807 116.218 197.607 116.145 197.42C116.072 197.227 115.952 197.073 115.785 196.96C115.618 196.84 115.395 196.78 115.115 196.78C114.695 196.78 114.378 196.913 114.165 197.18C113.958 197.447 113.858 197.767 113.865 198.14H112.835C112.842 197.647 112.945 197.233 113.145 196.9C113.352 196.567 113.625 196.313 113.965 196.14C114.312 195.967 114.702 195.88 115.135 195.88C115.795 195.88 116.322 196.067 116.715 196.44C117.115 196.807 117.315 197.32 117.315 197.98C117.315 198.373 117.218 198.763 117.025 199.15C116.838 199.537 116.592 199.91 116.285 200.27C115.985 200.623 115.662 200.957 115.315 201.27C114.968 201.583 114.638 201.867 114.325 202.12H117.525V203H112.805ZM119.188 203V197.2L118.058 197.46V196.68L119.608 196H120.288V203H119.188Z" fill="#878B93"/>
<path d="M354.233 203.12C353.719 203.12 353.269 203.03 352.883 202.85C352.496 202.67 352.193 202.413 351.973 202.08C351.759 201.747 351.649 201.35 351.643 200.89H352.763C352.769 201.263 352.899 201.58 353.153 201.84C353.406 202.1 353.763 202.23 354.223 202.23C354.629 202.23 354.946 202.133 355.173 201.94C355.406 201.74 355.523 201.487 355.523 201.18C355.523 200.933 355.466 200.733 355.353 200.58C355.246 200.427 355.096 200.3 354.903 200.2C354.716 200.1 354.499 200.01 354.253 199.93C354.006 199.85 353.746 199.763 353.473 199.67C352.933 199.49 352.526 199.257 352.253 198.97C351.986 198.683 351.853 198.307 351.853 197.84C351.846 197.447 351.936 197.103 352.123 196.81C352.316 196.517 352.583 196.29 352.923 196.13C353.269 195.963 353.673 195.88 354.133 195.88C354.586 195.88 354.983 195.963 355.323 196.13C355.669 196.297 355.939 196.53 356.133 196.83C356.326 197.123 356.426 197.467 356.433 197.86H355.313C355.313 197.68 355.266 197.51 355.173 197.35C355.079 197.183 354.943 197.047 354.763 196.94C354.583 196.833 354.363 196.78 354.103 196.78C353.769 196.773 353.493 196.857 353.273 197.03C353.059 197.203 352.953 197.443 352.953 197.75C352.953 198.023 353.033 198.233 353.193 198.38C353.353 198.527 353.573 198.65 353.853 198.75C354.133 198.843 354.453 198.953 354.813 199.08C355.159 199.193 355.469 199.33 355.743 199.49C356.016 199.65 356.233 199.86 356.393 200.12C356.559 200.38 356.643 200.71 356.643 201.11C356.643 201.463 356.553 201.793 356.373 202.1C356.193 202.4 355.923 202.647 355.563 202.84C355.203 203.027 354.759 203.12 354.233 203.12ZM359.881 203.12C359.395 203.12 358.961 203.013 358.581 202.8C358.208 202.58 357.915 202.277 357.701 201.89C357.488 201.503 357.381 201.053 357.381 200.54C357.381 200.02 357.485 199.563 357.691 199.17C357.905 198.777 358.198 198.47 358.571 198.25C358.951 198.03 359.391 197.92 359.891 197.92C360.378 197.92 360.801 198.03 361.161 198.25C361.521 198.463 361.801 198.75 362.001 199.11C362.201 199.47 362.301 199.867 362.301 200.3C362.301 200.367 362.298 200.44 362.291 200.52C362.291 200.593 362.288 200.677 362.281 200.77H358.421C358.455 201.25 358.611 201.617 358.891 201.87C359.178 202.117 359.508 202.24 359.881 202.24C360.181 202.24 360.431 202.173 360.631 202.04C360.838 201.9 360.991 201.713 361.091 201.48H362.151C362.018 201.947 361.751 202.337 361.351 202.65C360.958 202.963 360.468 203.12 359.881 203.12ZM359.881 198.79C359.528 198.79 359.215 198.897 358.941 199.11C358.668 199.317 358.501 199.63 358.441 200.05H361.241C361.221 199.663 361.085 199.357 360.831 199.13C360.578 198.903 360.261 198.79 359.881 198.79ZM363.201 205.2V198.04H364.151L364.261 198.81C364.421 198.577 364.641 198.37 364.921 198.19C365.201 198.01 365.561 197.92 366.001 197.92C366.481 197.92 366.905 198.033 367.271 198.26C367.638 198.487 367.925 198.797 368.131 199.19C368.345 199.583 368.451 200.03 368.451 200.53C368.451 201.03 368.345 201.477 368.131 201.87C367.925 202.257 367.638 202.563 367.271 202.79C366.905 203.01 366.478 203.12 365.991 203.12C365.605 203.12 365.261 203.043 364.961 202.89C364.668 202.737 364.435 202.52 364.261 202.24V205.2H363.201ZM365.811 202.2C366.265 202.2 366.638 202.047 366.931 201.74C367.225 201.427 367.371 201.02 367.371 200.52C367.371 200.193 367.305 199.903 367.171 199.65C367.038 199.397 366.855 199.2 366.621 199.06C366.388 198.913 366.118 198.84 365.811 198.84C365.358 198.84 364.985 198.997 364.691 199.31C364.405 199.623 364.261 200.027 364.261 200.52C364.261 201.02 364.405 201.427 364.691 201.74C364.985 202.047 365.358 202.2 365.811 202.2ZM371.617 203V202.24C372.071 201.88 372.504 201.517 372.917 201.15C373.331 200.783 373.697 200.423 374.017 200.07C374.344 199.71 374.601 199.36 374.787 199.02C374.974 198.673 375.067 198.34 375.067 198.02C375.067 197.807 375.031 197.607 374.957 197.42C374.884 197.227 374.764 197.073 374.597 196.96C374.431 196.84 374.207 196.78 373.927 196.78C373.507 196.78 373.191 196.913 372.977 197.18C372.771 197.447 372.671 197.767 372.677 198.14H371.647C371.654 197.647 371.757 197.233 371.957 196.9C372.164 196.567 372.437 196.313 372.777 196.14C373.124 195.967 373.514 195.88 373.947 195.88C374.607 195.88 375.134 196.067 375.527 196.44C375.927 196.807 376.127 197.32 376.127 197.98C376.127 198.373 376.031 198.763 375.837 199.15C375.651 199.537 375.404 199.91 375.097 200.27C374.797 200.623 374.474 200.957 374.127 201.27C373.781 201.583 373.451 201.867 373.137 202.12H376.337V203H371.617ZM380.002 203.12C379.368 203.12 378.822 202.97 378.362 202.67C377.908 202.363 377.558 201.94 377.312 201.4C377.072 200.853 376.952 200.22 376.952 199.5C376.952 198.78 377.072 198.15 377.312 197.61C377.558 197.063 377.908 196.64 378.362 196.34C378.822 196.033 379.368 195.88 380.002 195.88C380.635 195.88 381.178 196.033 381.632 196.34C382.085 196.64 382.432 197.063 382.672 197.61C382.918 198.15 383.042 198.78 383.042 199.5C383.042 200.22 382.918 200.853 382.672 201.4C382.432 201.94 382.085 202.363 381.632 202.67C381.178 202.97 380.635 203.12 380.002 203.12ZM380.002 202.17C380.382 202.17 380.718 202.063 381.012 201.85C381.312 201.637 381.545 201.33 381.712 200.93C381.878 200.53 381.962 200.053 381.962 199.5C381.962 198.947 381.878 198.47 381.712 198.07C381.545 197.67 381.312 197.363 381.012 197.15C380.718 196.937 380.382 196.83 380.002 196.83C379.615 196.83 379.275 196.937 378.982 197.15C378.688 197.363 378.458 197.67 378.292 198.07C378.125 198.47 378.042 198.947 378.042 199.5C378.042 200.053 378.125 200.53 378.292 200.93C378.458 201.33 378.688 201.637 378.982 201.85C379.275 202.063 379.615 202.17 380.002 202.17ZM383.805 203V202.24C384.258 201.88 384.692 201.517 385.105 201.15C385.518 200.783 385.885 200.423 386.205 200.07C386.532 199.71 386.788 199.36 386.975 199.02C387.162 198.673 387.255 198.34 387.255 198.02C387.255 197.807 387.218 197.607 387.145 197.42C387.072 197.227 386.952 197.073 386.785 196.96C386.618 196.84 386.395 196.78 386.115 196.78C385.695 196.78 385.378 196.913 385.165 197.18C384.958 197.447 384.858 197.767 384.865 198.14H383.835C383.842 197.647 383.945 197.233 384.145 196.9C384.352 196.567 384.625 196.313 384.965 196.14C385.312 195.967 385.702 195.88 386.135 195.88C386.795 195.88 387.322 196.067 387.715 196.44C388.115 196.807 388.315 197.32 388.315 197.98C388.315 198.373 388.218 198.763 388.025 199.15C387.838 199.537 387.592 199.91 387.285 200.27C386.985 200.623 386.662 200.957 386.315 201.27C385.968 201.583 385.638 201.867 385.325 202.12H388.525V203H383.805ZM390.188 203V197.2L389.058 197.46V196.68L390.608 196H391.288V203H390.188Z" fill="#878B93"/>
<path d="M218.775 203.12C218.121 203.12 217.601 202.937 217.215 202.57C216.835 202.203 216.645 201.687 216.645 201.02H217.705C217.705 201.353 217.785 201.63 217.945 201.85C218.111 202.07 218.381 202.18 218.755 202.18C219.121 202.18 219.381 202.077 219.535 201.87C219.688 201.657 219.765 201.387 219.765 201.06V196H220.825V201.06C220.825 201.72 220.641 202.23 220.275 202.59C219.908 202.943 219.408 203.12 218.775 203.12ZM223.831 203.12C223.231 203.12 222.758 202.933 222.411 202.56C222.071 202.187 221.901 201.63 221.901 200.89V198.04H222.961V200.78C222.961 201.74 223.354 202.22 224.141 202.22C224.534 202.22 224.858 202.08 225.111 201.8C225.364 201.52 225.491 201.12 225.491 200.6V198.04H226.551V203H225.611L225.531 202.13C225.378 202.437 225.151 202.68 224.851 202.86C224.558 203.033 224.218 203.12 223.831 203.12ZM227.699 203V198.04H228.639L228.719 198.91C228.873 198.603 229.096 198.363 229.389 198.19C229.689 198.01 230.033 197.92 230.419 197.92C231.019 197.92 231.489 198.107 231.829 198.48C232.176 198.853 232.349 199.41 232.349 200.15V203H231.299V200.26C231.299 199.3 230.906 198.82 230.119 198.82C229.726 198.82 229.399 198.96 229.139 199.24C228.886 199.52 228.759 199.92 228.759 200.44V203H227.699ZM235.617 203V202.24C236.071 201.88 236.504 201.517 236.917 201.15C237.331 200.783 237.697 200.423 238.017 200.07C238.344 199.71 238.601 199.36 238.787 199.02C238.974 198.673 239.067 198.34 239.067 198.02C239.067 197.807 239.031 197.607 238.957 197.42C238.884 197.227 238.764 197.073 238.597 196.96C238.431 196.84 238.207 196.78 237.927 196.78C237.507 196.78 237.191 196.913 236.977 197.18C236.771 197.447 236.671 197.767 236.677 198.14H235.647C235.654 197.647 235.757 197.233 235.957 196.9C236.164 196.567 236.437 196.313 236.777 196.14C237.124 195.967 237.514 195.88 237.947 195.88C238.607 195.88 239.134 196.067 239.527 196.44C239.927 196.807 240.127 197.32 240.127 197.98C240.127 198.373 240.031 198.763 239.837 199.15C239.651 199.537 239.404 199.91 239.097 200.27C238.797 200.623 238.474 200.957 238.127 201.27C237.781 201.583 237.451 201.867 237.137 202.12H240.337V203H235.617ZM244.002 203.12C243.368 203.12 242.822 202.97 242.362 202.67C241.908 202.363 241.558 201.94 241.312 201.4C241.072 200.853 240.952 200.22 240.952 199.5C240.952 198.78 241.072 198.15 241.312 197.61C241.558 197.063 241.908 196.64 242.362 196.34C242.822 196.033 243.368 195.88 244.002 195.88C244.635 195.88 245.178 196.033 245.632 196.34C246.085 196.64 246.432 197.063 246.672 197.61C246.918 198.15 247.042 198.78 247.042 199.5C247.042 200.22 246.918 200.853 246.672 201.4C246.432 201.94 246.085 202.363 245.632 202.67C245.178 202.97 244.635 203.12 244.002 203.12ZM244.002 202.17C244.382 202.17 244.718 202.063 245.012 201.85C245.312 201.637 245.545 201.33 245.712 200.93C245.878 200.53 245.962 200.053 245.962 199.5C245.962 198.947 245.878 198.47 245.712 198.07C245.545 197.67 245.312 197.363 245.012 197.15C244.718 196.937 244.382 196.83 244.002 196.83C243.615 196.83 243.275 196.937 242.982 197.15C242.688 197.363 242.458 197.67 242.292 198.07C242.125 198.47 242.042 198.947 242.042 199.5C242.042 200.053 242.125 200.53 242.292 200.93C242.458 201.33 242.688 201.637 242.982 201.85C243.275 202.063 243.615 202.17 244.002 202.17ZM247.805 203V202.24C248.258 201.88 248.692 201.517 249.105 201.15C249.518 200.783 249.885 200.423 250.205 200.07C250.532 199.71 250.788 199.36 250.975 199.02C251.162 198.673 251.255 198.34 251.255 198.02C251.255 197.807 251.218 197.607 251.145 197.42C251.072 197.227 250.952 197.073 250.785 196.96C250.618 196.84 250.395 196.78 250.115 196.78C249.695 196.78 249.378 196.913 249.165 197.18C248.958 197.447 248.858 197.767 248.865 198.14H247.835C247.842 197.647 247.945 197.233 248.145 196.9C248.352 196.567 248.625 196.313 248.965 196.14C249.312 195.967 249.702 195.88 250.135 195.88C250.795 195.88 251.322 196.067 251.715 196.44C252.115 196.807 252.315 197.32 252.315 197.98C252.315 198.373 252.218 198.763 252.025 199.15C251.838 199.537 251.592 199.91 251.285 200.27C250.985 200.623 250.662 200.957 250.315 201.27C249.968 201.583 249.638 201.867 249.325 202.12H252.525V203H247.805ZM254.188 203V197.2L253.058 197.46V196.68L254.608 196H255.288V203H254.188Z" fill="#878B93"/>
<path d="M488.317 203V196H490.587C491.407 196 492.08 196.143 492.607 196.43C493.14 196.717 493.534 197.123 493.787 197.65C494.047 198.17 494.177 198.79 494.177 199.51C494.177 200.223 494.047 200.843 493.787 201.37C493.534 201.89 493.14 202.293 492.607 202.58C492.08 202.86 491.407 203 490.587 203H488.317ZM489.377 202.1H490.547C491.18 202.1 491.68 201.997 492.047 201.79C492.42 201.583 492.687 201.287 492.847 200.9C493.014 200.513 493.097 200.05 493.097 199.51C493.097 198.97 493.014 198.503 492.847 198.11C492.687 197.717 492.42 197.417 492.047 197.21C491.68 196.997 491.18 196.89 490.547 196.89H489.377V202.1ZM497.428 203.12C496.942 203.12 496.508 203.013 496.128 202.8C495.755 202.58 495.462 202.277 495.248 201.89C495.035 201.503 494.928 201.053 494.928 200.54C494.928 200.02 495.032 199.563 495.238 199.17C495.452 198.777 495.745 198.47 496.118 198.25C496.498 198.03 496.938 197.92 497.438 197.92C497.925 197.92 498.348 198.03 498.708 198.25C499.068 198.463 499.348 198.75 499.548 199.11C499.748 199.47 499.848 199.867 499.848 200.3C499.848 200.367 499.845 200.44 499.838 200.52C499.838 200.593 499.835 200.677 499.828 200.77H495.968C496.002 201.25 496.158 201.617 496.438 201.87C496.725 202.117 497.055 202.24 497.428 202.24C497.728 202.24 497.978 202.173 498.178 202.04C498.385 201.9 498.538 201.713 498.638 201.48H499.698C499.565 201.947 499.298 202.337 498.898 202.65C498.505 202.963 498.015 203.12 497.428 203.12ZM497.428 198.79C497.075 198.79 496.762 198.897 496.488 199.11C496.215 199.317 496.048 199.63 495.988 200.05H498.788C498.768 199.663 498.632 199.357 498.378 199.13C498.125 198.903 497.808 198.79 497.428 198.79ZM503.098 203.12C502.611 203.12 502.175 203.01 501.788 202.79C501.408 202.57 501.108 202.267 500.888 201.88C500.675 201.487 500.568 201.033 500.568 200.52C500.568 200.007 500.675 199.557 500.888 199.17C501.108 198.777 501.408 198.47 501.788 198.25C502.175 198.03 502.611 197.92 503.098 197.92C503.711 197.92 504.225 198.08 504.638 198.4C505.058 198.72 505.328 199.153 505.448 199.7H504.338C504.271 199.427 504.125 199.213 503.898 199.06C503.671 198.907 503.405 198.83 503.098 198.83C502.838 198.83 502.598 198.897 502.378 199.03C502.158 199.157 501.981 199.347 501.848 199.6C501.715 199.847 501.648 200.153 501.648 200.52C501.648 200.887 501.715 201.197 501.848 201.45C501.981 201.697 502.158 201.887 502.378 202.02C502.598 202.153 502.838 202.22 503.098 202.22C503.405 202.22 503.671 202.143 503.898 201.99C504.125 201.837 504.271 201.62 504.338 201.34H505.448C505.335 201.873 505.068 202.303 504.648 202.63C504.228 202.957 503.711 203.12 503.098 203.12ZM508.617 203V202.24C509.071 201.88 509.504 201.517 509.917 201.15C510.331 200.783 510.697 200.423 511.017 200.07C511.344 199.71 511.601 199.36 511.787 199.02C511.974 198.673 512.067 198.34 512.067 198.02C512.067 197.807 512.031 197.607 511.957 197.42C511.884 197.227 511.764 197.073 511.597 196.96C511.431 196.84 511.207 196.78 510.927 196.78C510.507 196.78 510.191 196.913 509.977 197.18C509.771 197.447 509.671 197.767 509.677 198.14H508.647C508.654 197.647 508.757 197.233 508.957 196.9C509.164 196.567 509.437 196.313 509.777 196.14C510.124 195.967 510.514 195.88 510.947 195.88C511.607 195.88 512.134 196.067 512.527 196.44C512.927 196.807 513.127 197.32 513.127 197.98C513.127 198.373 513.031 198.763 512.837 199.15C512.651 199.537 512.404 199.91 512.097 200.27C511.797 200.623 511.474 200.957 511.127 201.27C510.781 201.583 510.451 201.867 510.137 202.12H513.337V203H508.617ZM517.002 203.12C516.368 203.12 515.822 202.97 515.362 202.67C514.908 202.363 514.558 201.94 514.312 201.4C514.072 200.853 513.952 200.22 513.952 199.5C513.952 198.78 514.072 198.15 514.312 197.61C514.558 197.063 514.908 196.64 515.362 196.34C515.822 196.033 516.368 195.88 517.002 195.88C517.635 195.88 518.178 196.033 518.632 196.34C519.085 196.64 519.432 197.063 519.672 197.61C519.918 198.15 520.042 198.78 520.042 199.5C520.042 200.22 519.918 200.853 519.672 201.4C519.432 201.94 519.085 202.363 518.632 202.67C518.178 202.97 517.635 203.12 517.002 203.12ZM517.002 202.17C517.382 202.17 517.718 202.063 518.012 201.85C518.312 201.637 518.545 201.33 518.712 200.93C518.878 200.53 518.962 200.053 518.962 199.5C518.962 198.947 518.878 198.47 518.712 198.07C518.545 197.67 518.312 197.363 518.012 197.15C517.718 196.937 517.382 196.83 517.002 196.83C516.615 196.83 516.275 196.937 515.982 197.15C515.688 197.363 515.458 197.67 515.292 198.07C515.125 198.47 515.042 198.947 515.042 199.5C515.042 200.053 515.125 200.53 515.292 200.93C515.458 201.33 515.688 201.637 515.982 201.85C516.275 202.063 516.615 202.17 517.002 202.17ZM520.805 203V202.24C521.258 201.88 521.692 201.517 522.105 201.15C522.518 200.783 522.885 200.423 523.205 200.07C523.532 199.71 523.788 199.36 523.975 199.02C524.162 198.673 524.255 198.34 524.255 198.02C524.255 197.807 524.218 197.607 524.145 197.42C524.072 197.227 523.952 197.073 523.785 196.96C523.618 196.84 523.395 196.78 523.115 196.78C522.695 196.78 522.378 196.913 522.165 197.18C521.958 197.447 521.858 197.767 521.865 198.14H520.835C520.842 197.647 520.945 197.233 521.145 196.9C521.352 196.567 521.625 196.313 521.965 196.14C522.312 195.967 522.702 195.88 523.135 195.88C523.795 195.88 524.322 196.067 524.715 196.44C525.115 196.807 525.315 197.32 525.315 197.98C525.315 198.373 525.218 198.763 525.025 199.15C524.838 199.537 524.592 199.91 524.285 200.27C523.985 200.623 523.662 200.957 523.315 201.27C522.968 201.583 522.638 201.867 522.325 202.12H525.525V203H520.805ZM527.188 203V197.2L526.058 197.46V196.68L527.608 196H528.288V203H527.188Z" fill="#878B93"/>
<path d="M15.4504 188.12C14.8037 188.12 14.2504 187.97 13.7904 187.67C13.3304 187.363 12.9737 186.94 12.7204 186.4C12.4737 185.853 12.3504 185.22 12.3504 184.5C12.3504 183.787 12.4737 183.157 12.7204 182.61C12.9737 182.063 13.3304 181.64 13.7904 181.34C14.2504 181.033 14.8037 180.88 15.4504 180.88C16.0971 180.88 16.6504 181.033 17.1104 181.34C17.5704 181.64 17.9237 182.063 18.1704 182.61C18.4237 183.157 18.5504 183.787 18.5504 184.5C18.5504 185.22 18.4237 185.853 18.1704 186.4C17.9237 186.94 17.5704 187.363 17.1104 187.67C16.6504 187.97 16.0971 188.12 15.4504 188.12ZM15.4504 186.97C15.9771 186.97 16.4071 186.75 16.7404 186.31C17.0737 185.87 17.2404 185.267 17.2404 184.5C17.2404 183.733 17.0737 183.13 16.7404 182.69C16.4071 182.25 15.9771 182.03 15.4504 182.03C14.9171 182.03 14.4837 182.25 14.1504 182.69C13.8237 183.13 13.6604 183.733 13.6604 184.5C13.6604 185.267 13.8237 185.87 14.1504 186.31C14.4837 186.75 14.9171 186.97 15.4504 186.97Z" fill="#878B93"/>
<path d="M4.78531 156V150.46L3.63531 150.73V149.75L5.32531 149H6.11531V156H4.78531ZM10.1426 156.12C9.49591 156.12 8.94258 155.97 8.48258 155.67C8.02258 155.363 7.66591 154.94 7.41258 154.4C7.16591 153.853 7.04258 153.22 7.04258 152.5C7.04258 151.787 7.16591 151.157 7.41258 150.61C7.66591 150.063 8.02258 149.64 8.48258 149.34C8.94258 149.033 9.49591 148.88 10.1426 148.88C10.7892 148.88 11.3426 149.033 11.8026 149.34C12.2626 149.64 12.6159 150.063 12.8626 150.61C13.1159 151.157 13.2426 151.787 13.2426 152.5C13.2426 153.22 13.1159 153.853 12.8626 154.4C12.6159 154.94 12.2626 155.363 11.8026 155.67C11.3426 155.97 10.7892 156.12 10.1426 156.12ZM10.1426 154.97C10.6692 154.97 11.0992 154.75 11.4326 154.31C11.7659 153.87 11.9326 153.267 11.9326 152.5C11.9326 151.733 11.7659 151.13 11.4326 150.69C11.0992 150.25 10.6692 150.03 10.1426 150.03C9.60924 150.03 9.17591 150.25 8.84258 150.69C8.51591 151.13 8.35258 151.733 8.35258 152.5C8.35258 153.267 8.51591 153.87 8.84258 154.31C9.17591 154.75 9.60924 154.97 10.1426 154.97ZM14.1722 156V149H15.4522V155H18.5522V156H14.1722Z" fill="#878B93"/>
<path d="M1.63852 124V123.07C2.06518 122.717 2.47852 122.367 2.87852 122.02C3.28518 121.673 3.64518 121.33 3.95852 120.99C4.27852 120.65 4.53185 120.32 4.71852 120C4.91185 119.673 5.00852 119.357 5.00852 119.05C5.00852 118.763 4.92852 118.51 4.76852 118.29C4.61518 118.07 4.35852 117.96 3.99852 117.96C3.63185 117.96 3.35518 118.08 3.16852 118.32C2.98185 118.56 2.88852 118.85 2.88852 119.19H1.64852C1.66185 118.677 1.77518 118.25 1.98852 117.91C2.20185 117.563 2.48518 117.307 2.83852 117.14C3.19185 116.967 3.58852 116.88 4.02852 116.88C4.74185 116.88 5.29518 117.077 5.68852 117.47C6.08852 117.857 6.28852 118.36 6.28852 118.98C6.28852 119.367 6.19852 119.743 6.01852 120.11C5.84518 120.477 5.61518 120.83 5.32852 121.17C5.04185 121.51 4.73185 121.83 4.39852 122.13C4.06518 122.423 3.74185 122.697 3.42852 122.95H6.45852V124H1.63852ZM10.1426 124.12C9.49591 124.12 8.94258 123.97 8.48258 123.67C8.02258 123.363 7.66591 122.94 7.41258 122.4C7.16591 121.853 7.04258 121.22 7.04258 120.5C7.04258 119.787 7.16591 119.157 7.41258 118.61C7.66591 118.063 8.02258 117.64 8.48258 117.34C8.94258 117.033 9.49591 116.88 10.1426 116.88C10.7892 116.88 11.3426 117.033 11.8026 117.34C12.2626 117.64 12.6159 118.063 12.8626 118.61C13.1159 119.157 13.2426 119.787 13.2426 120.5C13.2426 121.22 13.1159 121.853 12.8626 122.4C12.6159 122.94 12.2626 123.363 11.8026 123.67C11.3426 123.97 10.7892 124.12 10.1426 124.12ZM10.1426 122.97C10.6692 122.97 11.0992 122.75 11.4326 122.31C11.7659 121.87 11.9326 121.267 11.9326 120.5C11.9326 119.733 11.7659 119.13 11.4326 118.69C11.0992 118.25 10.6692 118.03 10.1426 118.03C9.60924 118.03 9.17591 118.25 8.84258 118.69C8.51591 119.13 8.35258 119.733 8.35258 120.5C8.35258 121.267 8.51591 121.87 8.84258 122.31C9.17591 122.75 9.60924 122.97 10.1426 122.97ZM14.1722 124V117H15.4522V123H18.5522V124H14.1722Z" fill="#878B93"/>
<path d="M3.80555 92.12C3.34555 92.12 2.92888 92.04 2.55555 91.88C2.18221 91.7133 1.88221 91.46 1.65555 91.12C1.42888 90.78 1.30888 90.3533 1.29555 89.84H2.55555C2.56221 90.18 2.67221 90.4667 2.88555 90.7C3.10555 90.9267 3.41221 91.04 3.80555 91.04C4.17888 91.04 4.46555 90.9367 4.66555 90.73C4.86555 90.5233 4.96555 90.2633 4.96555 89.95C4.96555 89.5833 4.83221 89.3067 4.56555 89.12C4.30555 88.9267 3.96888 88.83 3.55555 88.83H3.03555V87.78H3.56555C3.90555 87.78 4.18888 87.7 4.41555 87.54C4.64221 87.38 4.75555 87.1433 4.75555 86.83C4.75555 86.57 4.66888 86.3633 4.49555 86.21C4.32888 86.05 4.09555 85.97 3.79555 85.97C3.46888 85.97 3.21221 86.0667 3.02555 86.26C2.84555 86.4533 2.74555 86.69 2.72555 86.97H1.47555C1.50221 86.3233 1.72555 85.8133 2.14555 85.44C2.57221 85.0667 3.12221 84.88 3.79555 84.88C4.27555 84.88 4.67888 84.9667 5.00555 85.14C5.33888 85.3067 5.58888 85.53 5.75555 85.81C5.92888 86.09 6.01555 86.4 6.01555 86.74C6.01555 87.1333 5.90555 87.4667 5.68555 87.74C5.47221 88.0067 5.20555 88.1867 4.88555 88.28C5.27888 88.36 5.59888 88.5533 5.84555 88.86C6.09221 89.16 6.21555 89.54 6.21555 90C6.21555 90.3867 6.12221 90.74 5.93555 91.06C5.74888 91.38 5.47555 91.6367 5.11555 91.83C4.76221 92.0233 4.32555 92.12 3.80555 92.12ZM10.1426 92.12C9.49591 92.12 8.94258 91.97 8.48258 91.67C8.02258 91.3633 7.66591 90.94 7.41258 90.4C7.16591 89.8533 7.04258 89.22 7.04258 88.5C7.04258 87.7867 7.16591 87.1567 7.41258 86.61C7.66591 86.0633 8.02258 85.64 8.48258 85.34C8.94258 85.0333 9.49591 84.88 10.1426 84.88C10.7892 84.88 11.3426 85.0333 11.8026 85.34C12.2626 85.64 12.6159 86.0633 12.8626 86.61C13.1159 87.1567 13.2426 87.7867 13.2426 88.5C13.2426 89.22 13.1159 89.8533 12.8626 90.4C12.6159 90.94 12.2626 91.3633 11.8026 91.67C11.3426 91.97 10.7892 92.12 10.1426 92.12ZM10.1426 90.97C10.6692 90.97 11.0992 90.75 11.4326 90.31C11.7659 89.87 11.9326 89.2667 11.9326 88.5C11.9326 87.7333 11.7659 87.13 11.4326 86.69C11.0992 86.25 10.6692 86.03 10.1426 86.03C9.60924 86.03 9.17591 86.25 8.84258 86.69C8.51591 87.13 8.35258 87.7333 8.35258 88.5C8.35258 89.2667 8.51591 89.87 8.84258 90.31C9.17591 90.75 9.60924 90.97 10.1426 90.97ZM14.1722 92V85H15.4522V91H18.5522V92H14.1722Z" fill="#878B93"/>
<path d="M4.26633 60V58.7H0.816328V57.68L4.09633 53H5.54633V57.59H6.46633V58.7H5.54633V60H4.26633ZM2.18633 57.59H4.34633V54.41L2.18633 57.59ZM10.1426 60.12C9.49591 60.12 8.94258 59.97 8.48258 59.67C8.02258 59.3633 7.66591 58.94 7.41258 58.4C7.16591 57.8533 7.04258 57.22 7.04258 56.5C7.04258 55.7867 7.16591 55.1567 7.41258 54.61C7.66591 54.0633 8.02258 53.64 8.48258 53.34C8.94258 53.0333 9.49591 52.88 10.1426 52.88C10.7892 52.88 11.3426 53.0333 11.8026 53.34C12.2626 53.64 12.6159 54.0633 12.8626 54.61C13.1159 55.1567 13.2426 55.7867 13.2426 56.5C13.2426 57.22 13.1159 57.8533 12.8626 58.4C12.6159 58.94 12.2626 59.3633 11.8026 59.67C11.3426 59.97 10.7892 60.12 10.1426 60.12ZM10.1426 58.97C10.6692 58.97 11.0992 58.75 11.4326 58.31C11.7659 57.87 11.9326 57.2667 11.9326 56.5C11.9326 55.7333 11.7659 55.13 11.4326 54.69C11.0992 54.25 10.6692 54.03 10.1426 54.03C9.60924 54.03 9.17591 54.25 8.84258 54.69C8.51591 55.13 8.35258 55.7333 8.35258 56.5C8.35258 57.2667 8.51591 57.87 8.84258 58.31C9.17591 58.75 9.60924 58.97 10.1426 58.97ZM14.1722 60V53H15.4522V59H18.5522V60H14.1722Z" fill="#878B93"/>
<path d="M3.78141 28.12C3.26807 28.12 2.82474 28.03 2.45141 27.85C2.08474 27.67 1.79474 27.4233 1.58141 27.11C1.37474 26.79 1.25474 26.43 1.22141 26.03H2.47141C2.53141 26.3167 2.67807 26.5567 2.91141 26.75C3.14474 26.9367 3.43474 27.03 3.78141 27.03C4.15474 27.03 4.45807 26.8933 4.69141 26.62C4.93141 26.3467 5.05141 26.0067 5.05141 25.6C5.05141 25.18 4.93141 24.8467 4.69141 24.6C4.45807 24.3533 4.16141 24.23 3.80141 24.23C3.50141 24.23 3.24141 24.3033 3.02141 24.45C2.80141 24.5967 2.64474 24.78 2.55141 25H1.32141L1.92141 21H5.80141V22.12H2.88141L2.56141 23.74C2.70807 23.58 2.90807 23.45 3.16141 23.35C3.41474 23.2433 3.69807 23.19 4.01141 23.19C4.51141 23.19 4.92807 23.3033 5.26141 23.53C5.59474 23.75 5.84807 24.0433 6.02141 24.41C6.19474 24.77 6.28141 25.1633 6.28141 25.59C6.28141 26.0767 6.17474 26.51 5.96141 26.89C5.75474 27.27 5.46141 27.57 5.08141 27.79C4.70807 28.01 4.27474 28.12 3.78141 28.12ZM10.1426 28.12C9.49591 28.12 8.94258 27.97 8.48258 27.67C8.02258 27.3633 7.66591 26.94 7.41258 26.4C7.16591 25.8533 7.04258 25.22 7.04258 24.5C7.04258 23.7867 7.16591 23.1567 7.41258 22.61C7.66591 22.0633 8.02258 21.64 8.48258 21.34C8.94258 21.0333 9.49591 20.88 10.1426 20.88C10.7892 20.88 11.3426 21.0333 11.8026 21.34C12.2626 21.64 12.6159 22.0633 12.8626 22.61C13.1159 23.1567 13.2426 23.7867 13.2426 24.5C13.2426 25.22 13.1159 25.8533 12.8626 26.4C12.6159 26.94 12.2626 27.3633 11.8026 27.67C11.3426 27.97 10.7892 28.12 10.1426 28.12ZM10.1426 26.97C10.6692 26.97 11.0992 26.75 11.4326 26.31C11.7659 25.87 11.9326 25.2667 11.9326 24.5C11.9326 23.7333 11.7659 23.13 11.4326 22.69C11.0992 22.25 10.6692 22.03 10.1426 22.03C9.60924 22.03 9.17591 22.25 8.84258 22.69C8.51591 23.13 8.35258 23.7333 8.35258 24.5C8.35258 25.2667 8.51591 25.87 8.84258 26.31C9.17591 26.75 9.60924 26.97 10.1426 26.97ZM14.1722 28V21H15.4522V27H18.5522V28H14.1722Z" fill="#878B93"/>
<line opacity="0.3" x1="29" y1="186.5" x2="580" y2="186.5" stroke="#C9CACD"/>
<line opacity="0.3" x1="29" y1="154.5" x2="580" y2="154.5" stroke="#ECEEF2"/>
<line opacity="0.3" x1="29" y1="122.5" x2="580" y2="122.5" stroke="#ECEEF2"/>
<line opacity="0.3" x1="29" y1="90.5" x2="580" y2="90.5" stroke="#ECEEF2"/>
<line opacity="0.3" x1="29" y1="58.5" x2="580" y2="58.5" stroke="#ECEEF2"/>
<line opacity="0.3" x1="29" y1="26.5" x2="580" y2="26.5" stroke="#ECEEF2"/>
<path opacity="0.8" d="M29.5 103.5V186.5H580V6C527.667 29.6667 398.2 71.3 299 48.5C175 20 118.5 110.5 91 116.5C69 121.3 40.8333 109.833 29.5 103.5Z" fill="#46C631"/>
<path opacity="0.8" d="M29.5 103.501V186.501H580V55C527.667 78.6667 398.2 124.8 299 102C175 73.5003 166 87 138.5 93C116.5 97.8 40.8333 109.835 29.5 103.501Z" fill="#FF8D24"/>
<line opacity="0.1" x1="295.5" y1="0.5" x2="293.5" y2="183.5" stroke="black" stroke-linecap="round" stroke-dasharray="2 4"/>
<g filter="url(#filter0_d_528_793)">
<circle cx="295.5" cy="47.5" r="2.5" fill="white"/>
<circle cx="295.5" cy="47.5" r="3" stroke="#6BD15B"/>
</g>
<g filter="url(#filter1_d_528_793)">
<circle cx="295.5" cy="100.5" r="2.5" fill="white"/>
<circle cx="295.5" cy="100.5" r="3" stroke="#E19B2F"/>
</g>
<defs>
<filter id="filter0_d_528_793" x="288" y="44" width="15" height="15" filterUnits="userSpaceOnUse" color-interpolation-filters="sRGB">
<feFlood flood-opacity="0" result="BackgroundImageFix"/>
<feColorMatrix in="SourceAlpha" type="matrix" values="0 0 0 0 0 0 0 0 0 0 0 0 0 0 0 0 0 0 127 0" result="hardAlpha"/>
<feOffset dy="4"/>
<feGaussianBlur stdDeviation="2"/>
<feComposite in2="hardAlpha" operator="out"/>
<feColorMatrix type="matrix" values="0 0 0 0 0 0 0 0 0 0 0 0 0 0 0 0 0 0 0.25 0"/>
<feBlend mode="normal" in2="BackgroundImageFix" result="effect1_dropShadow_528_793"/>
<feBlend mode="normal" in="SourceGraphic" in2="effect1_dropShadow_528_793" result="shape"/>
</filter>
<filter id="filter1_d_528_793" x="288" y="97" width="15" height="15" filterUnits="userSpaceOnUse" color-interpolation-filters="sRGB">
<feFlood flood-opacity="0" result="BackgroundImageFix"/>
<feColorMatrix in="SourceAlpha" type="matrix" values="0 0 0 0 0 0 0 0 0 0 0 0 0 0 0 0 0 0 127 0" result="hardAlpha"/>
<feOffset dy="4"/>
<feGaussianBlur stdDeviation="2"/>
<feComposite in2="hardAlpha" operator="out"/>
<feColorMatrix type="matrix" values="0 0 0 0 0 0 0 0 0 0 0 0 0 0 0 0 0 0 0.25 0"/>
<feBlend mode="normal" in2="BackgroundImageFix" result="effect1_dropShadow_528_793"/>
<feBlend mode="normal" in="SourceGraphic" in2="effect1_dropShadow_528_793" result="shape"/>
</filter>
</defs>
</svg>
