<svg width="106" height="32" viewBox="0 0 106 32" fill="none" xmlns="http://www.w3.org/2000/svg">
<path d="M33.5911 9.71883V6.17975H37.5312V9.71883H33.5911ZM33.6458 25.9212V11.4884H37.4765V25.9212H33.6458Z" fill="#3E3D3D"/>
<path d="M40.0656 25.9212V11.4884H43.7868V13.4791C44.3523 12.6312 45.0181 12.0137 45.7842 11.6266C46.5686 11.2395 47.3803 11.046 48.2194 11.046C49.8429 11.046 51.0468 11.4792 51.8312 12.3455C52.6155 13.1934 53.0077 14.539 53.0077 16.3823V25.9212H49.1771V16.9076C49.1771 15.8938 48.9855 15.2026 48.6025 14.8339C48.2194 14.4653 47.7087 14.2809 47.0702 14.2809C46.5777 14.2809 46.149 14.3547 45.7842 14.5021C45.4376 14.6496 45.1093 14.8616 44.7992 15.1381C44.5438 15.3961 44.3249 15.7095 44.1425 16.0781C43.9783 16.4283 43.8963 16.8154 43.8963 17.2394V25.9212H40.0656Z" fill="#3E3D3D"/>
<path d="M53.6926 11.4884H58.1252L61.3266 21.525L64.5279 11.4884H68.769L63.1324 25.9212H59.3018L53.6926 11.4884Z" fill="#3E3D3D"/>
<path d="M68.6065 18.7324C68.6065 17.5159 68.7798 16.4376 69.1264 15.4975C69.473 14.539 69.9563 13.728 70.5765 13.0644C71.215 12.4008 71.972 11.9031 72.8476 11.5713C73.7231 11.2211 74.6899 11.046 75.7479 11.046C77.9369 11.046 79.5786 11.6819 80.673 12.9538C81.7675 14.2256 82.3147 15.9399 82.3147 18.0965V19.6449H72.4371C72.4736 20.8061 72.7655 21.7185 73.3127 22.3821C73.86 23.0273 74.6808 23.3498 75.7753 23.3498C77.2893 23.3498 78.1831 22.7047 78.4567 21.4144H82.1506C81.8952 23.0365 81.2568 24.2715 80.2353 25.1194C79.2137 25.9489 77.718 26.3636 75.7479 26.3636C73.3766 26.3636 71.5889 25.7 70.385 24.3729C69.1993 23.0457 68.6065 21.1656 68.6065 18.7324ZM72.4919 17.1011H78.6483C78.6483 16.1058 78.402 15.3316 77.9095 14.7786C77.4352 14.2072 76.6873 13.9215 75.6658 13.9215C75.1551 13.9215 74.7082 14.0044 74.3251 14.1703C73.942 14.3362 73.6137 14.5666 73.3401 14.8616C73.0847 15.1381 72.8841 15.4698 72.7381 15.8569C72.5922 16.244 72.5101 16.6588 72.4919 17.1011Z" fill="#3E3D3D"/>
<path d="M83.4928 25.9212V23.2945L90.4427 14.5021H83.6296V11.4884H95.3131V14.115L88.3906 22.9074H95.6414L95.2857 25.9212H83.4928Z" fill="#3E3D3D"/>
<path d="M96.1498 14.5021V11.4884H98.3934V7.64515H102.224V11.4884H105.507V14.5021H102.224V21.1379C102.224 21.8936 102.379 22.4098 102.689 22.6863C102.999 22.9443 103.401 23.0733 103.893 23.0733C104.149 23.0733 104.404 23.0641 104.659 23.0457C104.933 23.0088 105.197 22.9535 105.453 22.8798L106 25.7553C105.471 25.9212 104.951 26.0318 104.44 26.0871C103.948 26.1608 103.474 26.1977 103.018 26.1977C101.449 26.1977 100.281 25.8198 99.5153 25.0641C98.7674 24.3083 98.3934 23.0365 98.3934 21.2485V14.5021H96.1498Z" fill="#3E3D3D"/>
<path d="M19.4535 25.7019C19.6757 26.2972 20.3367 26.603 20.9007 26.3202C22.9286 25.3035 24.6196 23.695 25.7463 21.6909C27.0615 19.3516 27.525 16.6209 27.0564 13.9724C26.5877 11.3239 25.2165 8.92467 23.1805 7.19084C21.1446 5.45701 18.5723 4.49793 15.9098 4.47995C13.2473 4.46197 10.6626 5.38622 8.60387 7.0924C6.54516 8.79857 5.14233 11.1791 4.6387 13.821C4.13506 16.4629 4.56238 19.1997 5.84655 21.5565C6.94667 23.5757 8.6162 25.2069 10.6305 26.2509C11.1907 26.5412 11.8557 26.2444 12.0857 25.6521L14.501 19.432C14.731 18.8397 14.411 18.1823 13.9853 17.7135C13.851 17.5655 13.7336 17.4009 13.6365 17.2226C13.3539 16.704 13.2599 16.102 13.3707 15.5207C13.4815 14.9395 13.7902 14.4158 14.2431 14.0404C14.696 13.6651 15.2646 13.4618 15.8504 13.4657C16.4361 13.4697 17.002 13.6807 17.4499 14.0621C17.8979 14.4435 18.1995 14.9714 18.3026 15.554C18.4057 16.1367 18.3038 16.7375 18.0144 17.2521C17.9149 17.4291 17.7954 17.5921 17.6591 17.7383C17.2273 18.2013 16.8986 18.8543 17.1207 19.4497L19.4535 25.7019Z" fill="#3E3D3D"/>
<path d="M18.5565 11.1995C18.5565 12.7902 17.2804 14.0796 15.7063 14.0796C14.1322 14.0796 12.8561 12.7902 12.8561 11.1995C12.8561 9.60887 14.1322 8.3194 15.7063 8.3194C17.2804 8.3194 18.5565 9.60887 18.5565 11.1995Z" fill="url(#paint0_linear_2201_12010)"/>
<path fill-rule="evenodd" clip-rule="evenodd" d="M15.7063 13.5036C16.9656 13.5036 17.9865 12.472 17.9865 11.1995C17.9865 9.927 16.9656 8.89542 15.7063 8.89542C14.447 8.89542 13.4262 9.927 13.4262 11.1995C13.4262 12.472 14.447 13.5036 15.7063 13.5036ZM15.7063 14.0796C17.2804 14.0796 18.5565 12.7902 18.5565 11.1995C18.5565 9.60887 17.2804 8.3194 15.7063 8.3194C14.1322 8.3194 12.8561 9.60887 12.8561 11.1995C12.8561 12.7902 14.1322 14.0796 15.7063 14.0796Z" fill="#FFD990"/>
<defs>
<linearGradient id="paint0_linear_2201_12010" x1="15.7063" y1="8.3194" x2="15.7063" y2="14.0796" gradientUnits="userSpaceOnUse">
<stop offset="0.128891" stop-color="#FFDFA0" stop-opacity="0.66"/>
<stop offset="0.540366" stop-color="#FFD88B"/>
</linearGradient>
</defs>
</svg>
