<svg width="651" height="800" viewBox="0 0 651 800" fill="none" xmlns="http://www.w3.org/2000/svg">
<mask id="mask0_528_221" style="mask-type:alpha" maskUnits="userSpaceOnUse" x="0" y="0" width="651" height="800">
<path d="M0 7.99999C0 3.58171 3.58172 0 8 0H651V800H8.00001C3.58174 800 0 796.418 0 792V7.99999Z" fill="#F9FBFC"/>
</mask>
<g mask="url(#mask0_528_221)">
<path d="M518.612 369.689C510.751 369.787 504.708 370.497 498.64 370.223C497.836 370.185 496.989 370.322 496.211 370.544C495.488 370.749 495.18 371.404 495.184 372.152C495.189 372.93 495.621 373.503 496.335 373.67C497.126 373.854 497.969 373.922 498.785 373.897C503.327 373.743 507.873 373.644 512.406 373.337C518.877 372.905 525.403 372.575 531.809 373.281C547.047 374.953 562.34 374.649 577.607 375.257C578.155 375.278 578.719 375.295 579.254 375.193C580.203 375.017 581.371 374.829 581.414 373.657C581.461 372.297 580.255 371.831 579.147 371.741C577.09 371.575 575.02 371.57 572.95 371.553C563.862 371.468 554.775 371.647 545.691 370.873C536.086 370.052 526.476 369.15 518.612 369.689ZM553.787 474.059C553.624 462.769 552.91 451.504 552.042 440.257C550.836 424.617 549.348 409.003 547.008 393.479C546.803 392.128 546.465 390.781 546.038 389.481C545.777 388.664 545.092 388.091 544.147 388.211C543.232 388.326 542.723 388.993 542.471 389.827C542.227 390.64 542.193 391.478 542.655 392.226C543.861 394.185 543.895 396.417 544.207 398.586C545.704 409.076 546.679 419.618 547.671 430.168C549.356 448.121 550.224 466.109 550.558 484.13C550.669 490.062 550.134 495.955 549.878 501.861C549.792 503.79 549.72 505.714 549.711 507.639C549.707 508.52 550.07 509.294 551.084 509.367C552.08 509.431 552.572 508.704 552.769 507.874C552.961 507.079 552.94 506.236 553.034 505.415C554.244 494.984 553.633 484.515 553.787 474.059ZM515.229 525.37C515.178 526.469 515.118 527.568 515.083 528.671C515.045 529.787 514.985 531.07 516.409 531.297C517.868 531.532 518.205 530.322 518.368 529.184C518.565 527.824 518.753 526.46 518.838 525.092C519.381 516.577 520.079 508.079 521.131 499.607C522.679 487.184 524.171 474.752 525.736 462.333C527.323 449.768 528.486 437.165 529.406 424.54C530.338 411.783 530.838 398.992 531.54 386.213C531.587 385.315 531.437 384.481 530.484 384.238C529.581 383.998 528.893 384.567 528.465 385.324C527.614 386.821 527.717 388.518 527.635 390.156C527.122 400.33 526.724 410.509 526.126 420.67C525.022 439.367 522.944 457.975 520.626 476.544C518.599 492.799 516.183 508.999 515.229 525.37ZM600.376 379.007C599.97 387.667 599.388 396.315 599.106 404.983C598.883 411.582 598.392 418.185 598.665 424.784C599.127 435.916 599.675 447.048 601.544 458.065C602.005 460.776 601.753 463.573 602.476 466.263C605.016 475.714 604.293 485.366 603.998 494.955C603.844 500.181 603.682 505.368 604.054 510.603C604.631 518.651 603.387 526.512 600.855 534.171C597.198 538.208 594.299 542.895 590.104 546.453C589.283 546.941 588.333 547.292 587.653 547.933C582.354 552.984 575.713 555.597 569.144 558.419C562.306 561.353 555.065 563.012 548.095 565.488C546.876 565.672 545.618 565.732 544.442 566.062C539.229 567.528 533.965 568.033 528.563 567.473C526.254 567.229 523.906 567.37 521.575 567.336C517.953 566.292 514.211 566.442 510.525 566.489C502.215 566.596 494.462 564.659 487.123 560.848C484.929 559.711 482.667 558.719 480.434 557.658C476.089 554.942 471.744 552.231 467.399 549.52C466.775 548.989 466.215 548.344 465.513 547.954C456.892 543.165 454.608 535.073 454.061 526.075C454.031 525.549 454.112 524.959 454.334 524.489C455.959 521.08 456.036 517.287 457.067 513.75C459.133 506.668 458.483 499.3 459.599 492.132C461.181 481.954 461.382 471.647 462.648 461.435C463.508 454.498 463.957 447.51 464.59 440.543C465 439.675 465.176 438.764 465.359 437.819C466.065 434.193 466.086 430.519 466.394 426.862C466.903 420.798 467.823 414.764 466.976 408.657C467.044 401.793 470.342 395.968 473.494 390.28C478.634 380.996 480.965 371.305 480.426 360.703C480.084 353.895 475.82 349.524 472.052 344.67C469.94 341.955 467.117 341.493 464.047 341.318C463.674 341.296 463.315 340.958 462.952 340.77C464.004 338.504 466.886 339.162 468.28 337.443C470.359 337.653 472.288 337.37 473.81 335.758C484.087 333.393 494.62 332.055 504.469 327.992C506.517 327.145 508.604 326.495 510.862 326.632C511.885 328.915 513.984 328.898 516.029 329.129C525.279 330.164 534.568 329.968 543.844 330.01C545.486 330.019 547.239 329.737 548.74 330.22C552.196 331.327 555.181 330.455 558.115 328.766C567.202 330.049 576.337 331.05 585.186 333.697C586.725 334.154 588.44 334.065 590.082 334.154C591.857 334.248 593.324 334.749 593.88 336.656C593.157 339 592.349 341.322 591.724 343.695C590.553 348.13 590.433 352.693 591.583 357.073C593.204 363.282 595.535 369.278 598.952 374.778C599.76 376.091 600.209 377.498 600.376 379.007Z" fill="#FC833F"/>
<path d="M565.671 696.494C564.94 696.537 564.333 696.575 564.238 697.23C564.191 697.555 564.367 698.064 564.623 698.256C565.911 699.231 567.352 699.962 568.9 700.429C569.204 700.518 569.764 700.334 569.948 700.086C570.115 699.86 570.076 699.274 569.888 699.017C568.806 697.538 567.279 696.763 565.671 696.494ZM553.911 609.598C551.238 609.559 548.911 609.461 546.7 610.423C545.947 610.752 545.007 611.009 545.186 612.018C545.379 613.122 546.478 612.985 547.192 612.818C550.972 611.911 554.719 611.651 558.508 612.78C559.102 612.959 559.923 612.959 560.133 612.04C560.278 611.424 559.825 611.035 559.44 610.663C557.725 609.008 555.553 609.79 553.911 609.598ZM479.908 697.012C479.536 695.938 478.621 695.271 477.86 694.493C474.588 691.17 471.026 688.108 468.892 683.814C468.267 682.552 467.489 680.376 465.898 681.321C464.444 682.185 465.86 684.058 466.488 685.379C468.798 690.22 472.907 693.547 476.602 697.217C477.214 697.824 477.971 698.136 478.848 698.046C479.451 697.991 479.857 697.687 479.908 697.012ZM548.005 595.558C548.005 594.933 548.03 593.419 547.992 591.914C547.979 591.315 547.564 590.883 546.991 590.776C546.418 590.678 545.965 590.99 545.627 591.482C544.707 592.825 544.741 594.356 544.84 595.857C545.148 600.715 543.416 605 541.213 609.166C540.897 609.769 540.379 610.282 540.127 610.906C539.755 611.809 539.515 612.861 540.61 613.425C541.59 613.926 542.047 613.062 542.526 612.386C545.9 607.596 548.552 602.563 548.005 595.558ZM569.191 767.481C570.538 767.37 571.273 766.275 572.082 765.39C578.753 758.064 584.954 750.366 590.347 742.057C591.078 740.911 593.585 739.44 591.737 738.118C590.202 737.023 589 739.431 588.11 740.68C586.058 743.601 584.013 746.526 581.717 749.263C577.667 754.113 573.634 758.975 569.64 763.868C569.045 764.59 568.601 765.488 568.267 766.374C568.057 766.942 568.472 767.392 569.191 767.481ZM440.016 809.683C440.705 809.683 441.389 809.696 442.073 809.683C445.896 809.653 449.745 810.004 453.487 808.819C454.475 808.503 455.318 808.011 455.271 806.882C455.215 805.505 454.056 805.633 453.124 805.612C452.303 805.603 451.473 805.633 450.665 805.765C443.724 806.783 436.792 806.672 429.838 805.83C427.674 805.569 425.463 805.667 423.273 805.633C422.559 805.624 421.883 805.842 421.712 806.651C421.511 807.617 422.063 808.229 422.884 808.558C423.38 808.755 423.94 808.819 424.479 808.862C429.65 809.289 434.799 810.145 440.016 809.683ZM562.656 820.336C562.652 820.404 562.648 820.456 562.643 820.511C561.681 820.511 560.715 820.511 559.752 820.511C558.371 820.503 556.998 820.468 555.767 821.277C555.138 821.696 554.749 822.175 554.984 822.966C555.181 823.612 555.737 823.697 556.284 823.753C556.695 823.787 557.109 823.766 557.524 823.753C566.732 823.654 575.854 824.54 584.924 826.131C586.113 826.336 587.401 826.456 588.517 825.682C589 825.352 589.304 824.89 589.295 824.313C589.282 823.71 588.944 823.282 588.363 823.12C587.302 822.833 586.25 822.427 585.168 822.329C577.667 821.627 570.162 820.994 562.656 820.336ZM486.135 711.231C483.436 713.464 481.52 715.987 479.707 718.463C473.562 726.862 465.539 733.354 457.905 740.231C455.147 742.716 452.534 745.333 449.882 747.924C449.142 748.647 448.668 749.503 449.651 750.401C450.515 751.2 451.417 751.038 452.247 750.345C452.876 749.819 453.453 749.22 454.048 748.647C455.527 747.206 456.917 745.662 458.495 744.345C465.783 738.281 472.441 731.571 478.826 724.596C481.405 721.773 483.779 718.724 485.784 715.422C486.516 714.216 487.384 713.151 486.135 711.231ZM467.399 549.52C471.744 552.231 476.089 554.943 480.434 557.654C479.989 560.729 478.065 563.188 476.953 565.989C473.421 574.91 472.856 584.263 473.831 593.552C474.366 598.68 477.064 603.414 482.196 606.091C486.434 608.302 491.019 608.999 495.638 609.538C500.795 610.145 505.106 608.358 508.352 604.256C511.431 600.373 514.258 596.323 515.883 591.576C516.82 588.848 517.628 586.072 518.671 583.391C520.681 578.216 521.827 572.909 521.575 567.336C523.906 567.371 526.254 567.23 528.563 567.473C533.964 568.034 539.229 567.529 544.442 566.062C545.618 565.733 546.875 565.673 548.09 565.493C549.356 572.22 550.365 579.007 552.221 585.61C554.59 594.052 563.281 603.585 575.879 599.783C581.49 598.094 586.742 595.652 591.549 592.556C595.941 589.724 598.349 585.183 598.567 579.653C598.785 574.064 597.626 568.713 596.018 563.466C594.265 557.727 593.234 551.714 590.103 546.454C594.299 542.896 597.198 538.208 600.855 534.171C601.471 536.164 601.62 538.213 601.62 540.295C601.599 564.544 601.753 588.796 601.513 613.04C601.436 621.14 600.397 629.232 599.717 637.319C599.08 644.858 598.186 652.381 597.69 659.925C596.544 677.228 595.569 694.535 594.525 711.843C594.474 712.668 594.453 713.498 594.461 714.323C594.551 730.989 593.456 747.621 592.896 764.274C592.721 769.504 592.763 774.747 592.853 779.982C593.071 792.662 591.788 805.295 591.669 817.962C591.66 818.651 591.617 819.339 591.639 820.032C591.703 822.846 591.758 822.932 594.748 823.009C597.365 823.064 599.978 823.009 602.595 823.03C603.558 823.03 604.545 822.987 605.486 823.163C608.651 823.74 610.798 826.357 610.588 829.248C610.4 831.9 608.069 834.077 604.973 834.35C603.459 834.483 601.941 834.384 600.427 834.406C596.706 834.449 592.994 834.504 589.274 834.547C578.343 834.538 567.403 834.513 556.468 834.504C554 834.295 551.516 834.218 549.074 833.846C545.575 833.324 543.796 831.352 543.95 828.504C544.091 825.865 545.87 824.266 549.232 823.753C552.76 823.227 552.692 823.227 552.529 819.801C552.153 812.095 551.862 804.384 551.516 796.691C551.156 788.698 550.109 780.782 548.838 772.908C547.367 763.778 547.008 754.562 546.473 745.363C545.669 731.481 544.99 717.603 544.254 703.721C544.241 703.448 544.224 703.17 544.224 702.896C544.215 689.527 543.104 676.214 542.27 662.889C541.359 648.331 540.255 633.786 539.225 619.237C539.186 618.698 539.049 618.168 538.917 617.381C537.364 618.378 537.082 619.926 536.53 621.243C529.418 638.277 522.623 655.417 517.701 673.246C514.463 684.973 509.07 695.865 504.387 707.036C498.319 721.521 493.281 736.399 487.632 751.038C483.672 761.306 479.113 771.343 474.173 781.209C469.619 790.297 465.569 799.633 461.151 809.17C463.225 810.102 465.291 809.781 467.228 809.661C472.274 809.358 473.502 811.766 472.685 816.376C472.544 817.184 472.21 817.949 472.044 818.762C471.633 820.742 470.423 821.324 468.464 821.324C463.922 821.332 459.372 820.982 454.839 821.55C442.993 820.776 431.134 820.481 419.266 820.61C413.347 820.49 407.424 820.404 401.505 820.259C397.84 820.173 397.344 819.669 397.639 816.153C397.81 814.096 398.084 812.039 398.572 810.034C399.504 806.223 401.822 804.572 405.808 804.855C408.818 805.064 411.765 805.765 414.831 805.646C416.974 805.569 417.876 804.902 418.471 802.733C421.058 793.295 422.807 783.694 424.637 774.093C427.054 761.391 429.671 748.724 431.771 735.959C433.802 723.612 435.705 711.231 438.04 698.94C441.59 680.286 445.593 661.721 449.164 643.075C452.653 624.822 456.981 606.754 460.745 588.565C462.691 579.148 463.867 569.569 465.436 560.07C466.018 556.542 466.741 553.035 467.399 549.52Z" fill="#40485D"/>
<path d="M501.12 212.806C495.086 209.534 494.637 205.241 499.26 200.348C508.613 190.452 520.502 185.757 533.46 183.434C540.405 182.19 547.085 183.631 553.175 187.613C558.782 191.278 563.486 195.871 567.861 200.844C568.943 202.067 569.931 203.492 570.517 205.001C571.603 207.768 573.54 209.547 576.119 210.753C579.707 212.425 581.803 215.038 581.537 219.165C581.418 221.038 582.427 221.919 584.091 222.334C585.557 222.702 587.067 222.98 588.461 223.536C592.755 225.234 594.166 228.274 592.96 232.829C592.46 234.724 591.485 236.383 590.565 238.076C589.766 239.556 589.997 240.45 591.878 240.42C593.388 240.399 594.91 240.249 596.42 240.347C600.573 240.617 602.146 243.816 599.837 247.305C598.93 248.678 597.703 249.846 596.826 251.236C595.338 253.583 595.787 254.717 598.383 255.499C599.431 255.812 600.538 255.918 601.62 256.154C606.722 257.248 608.694 261.705 605.893 266.195C604.58 268.282 602.805 270.074 601.261 272.016C600.846 272.542 600.342 273.046 600.32 274.188C601.543 274.586 602.925 274.988 604.272 275.467C611.2 277.917 612.692 285.247 607.163 290.131C602.377 294.357 596.685 296.191 590.347 295.456C588.354 295.225 587.106 295.627 585.681 297.038C581.512 301.165 576.598 301.883 571.239 299.506C570.14 299.018 569.285 298.377 567.934 299.476C563.293 303.273 557.824 304.18 551.999 303.41C550.177 302.251 548.27 301.199 546.811 299.48C544.421 300.857 542.193 302.196 539.909 303.444C537.27 304.881 534.73 306.643 531.715 307.178C527.195 307.977 522.653 308.542 519.548 303.915C518.218 300.947 518.252 297.735 517.906 294.592C517.974 286.616 518.107 278.636 518.086 270.656C518.077 267.572 518.637 264.664 519.629 261.773C520.198 260.118 520.938 258.946 522.734 258.279C526.203 256.988 527.648 254.05 528.033 250.56C528.2 249.063 528.14 247.532 528.08 246.022C527.815 239.625 523.705 236.55 517.538 238.106C513.445 239.137 512.534 238.273 513.296 233.971C513.736 231.465 515.083 229.395 516.614 227.415C517.247 226.598 518.432 226.205 518.65 224.772C513.882 222.813 509.708 219.961 505.782 216.715C504.217 215.423 503.177 213.507 501.12 212.806Z" fill="#261010"/>
<path d="M341.09 409.932C340.123 412.857 341.381 414.225 342.754 415.521C343.168 415.91 343.724 415.987 344.19 415.508C344.639 415.047 344.592 414.52 344.246 414.05C343.374 412.87 342.467 411.719 341.09 409.932ZM338.032 410.984C338.006 410.458 337.895 410.056 337.459 409.906C337.036 409.761 336.681 409.936 336.437 410.312C335.92 411.112 335.415 411.92 334.889 412.711C334.478 413.332 333.405 413.875 334.337 414.713C335.145 415.436 335.872 414.666 336.416 414.101C337.275 413.212 337.921 412.168 338.032 410.984ZM462.952 340.771C463.315 340.959 463.674 341.297 464.046 341.318C467.117 341.493 469.94 341.955 472.052 344.671C475.82 349.525 480.084 353.895 480.426 360.704C480.965 371.305 478.634 380.996 473.493 390.281C470.342 395.969 467.044 401.793 466.98 408.657C465.642 409.427 465.466 410.881 465 412.134C463.901 415.094 462.545 417.933 460.984 420.666C457.863 426.114 454.155 431.195 451.448 436.917C449.562 440.903 448.09 444.953 447.154 449.234C445.371 452.8 443.425 456.299 441.842 459.955C439.631 465.078 435.389 467.11 430.347 467.174C425.035 467.238 419.711 466.763 414.519 465.16C396.16 459.485 377.749 453.959 359.36 448.378C354.215 446.817 349.442 444.337 344.447 442.408C340.538 440.903 338.879 437.212 336.475 434.295C333.05 430.139 331.096 425.041 328.239 420.508C327.413 419.203 327.234 417.698 327.182 416.15C327.003 410.389 326.892 404.603 326.832 398.868C326.78 393.437 327.097 387.907 327.268 382.425C327.315 381.022 327.918 380.081 329.205 379.555C331.48 379.392 332.426 380.906 332.896 382.728C333.371 384.584 333.764 386.5 333.884 388.408C334.256 394.493 335.744 400.352 337.254 406.211C337.827 408.443 338.327 408.653 340.457 407.772C344.481 406.104 346.372 403.051 346.247 398.718C346.496 398.402 346.868 398.12 346.966 397.76C347.445 396.054 348.283 394.459 350.238 394.767C352.367 395.096 352.645 397.132 352.842 398.919C352.962 399.997 352.863 401.105 352.893 402.195C352.962 404.518 353.056 406.84 353.137 409.158C352.876 410.565 353.535 411.852 353.646 413.208C353.851 415.709 355.096 417.133 357.568 417.754C360.617 418.515 363.602 419.52 366.613 420.422C379.066 424.134 391.618 427.419 404.576 428.847C404.503 429.245 404.213 429.809 404.379 430.023C406.569 432.88 407.985 436.134 409.344 439.427C409.622 440.095 410.225 440.561 410.991 440.291C412.017 439.923 411.975 438.995 411.679 438.213C410.332 434.616 409.199 430.861 405.662 428.629C409.849 422.736 414.878 417.433 418.073 410.838C421.109 404.569 424.201 398.329 427.272 392.077C428.7 389.028 430.133 385.978 431.561 382.925C433.152 381.702 434.44 380.291 434.564 378.148C435.577 377.541 435.885 376.433 436.445 375.497C441.175 367.653 444.34 358.873 451.234 352.322C455.198 348.55 458.577 344.153 462.952 340.771Z" fill="#FFCC9C"/>
<path d="M346.248 398.719C346.372 403.051 344.481 406.104 340.457 407.772C338.327 408.653 337.827 408.444 337.254 406.211C335.744 400.352 334.256 394.493 333.884 388.408C333.764 386.5 333.371 384.584 332.896 382.728C332.426 380.906 331.48 379.393 329.205 379.555C324.052 358.42 318.899 337.285 313.745 316.15C313.617 315.611 313.446 315.09 313.335 314.546C312.638 311.074 312.766 310.851 316.32 310.428C335.868 308.106 355.421 305.831 374.969 303.504C399.444 300.588 423.906 297.641 448.381 294.716C451.525 294.344 454.681 294.083 457.82 293.681C459.483 293.471 460.262 294.117 460.771 295.699C465.077 309.064 469.456 322.407 473.81 335.758C472.288 337.371 470.359 337.653 468.28 337.443C465.578 327.338 462.156 317.442 459.796 307.242C458.607 302.11 458.577 302.042 453.372 302.687C439.584 304.402 425.801 306.164 412.022 307.948C397.973 309.77 383.929 311.655 369.88 313.477C356.375 315.231 342.856 316.907 329.355 318.686C324.51 319.328 324.48 319.435 325.805 324.306C330.89 343.029 335.992 361.752 341.124 380.462C342.796 386.56 344.156 392.74 346.248 398.719Z" fill="#7E8895"/>
<path d="M503.588 226.821C503.596 225.794 503.271 224.917 502.318 224.439C501.317 223.942 500.479 224.464 499.683 225.024C497.686 226.431 496.732 229.027 497.575 230.699C498.101 231.739 499.003 231.884 500 231.713C501.907 231.388 503.648 228.985 503.588 226.821ZM501.12 212.806C503.177 213.508 504.216 215.423 505.782 216.715C509.708 219.961 513.882 222.813 518.65 224.772C518.432 226.205 517.247 226.598 516.614 227.415C515.083 229.395 513.736 231.465 513.296 233.971C512.534 238.273 513.445 239.137 517.538 238.107C523.705 236.55 527.815 239.625 528.08 246.023C528.14 247.532 528.2 249.063 528.033 250.56C527.648 254.05 526.202 256.988 522.734 258.279C520.938 258.946 520.198 260.118 519.629 261.773C518.637 264.664 518.077 267.572 518.085 270.656C518.107 278.636 517.974 286.616 517.906 294.592C511.499 294.947 505.23 294.027 499.012 292.595C497.973 291.928 496.912 291.295 495.898 290.593C491.494 287.548 488.632 283.421 487.991 278.093C487.598 274.838 487.824 271.507 487.76 268.21C487.739 267.076 488.171 266.482 489.394 266.324C497.883 265.224 500.748 258.544 503.579 251.877C504.02 250.834 504.191 249.589 502.869 249.038C501.462 248.456 500.932 249.658 500.466 250.646C499.183 253.387 497.793 256.068 496.065 258.562C494.256 261.183 491.853 262.727 488.607 262.859C487.747 261.08 488.487 259.451 488.444 257.843C488.419 257.052 488.727 256.008 487.683 255.748C484.548 254.965 482.316 252.553 479.416 251.36C480.135 247.857 482.684 245.39 484.441 242.477C487.525 239.988 489.706 236.768 491.746 233.441C495.197 229.741 496.471 224.905 498.439 220.453C499.529 217.994 501.18 215.684 501.12 212.806Z" fill="#FFBF84"/>
<path d="M479.416 251.36C482.316 252.553 484.548 254.965 487.683 255.747C488.727 256.008 488.419 257.052 488.444 257.843C488.487 259.451 487.747 261.08 488.607 262.859C491.853 262.727 494.256 261.183 496.065 258.561C497.793 256.068 499.183 253.387 500.466 250.645C500.932 249.658 501.462 248.456 502.869 249.037C504.191 249.589 504.02 250.834 503.579 251.877C500.748 258.544 497.883 265.224 489.394 266.323C488.171 266.482 487.739 267.076 487.76 268.209C487.824 271.507 487.598 274.838 487.991 278.093C488.633 283.421 491.494 287.548 495.899 290.593C496.912 291.294 497.973 291.927 499.012 292.595C491.151 293.424 483.372 293.052 475.636 291.342C472.63 290.679 469.875 289.456 467.25 287.984C461.241 284.619 460.706 277.49 466.309 273.414C468.417 271.879 468.96 270.574 467.865 268.368C467.562 267.756 467.463 267.055 467.22 266.409C464.179 258.318 469.277 253.977 475.371 252.151C476.679 251.757 478.065 251.616 479.416 251.36Z" fill="#291111"/>
<path d="M558.114 328.766C555.181 330.455 552.196 331.328 548.74 330.22C547.239 329.737 545.486 330.019 543.843 330.01C534.567 329.968 525.279 330.164 516.028 329.13C513.984 328.899 511.884 328.916 510.862 326.632C510.948 324.194 510.665 321.765 511.499 319.336C512.278 317.082 513.527 315.855 515.939 315.94C521.832 317.176 527.857 317.134 533.823 317.536C539.956 317.95 546.144 317.634 552.307 317.634C555.625 318.357 557.7 320.94 557.973 324.75C558.072 326.085 558.072 327.423 558.114 328.766Z" fill="#D24734"/>
<path d="M552.307 317.634C546.144 317.634 539.956 317.95 533.823 317.536C527.858 317.134 521.832 317.176 515.939 315.94C515.93 315.697 515.922 315.453 515.922 315.209C516.135 314.927 516.353 314.649 516.567 314.367C517.581 310.89 519.026 307.533 519.548 303.915C522.653 308.542 527.195 307.977 531.715 307.178C534.73 306.643 537.27 304.881 539.909 303.444C542.193 302.195 544.421 300.857 546.811 299.48C548.27 301.199 550.177 302.251 551.999 303.41C550.113 304.021 550.622 305.386 550.874 306.75C551.541 310.351 552.358 313.939 552.307 317.634Z" fill="#FFCC9C"/>
<path d="M600.376 379.008C600.209 377.498 599.76 376.091 598.952 374.778C595.535 369.278 593.204 363.283 591.583 357.073C590.433 352.694 590.553 348.131 591.724 343.696C592.349 341.322 593.157 339 593.88 336.656C598.084 336.785 600.089 339.941 601.107 343.106C604.229 352.805 606.547 362.727 604.097 372.999C603.549 375.291 603.276 378.041 600.376 379.008Z" fill="#FFCC9C"/>
<path d="M447.154 449.234C448.09 444.953 449.562 440.903 451.448 436.917C454.155 431.195 457.862 426.114 460.984 420.666C462.545 417.933 463.901 415.094 465 412.134C465.466 410.881 465.642 409.427 466.98 408.657C467.823 414.764 466.903 420.799 466.394 426.863C466.086 430.519 466.065 434.193 465.359 437.819C465.175 438.765 465 439.676 464.59 440.544C460.257 442.772 455.929 445.021 451.584 447.219C450.135 447.955 448.629 448.567 447.154 449.234Z" fill="#67707B"/>
<path d="M491.746 233.441C489.706 236.768 487.525 239.988 484.442 242.477C485.1 238.029 487.345 234.865 491.746 233.441Z" fill="#291111"/>
<path d="M516.567 314.367C516.353 314.649 516.135 314.927 515.922 315.209C516.135 314.931 516.353 314.649 516.567 314.367Z" fill="#FEF2C4"/>
<path d="M346.247 398.718C344.156 392.739 342.796 386.56 341.124 380.461C335.992 361.751 330.89 343.028 325.805 324.305C324.48 319.434 324.51 319.327 329.355 318.686C342.856 316.907 356.374 315.23 369.88 313.477C383.929 311.655 397.973 309.769 412.022 307.947C425.801 306.164 439.584 304.402 453.372 302.687C458.577 302.041 458.607 302.11 459.796 307.242C462.156 317.441 465.577 327.337 468.28 337.443C466.886 339.162 464.004 338.504 462.952 340.77C458.577 344.153 455.198 348.549 451.234 352.321C444.34 358.873 441.175 367.653 436.445 375.496C435.885 376.433 435.577 377.54 434.564 378.148C431.51 378.956 428.487 379.918 425.395 380.551C409.772 383.754 394.051 386.47 378.6 390.481C373.276 391.863 367.913 393.082 362.558 394.36C361.352 394.647 360.048 395.045 359.364 393.484C356.815 387.702 354.236 381.92 353.62 375.518C355.977 373.016 358.359 370.535 360.685 368.008C363.79 364.634 366.634 363.958 370.77 365.797C372.655 366.635 374.52 367.529 376.316 368.534C379.566 370.364 379.986 370.279 381.482 366.887C383.433 362.483 385.259 358.022 386.683 353.416C387.303 351.415 388.321 349.584 390.433 349.524C397.9 349.311 404.94 346.095 412.462 346.514C416.709 346.749 419.595 345.162 420.93 340.937C421.503 339.111 422.35 337.229 423.846 336.006C427.409 333.089 430.924 330.019 435.492 328.685C440.632 327.183 444.699 323.142 450.242 322.518C451.525 322.377 452.367 321.136 451.999 319.699C451.627 318.241 450.374 317.959 449.053 318.044C448.21 318.1 447.389 318.429 446.919 319.143C445.696 320.978 443.728 321.752 441.915 322.663C437.865 324.707 433.717 326.555 429.624 328.509C428.136 329.219 426.759 329.993 424.945 329.459C423.517 329.04 421.789 329.536 421.687 331.122C421.46 334.655 418.796 337.011 417.838 340.146C417.158 342.378 415.678 343.465 413.232 343.405C408.25 343.281 403.404 344.243 398.542 345.295C395.257 346.005 391.917 346.899 388.453 345.303C386.435 344.375 384.296 346.039 384.224 348.421C384.044 354.263 381.072 359.151 379.066 364.369C378.754 365.185 378.258 365.818 377.21 365.292C373.789 363.569 369.957 362.628 366.968 360.083C364.611 358.073 362.473 358.347 361.344 361.302C359.454 366.25 355.592 369.53 352.064 373.123C348.056 360.84 345.431 348.173 341.556 335.852C341.304 335.057 340.949 334.184 341.603 333.513C343.455 331.593 342.146 330.357 340.791 329.052C339.901 328.193 339.05 327.29 338.233 326.362C337.587 325.631 336.98 324.703 335.919 324.874C334.701 325.071 334.838 326.268 334.662 327.188C334.329 328.941 333.986 330.69 333.602 332.435C333.358 333.534 333.661 334.697 334.718 334.702C337.934 334.71 338.379 337.037 339.041 339.295C339.739 341.664 340.555 344.008 341.146 346.403C345.183 362.816 349.677 379.084 356.165 394.741C357.794 398.671 357.871 398.868 361.896 397.923C385.023 392.487 408.254 387.539 431.561 382.925C430.133 385.978 428.7 389.027 427.272 392.077C426.318 392.179 425.347 392.184 424.424 392.402C400.659 397.974 376.898 403.568 353.137 409.157C353.056 406.839 352.962 404.517 352.893 402.195C352.863 401.105 352.962 399.997 352.842 398.919C352.645 397.132 352.367 395.096 350.238 394.767C348.283 394.459 347.445 396.054 346.966 397.76C346.868 398.119 346.496 398.402 346.247 398.718Z" fill="#FEF2C4"/>
<path d="M590.104 546.453C593.234 551.714 594.265 557.727 596.018 563.466C597.626 568.713 598.785 574.063 598.567 579.653C598.349 585.182 595.941 589.724 591.549 592.555C586.742 595.652 581.491 598.093 575.88 599.783C563.281 603.585 554.591 594.052 552.222 585.61C550.365 579.007 549.356 572.22 548.09 565.493C555.065 563.012 562.306 561.353 569.144 558.419C575.713 555.597 582.354 552.984 587.653 547.933C588.333 547.292 589.283 546.941 590.104 546.453Z" fill="#2A2F3D"/>
<path d="M521.575 567.336C521.828 572.908 520.681 578.216 518.671 583.39C517.628 586.072 516.82 588.847 515.883 591.576C514.258 596.323 511.431 600.373 508.352 604.256C505.106 608.357 500.795 610.145 495.638 609.538C491.019 608.999 486.434 608.302 482.196 606.091C477.064 603.413 474.366 598.679 473.831 593.552C472.856 584.263 473.421 574.91 476.953 565.989C478.065 563.188 479.99 560.729 480.434 557.654C482.667 558.719 484.929 559.711 487.123 560.848C494.462 564.659 502.215 566.596 510.524 566.489C514.211 566.442 517.953 566.293 521.575 567.336Z" fill="#2A2F3D"/>
<path d="M515.229 525.37C516.182 508.999 518.599 492.799 520.626 476.544C522.944 457.975 525.022 439.368 526.126 420.67C526.724 410.509 527.122 400.331 527.635 390.157C527.716 388.519 527.614 386.821 528.465 385.324C528.892 384.567 529.581 383.998 530.483 384.238C531.437 384.482 531.587 385.316 531.54 386.214C530.838 398.992 530.338 411.784 529.406 424.541C528.486 437.165 527.323 449.768 525.736 462.333C524.171 474.752 522.679 487.184 521.13 499.608C520.078 508.08 519.381 516.577 518.838 525.092C518.753 526.461 518.564 527.825 518.368 529.185C518.205 530.322 517.867 531.533 516.409 531.297C514.985 531.071 515.045 529.788 515.083 528.672C515.118 527.568 515.177 526.469 515.229 525.37Z" fill="#CE5009"/>
<path d="M553.786 474.059C553.632 484.516 554.244 494.985 553.034 505.415C552.94 506.237 552.961 507.079 552.769 507.874C552.572 508.704 552.08 509.431 551.084 509.367C550.07 509.294 549.706 508.52 549.711 507.639C549.719 505.715 549.792 503.79 549.878 501.862C550.134 495.956 550.669 490.062 550.558 484.131C550.224 466.109 549.356 448.122 547.671 430.169C546.679 419.618 545.704 409.076 544.207 398.586C543.895 396.418 543.86 394.185 542.654 392.227C542.193 391.478 542.227 390.64 542.47 389.827C542.723 388.994 543.232 388.326 544.147 388.211C545.092 388.091 545.776 388.664 546.037 389.481C546.465 390.781 546.803 392.128 547.008 393.48C549.347 409.004 550.836 424.618 552.042 440.257C552.91 451.505 553.624 462.769 553.786 474.059Z" fill="#CE5009"/>
<path d="M518.611 369.689C526.476 369.15 536.086 370.053 545.691 370.874C554.774 371.648 563.862 371.468 572.95 371.554C575.02 371.571 577.09 371.575 579.147 371.742C580.254 371.832 581.46 372.298 581.413 373.658C581.371 374.83 580.203 375.018 579.254 375.193C578.719 375.296 578.155 375.279 577.607 375.257C562.34 374.65 547.047 374.954 531.809 373.281C525.403 372.576 518.877 372.905 512.406 373.337C507.873 373.645 503.327 373.743 498.785 373.897C497.968 373.923 497.126 373.854 496.335 373.671C495.62 373.504 495.189 372.931 495.184 372.152C495.18 371.404 495.488 370.75 496.211 370.544C496.989 370.322 497.836 370.185 498.64 370.224C504.708 370.497 510.751 369.787 518.611 369.689Z" fill="#CE5009"/>
<path d="M486.135 711.231C487.384 713.151 486.516 714.216 485.784 715.422C483.779 718.724 481.405 721.773 478.826 724.595C472.441 731.57 465.783 738.28 458.495 744.345C456.917 745.662 455.528 747.206 454.048 748.647C453.453 749.22 452.876 749.819 452.247 750.345C451.418 751.038 450.515 751.2 449.651 750.4C448.668 749.502 449.143 748.647 449.882 747.924C452.534 745.333 455.147 742.715 457.905 740.231C465.539 733.354 473.562 726.862 479.707 718.463C481.521 715.987 483.437 713.463 486.135 711.231Z" fill="#545E76"/>
<path d="M569.191 767.481C568.472 767.391 568.057 766.942 568.267 766.374C568.601 765.488 569.045 764.59 569.64 763.868C573.634 758.975 577.667 754.113 581.717 749.263C584.013 746.526 586.058 743.601 588.11 740.68C589 739.431 590.202 737.023 591.737 738.118C593.584 739.44 591.078 740.911 590.347 742.057C584.954 750.366 578.753 758.064 572.082 765.39C571.273 766.275 570.538 767.37 569.191 767.481Z" fill="#697490"/>
<path d="M548.005 595.558C548.552 602.563 545.9 607.596 542.526 612.386C542.047 613.062 541.59 613.926 540.61 613.425C539.515 612.861 539.755 611.809 540.127 610.906C540.379 610.282 540.897 609.769 541.213 609.166C543.416 605 545.148 600.715 544.84 595.857C544.741 594.356 544.707 592.825 545.627 591.482C545.965 590.99 546.418 590.678 546.991 590.776C547.564 590.883 547.979 591.315 547.992 591.914C548.03 593.419 548.005 594.933 548.005 595.558Z" fill="#697490"/>
<path d="M479.908 697.011C479.857 697.687 479.451 697.991 478.848 698.046C477.971 698.136 477.214 697.824 476.602 697.217C472.907 693.547 468.798 690.22 466.488 685.379C465.86 684.058 464.444 682.184 465.898 681.321C467.489 680.375 468.267 682.552 468.892 683.814C471.026 688.108 474.588 691.17 477.86 694.492C478.621 695.271 479.536 695.938 479.908 697.011Z" fill="#697490"/>
<path d="M553.91 609.597C555.553 609.79 557.725 609.007 559.44 610.662C559.825 611.034 560.278 611.424 560.133 612.039C559.923 612.959 559.102 612.959 558.508 612.779C554.719 611.65 550.972 611.911 547.192 612.818C546.478 612.984 545.379 613.121 545.186 612.018C545.007 611.009 545.947 610.752 546.7 610.423C548.911 609.461 551.238 609.559 553.91 609.597Z" fill="#697490"/>
<path d="M565.671 696.494C567.279 696.763 568.806 697.537 569.888 699.017C570.076 699.274 570.115 699.86 569.948 700.086C569.764 700.334 569.204 700.518 568.9 700.428C567.352 699.962 565.911 699.231 564.623 698.256C564.367 698.063 564.192 697.554 564.239 697.229C564.333 696.575 564.94 696.537 565.671 696.494Z" fill="#545E76"/>
<path d="M353.137 409.158C376.898 403.568 400.659 397.974 424.424 392.402C425.348 392.184 426.318 392.18 427.272 392.077C424.201 398.329 421.109 404.569 418.073 410.838C414.878 417.433 409.849 422.736 405.662 428.625C405.303 428.697 404.94 428.77 404.576 428.847C391.618 427.419 379.066 424.134 366.613 420.422C363.602 419.52 360.617 418.515 357.568 417.754C355.096 417.134 353.851 415.709 353.646 413.208C353.535 411.852 352.876 410.565 353.137 409.158Z" fill="#67707B"/>
<path d="M431.561 382.925C408.254 387.539 385.023 392.487 361.895 397.923C357.871 398.868 357.794 398.671 356.165 394.741C349.677 379.084 345.183 362.816 341.145 346.403C340.555 344.008 339.738 341.664 339.041 339.295C338.378 337.037 337.934 334.71 334.718 334.702C333.661 334.697 333.358 333.534 333.601 332.435C333.986 330.69 334.329 328.941 334.662 327.188C334.837 326.268 334.701 325.071 335.919 324.874C336.98 324.703 337.587 325.631 338.233 326.362C339.05 327.29 339.901 328.193 340.79 329.052C342.146 330.357 343.455 331.593 341.603 333.513C340.949 334.184 341.304 335.057 341.556 335.852C345.431 348.173 348.056 360.84 352.064 373.123C352.128 374.218 352.525 375.094 353.62 375.518C354.236 381.92 356.815 387.702 359.364 393.484C360.048 395.045 361.352 394.647 362.558 394.36C367.913 393.082 373.276 391.863 378.6 390.481C394.051 386.47 409.772 383.754 425.394 380.551C428.486 379.918 431.51 378.956 434.563 378.148C434.439 380.29 433.152 381.702 431.561 382.925Z" fill="#BCB187"/>
<path d="M404.576 428.847C404.939 428.77 405.303 428.697 405.662 428.625C409.199 430.861 410.332 434.616 411.679 438.213C411.974 438.995 412.017 439.923 410.991 440.291C410.225 440.561 409.622 440.094 409.344 439.427C407.984 436.134 406.569 432.88 404.379 430.023C404.212 429.809 404.503 429.245 404.576 428.847Z" fill="#291111"/>
<path d="M503.588 226.821C503.648 228.985 501.907 231.388 500 231.713C499.003 231.884 498.101 231.739 497.575 230.7C496.732 229.027 497.686 226.431 499.683 225.024C500.479 224.464 501.317 223.942 502.318 224.439C503.271 224.918 503.596 225.794 503.588 226.821Z" fill="#291111"/>
<path d="M353.62 375.518C352.526 375.094 352.128 374.218 352.064 373.123C355.592 369.531 359.454 366.25 361.344 361.302C362.473 358.347 364.611 358.074 366.968 360.084C369.957 362.628 373.789 363.569 377.21 365.292C378.258 365.819 378.754 365.186 379.066 364.369C381.072 359.151 384.044 354.263 384.224 348.421C384.296 346.039 386.435 344.376 388.453 345.304C391.917 346.899 395.257 346.005 398.542 345.295C403.404 344.243 408.25 343.281 413.232 343.405C415.678 343.465 417.158 342.378 417.838 340.146C418.796 337.011 421.46 334.655 421.687 331.122C421.789 329.536 423.517 329.04 424.946 329.459C426.759 329.993 428.136 329.219 429.624 328.509C433.717 326.555 437.865 324.708 441.915 322.663C443.728 321.752 445.696 320.978 446.919 319.144C447.389 318.429 448.21 318.1 449.053 318.045C450.374 317.959 451.627 318.241 451.999 319.7C452.367 321.137 451.525 322.377 450.242 322.518C444.699 323.142 440.632 327.184 435.492 328.685C430.924 330.019 427.409 333.09 423.846 336.006C422.35 337.229 421.503 339.111 420.93 340.937C419.596 345.163 416.709 346.749 412.462 346.514C404.94 346.095 397.9 349.311 390.433 349.525C388.321 349.585 387.303 351.415 386.683 353.416C385.259 358.022 383.433 362.483 381.482 366.888C379.986 370.279 379.567 370.365 376.316 368.534C374.52 367.529 372.656 366.635 370.77 365.797C366.634 363.958 363.79 364.634 360.685 368.008C358.359 370.536 355.977 373.016 353.62 375.518Z" fill="#1DCB4B"/>
</g>
</svg>
