<svg width="358" height="142" viewBox="0 0 358 142" fill="none" xmlns="http://www.w3.org/2000/svg">
<path d="M42.739 56L48.931 39.2H51.715L57.859 56H55.171L53.731 51.896H46.867L45.427 56H42.739ZM47.587 49.88H53.011L50.299 42.224L47.587 49.88ZM59.6258 56V38.72H62.1698V56H59.6258ZM64.9114 56V38.72H67.4554V56H64.9114ZM77.1559 61.28L80.0119 55.016H79.3159L74.6119 44.096H77.3719L81.0199 52.904L84.8359 44.096H87.5239L79.8439 61.28H77.1559ZM93.6254 56.288C92.4894 56.288 91.4654 56.032 90.5534 55.52C89.6574 54.992 88.9454 54.264 88.4174 53.336C87.8894 52.392 87.6254 51.296 87.6254 50.048C87.6254 48.8 87.8894 47.712 88.4174 46.784C88.9614 45.84 89.6894 45.112 90.6014 44.6C91.5134 44.072 92.5294 43.808 93.6494 43.808C94.7854 43.808 95.8014 44.072 96.6974 44.6C97.6094 45.112 98.3294 45.84 98.8574 46.784C99.4014 47.712 99.6734 48.8 99.6734 50.048C99.6734 51.296 99.4014 52.392 98.8574 53.336C98.3294 54.264 97.6094 54.992 96.6974 55.52C95.7854 56.032 94.7614 56.288 93.6254 56.288ZM93.6254 54.104C94.2334 54.104 94.7934 53.952 95.3054 53.648C95.8334 53.344 96.2574 52.896 96.5774 52.304C96.8974 51.696 97.0574 50.944 97.0574 50.048C97.0574 49.152 96.8974 48.408 96.5774 47.816C96.2734 47.208 95.8574 46.752 95.3294 46.448C94.8174 46.144 94.2574 45.992 93.6494 45.992C93.0414 45.992 92.4734 46.144 91.9454 46.448C91.4334 46.752 91.0174 47.208 90.6974 47.816C90.3774 48.408 90.2174 49.152 90.2174 50.048C90.2174 50.944 90.3774 51.696 90.6974 52.304C91.0174 52.896 91.4334 53.344 91.9454 53.648C92.4574 53.952 93.0174 54.104 93.6254 54.104ZM106.337 56.288C104.897 56.288 103.761 55.84 102.929 54.944C102.113 54.048 101.705 52.712 101.705 50.936V44.096H104.249V50.672C104.249 52.976 105.193 54.128 107.081 54.128C108.025 54.128 108.801 53.792 109.409 53.12C110.017 52.448 110.321 51.488 110.321 50.24V44.096H112.865V56H110.609L110.417 53.912C110.049 54.648 109.505 55.232 108.785 55.664C108.081 56.08 107.265 56.288 106.337 56.288ZM115.621 56V44.096H117.901L118.117 46.352C118.533 45.568 119.109 44.952 119.845 44.504C120.597 44.04 121.501 43.808 122.557 43.808V46.472H121.861C121.157 46.472 120.525 46.592 119.965 46.832C119.421 47.056 118.981 47.448 118.645 48.008C118.325 48.552 118.165 49.312 118.165 50.288V56H115.621ZM134.817 56C133.649 56 132.721 55.72 132.033 55.16C131.345 54.584 131.001 53.568 131.001 52.112V46.232H128.961V44.096H131.001L131.313 41.072H133.545V44.096H136.905V46.232H133.545V52.112C133.545 52.768 133.681 53.224 133.953 53.48C134.241 53.72 134.729 53.84 135.417 53.84H136.785V56H134.817ZM139.048 56V44.096H141.328L141.544 46.352C141.96 45.568 142.536 44.952 143.272 44.504C144.024 44.04 144.928 43.808 145.984 43.808V46.472H145.288C144.584 46.472 143.952 46.592 143.392 46.832C142.848 47.056 142.408 47.448 142.072 48.008C141.752 48.552 141.592 49.312 141.592 50.288V56H139.048ZM151.717 56.288C150.709 56.288 149.877 56.12 149.221 55.784C148.565 55.448 148.077 55.008 147.757 54.464C147.437 53.904 147.277 53.296 147.277 52.64C147.277 51.488 147.725 50.576 148.621 49.904C149.517 49.232 150.797 48.896 152.461 48.896H155.581V48.68C155.581 47.752 155.325 47.056 154.813 46.592C154.317 46.128 153.669 45.896 152.869 45.896C152.165 45.896 151.549 46.072 151.021 46.424C150.509 46.76 150.197 47.264 150.085 47.936H147.541C147.621 47.072 147.909 46.336 148.405 45.728C148.917 45.104 149.557 44.632 150.325 44.312C151.109 43.976 151.965 43.808 152.893 43.808C154.557 43.808 155.845 44.248 156.757 45.128C157.669 45.992 158.125 47.176 158.125 48.68V56H155.917L155.701 53.96C155.365 54.616 154.877 55.168 154.237 55.616C153.597 56.064 152.757 56.288 151.717 56.288ZM152.221 54.224C152.909 54.224 153.485 54.064 153.949 53.744C154.429 53.408 154.797 52.968 155.053 52.424C155.325 51.88 155.493 51.28 155.557 50.624H152.725C151.717 50.624 150.997 50.8 150.565 51.152C150.149 51.504 149.941 51.944 149.941 52.472C149.941 53.016 150.141 53.448 150.541 53.768C150.957 54.072 151.517 54.224 152.221 54.224ZM166.035 56.288C164.883 56.288 163.867 56.016 162.987 55.472C162.107 54.928 161.419 54.184 160.923 53.24C160.427 52.296 160.179 51.224 160.179 50.024C160.179 48.824 160.427 47.76 160.923 46.832C161.419 45.888 162.107 45.152 162.987 44.624C163.883 44.08 164.907 43.808 166.059 43.808C167.003 43.808 167.827 43.992 168.531 44.36C169.251 44.728 169.811 45.248 170.211 45.92V38.72H172.755V56H170.475L170.211 54.152C169.827 54.712 169.299 55.208 168.627 55.64C167.955 56.072 167.091 56.288 166.035 56.288ZM166.491 54.08C167.579 54.08 168.467 53.704 169.155 52.952C169.859 52.2 170.211 51.232 170.211 50.048C170.211 48.848 169.859 47.88 169.155 47.144C168.467 46.392 167.579 46.016 166.491 46.016C165.403 46.016 164.507 46.392 163.803 47.144C163.099 47.88 162.747 48.848 162.747 50.048C162.747 50.832 162.907 51.528 163.227 52.136C163.547 52.744 163.987 53.224 164.547 53.576C165.123 53.912 165.771 54.08 166.491 54.08ZM181.051 56.288C179.883 56.288 178.843 56.032 177.931 55.52C177.035 54.992 176.331 54.264 175.819 53.336C175.307 52.408 175.051 51.328 175.051 50.096C175.051 48.848 175.299 47.752 175.795 46.808C176.307 45.864 177.011 45.128 177.907 44.6C178.819 44.072 179.875 43.808 181.075 43.808C182.243 43.808 183.259 44.072 184.123 44.6C184.987 45.112 185.659 45.8 186.139 46.664C186.619 47.528 186.859 48.48 186.859 49.52C186.859 49.68 186.851 49.856 186.835 50.048C186.835 50.224 186.827 50.424 186.811 50.648H177.547C177.627 51.8 178.003 52.68 178.675 53.288C179.363 53.88 180.155 54.176 181.051 54.176C181.771 54.176 182.371 54.016 182.851 53.696C183.347 53.36 183.715 52.912 183.955 52.352H186.499C186.179 53.472 185.539 54.408 184.579 55.16C183.635 55.912 182.459 56.288 181.051 56.288ZM181.051 45.896C180.203 45.896 179.451 46.152 178.795 46.664C178.139 47.16 177.739 47.912 177.595 48.92H184.315C184.267 47.992 183.939 47.256 183.331 46.712C182.723 46.168 181.963 45.896 181.051 45.896ZM193.771 56.288C192.267 56.288 191.027 55.92 190.051 55.184C189.075 54.448 188.515 53.472 188.371 52.256H190.939C191.067 52.8 191.371 53.272 191.851 53.672C192.331 54.056 192.963 54.248 193.747 54.248C194.515 54.248 195.075 54.088 195.427 53.768C195.779 53.448 195.955 53.08 195.955 52.664C195.955 52.056 195.707 51.648 195.211 51.44C194.731 51.216 194.059 51.016 193.195 50.84C192.523 50.696 191.851 50.504 191.179 50.264C190.523 50.024 189.971 49.688 189.523 49.256C189.091 48.808 188.875 48.208 188.875 47.456C188.875 46.416 189.275 45.552 190.075 44.864C190.875 44.16 191.995 43.808 193.435 43.808C194.763 43.808 195.835 44.128 196.651 44.768C197.483 45.408 197.971 46.312 198.115 47.48H195.667C195.587 46.968 195.347 46.568 194.947 46.28C194.563 45.992 194.043 45.848 193.387 45.848C192.747 45.848 192.251 45.984 191.899 46.256C191.547 46.512 191.371 46.848 191.371 47.264C191.371 47.68 191.611 48.008 192.091 48.248C192.587 48.488 193.235 48.704 194.035 48.896C194.835 49.072 195.571 49.28 196.243 49.52C196.931 49.744 197.483 50.08 197.899 50.528C198.315 50.976 198.523 51.632 198.523 52.496C198.539 53.584 198.115 54.488 197.251 55.208C196.403 55.928 195.243 56.288 193.771 56.288ZM211.667 56.288C210.467 56.288 209.419 56.08 208.523 55.664C207.643 55.232 206.955 54.632 206.459 53.864C205.963 53.096 205.715 52.2 205.715 51.176C205.715 50.056 206.027 49.056 206.651 48.176C207.291 47.296 208.227 46.592 209.459 46.064C208.947 45.488 208.579 44.944 208.355 44.432C208.131 43.92 208.019 43.36 208.019 42.752C208.019 41.648 208.419 40.736 209.219 40.016C210.019 39.28 211.131 38.912 212.555 38.912C213.483 38.912 214.283 39.088 214.955 39.44C215.627 39.792 216.139 40.264 216.491 40.856C216.843 41.448 217.011 42.12 216.995 42.872H214.523C214.539 42.232 214.339 41.744 213.923 41.408C213.523 41.072 213.059 40.904 212.531 40.904C211.907 40.904 211.411 41.08 211.043 41.432C210.675 41.768 210.491 42.2 210.491 42.728C210.491 43.192 210.619 43.648 210.875 44.096C211.147 44.544 211.555 45.048 212.099 45.608L217.091 50.624C217.491 50.016 217.923 49.296 218.387 48.464L219.011 47.288H221.651L220.691 49.04C220.035 50.32 219.387 51.392 218.747 52.256L222.491 56H219.371L217.331 53.96C216.499 54.776 215.627 55.368 214.715 55.736C213.803 56.104 212.787 56.288 211.667 56.288ZM208.187 51.032C208.187 51.928 208.507 52.672 209.147 53.264C209.803 53.856 210.659 54.152 211.715 54.152C212.499 54.152 213.211 54.016 213.851 53.744C214.491 53.456 215.115 52.992 215.723 52.352L210.947 47.576C210.019 47.96 209.323 48.448 208.859 49.04C208.411 49.616 208.187 50.28 208.187 51.032ZM234.513 56C233.345 56 232.417 55.72 231.729 55.16C231.041 54.584 230.697 53.568 230.697 52.112V46.232H228.657V44.096H230.697L231.009 41.072H233.241V44.096H236.601V46.232H233.241V52.112C233.241 52.768 233.377 53.224 233.649 53.48C233.937 53.72 234.425 53.84 235.113 53.84H236.481V56H234.513ZM238.744 56V44.096H241.024L241.24 46.352C241.656 45.568 242.232 44.952 242.968 44.504C243.72 44.04 244.624 43.808 245.68 43.808V46.472H244.984C244.28 46.472 243.648 46.592 243.088 46.832C242.544 47.056 242.104 47.448 241.768 48.008C241.448 48.552 241.288 49.312 241.288 50.288V56H238.744ZM251.413 56.288C250.405 56.288 249.573 56.12 248.917 55.784C248.261 55.448 247.773 55.008 247.453 54.464C247.133 53.904 246.973 53.296 246.973 52.64C246.973 51.488 247.421 50.576 248.317 49.904C249.213 49.232 250.493 48.896 252.157 48.896H255.277V48.68C255.277 47.752 255.021 47.056 254.509 46.592C254.013 46.128 253.365 45.896 252.565 45.896C251.861 45.896 251.245 46.072 250.717 46.424C250.205 46.76 249.893 47.264 249.781 47.936H247.237C247.317 47.072 247.605 46.336 248.101 45.728C248.613 45.104 249.253 44.632 250.021 44.312C250.805 43.976 251.661 43.808 252.589 43.808C254.253 43.808 255.541 44.248 256.453 45.128C257.365 45.992 257.821 47.176 257.821 48.68V56H255.613L255.397 53.96C255.061 54.616 254.573 55.168 253.933 55.616C253.293 56.064 252.453 56.288 251.413 56.288ZM251.917 54.224C252.605 54.224 253.181 54.064 253.645 53.744C254.125 53.408 254.493 52.968 254.749 52.424C255.021 51.88 255.189 51.28 255.253 50.624H252.421C251.413 50.624 250.693 50.8 250.261 51.152C249.845 51.504 249.637 51.944 249.637 52.472C249.637 53.016 249.837 53.448 250.237 53.768C250.653 54.072 251.213 54.224 251.917 54.224ZM265.947 56.288C264.779 56.288 263.731 56.024 262.803 55.496C261.891 54.968 261.171 54.24 260.643 53.312C260.131 52.368 259.875 51.28 259.875 50.048C259.875 48.816 260.131 47.736 260.643 46.808C261.171 45.864 261.891 45.128 262.803 44.6C263.731 44.072 264.779 43.808 265.947 43.808C267.419 43.808 268.651 44.192 269.643 44.96C270.651 45.728 271.299 46.768 271.587 48.08H268.923C268.763 47.424 268.411 46.912 267.867 46.544C267.323 46.176 266.683 45.992 265.947 45.992C265.323 45.992 264.747 46.152 264.219 46.472C263.691 46.776 263.267 47.232 262.947 47.84C262.627 48.432 262.467 49.168 262.467 50.048C262.467 50.928 262.627 51.672 262.947 52.28C263.267 52.872 263.691 53.328 264.219 53.648C264.747 53.968 265.323 54.128 265.947 54.128C266.683 54.128 267.323 53.944 267.867 53.576C268.411 53.208 268.763 52.688 268.923 52.016H271.587C271.315 53.296 270.675 54.328 269.667 55.112C268.659 55.896 267.419 56.288 265.947 56.288ZM273.866 56V38.72H276.41V49.016L280.97 44.096H284.018L278.954 49.496L284.762 56H281.546L276.41 49.904V56H273.866ZM287.693 41.84C287.213 41.84 286.813 41.696 286.493 41.408C286.189 41.104 286.037 40.728 286.037 40.28C286.037 39.832 286.189 39.464 286.493 39.176C286.813 38.872 287.213 38.72 287.693 38.72C288.173 38.72 288.565 38.872 288.869 39.176C289.189 39.464 289.349 39.832 289.349 40.28C289.349 40.728 289.189 41.104 288.869 41.408C288.565 41.696 288.173 41.84 287.693 41.84ZM286.421 56V44.096H288.965V56H286.421ZM291.844 56V44.096H294.1L294.292 46.184C294.66 45.448 295.196 44.872 295.9 44.456C296.62 44.024 297.444 43.808 298.372 43.808C299.812 43.808 300.94 44.256 301.756 45.152C302.588 46.048 303.004 47.384 303.004 49.16V56H300.484V49.424C300.484 47.12 299.54 45.968 297.652 45.968C296.708 45.968 295.924 46.304 295.3 46.976C294.692 47.648 294.388 48.608 294.388 49.856V56H291.844ZM310.392 52.352C309.768 52.352 309.192 52.28 308.664 52.136L307.632 53.144C307.808 53.256 308.024 53.352 308.28 53.432C308.536 53.512 308.896 53.584 309.36 53.648C309.824 53.712 310.456 53.776 311.256 53.84C312.84 53.984 313.984 54.368 314.688 54.992C315.392 55.6 315.744 56.416 315.744 57.44C315.744 58.144 315.552 58.808 315.168 59.432C314.8 60.072 314.216 60.584 313.416 60.968C312.632 61.368 311.624 61.568 310.392 61.568C308.728 61.568 307.376 61.248 306.336 60.608C305.312 59.984 304.8 59.032 304.8 57.752C304.8 57.256 304.928 56.76 305.184 56.264C305.456 55.784 305.88 55.328 306.456 54.896C306.12 54.752 305.824 54.6 305.568 54.44C305.328 54.264 305.112 54.088 304.92 53.912V53.336L306.984 51.224C306.056 50.424 305.592 49.376 305.592 48.08C305.592 47.296 305.776 46.584 306.144 45.944C306.528 45.288 307.08 44.768 307.8 44.384C308.52 44 309.384 43.808 310.392 43.808C311.064 43.808 311.688 43.904 312.264 44.096H316.704V45.776L314.592 45.896C314.976 46.552 315.168 47.28 315.168 48.08C315.168 48.88 314.976 49.6 314.592 50.24C314.224 50.88 313.68 51.392 312.96 51.776C312.256 52.16 311.4 52.352 310.392 52.352ZM310.392 50.36C311.128 50.36 311.72 50.168 312.168 49.784C312.632 49.384 312.864 48.824 312.864 48.104C312.864 47.368 312.632 46.808 312.168 46.424C311.72 46.04 311.128 45.848 310.392 45.848C309.64 45.848 309.032 46.04 308.568 46.424C308.12 46.808 307.896 47.368 307.896 48.104C307.896 48.824 308.12 49.384 308.568 49.784C309.032 50.168 309.64 50.36 310.392 50.36ZM307.2 57.512C307.2 58.2 307.504 58.712 308.112 59.048C308.72 59.4 309.48 59.576 310.392 59.576C311.272 59.576 311.984 59.384 312.528 59C313.072 58.632 313.344 58.136 313.344 57.512C313.344 57.048 313.16 56.648 312.792 56.312C312.424 55.992 311.728 55.792 310.704 55.712C309.936 55.664 309.256 55.592 308.664 55.496C308.104 55.8 307.72 56.128 307.512 56.48C307.304 56.832 307.2 57.176 307.2 57.512ZM102.997 84.288C101.557 84.288 100.421 83.84 99.5887 82.944C98.7727 82.048 98.3647 80.712 98.3647 78.936V72.096H100.909V78.672C100.909 80.976 101.853 82.128 103.741 82.128C104.685 82.128 105.461 81.792 106.069 81.12C106.677 80.448 106.981 79.488 106.981 78.24V72.096H109.525V84H107.269L107.077 81.912C106.709 82.648 106.165 83.232 105.445 83.664C104.741 84.08 103.925 84.288 102.997 84.288ZM112.281 84V72.096H114.537L114.729 74.184C115.097 73.448 115.633 72.872 116.337 72.456C117.057 72.024 117.881 71.808 118.809 71.808C120.249 71.808 121.377 72.256 122.193 73.152C123.025 74.048 123.441 75.384 123.441 77.16V84H120.921V77.424C120.921 75.12 119.977 73.968 118.089 73.968C117.145 73.968 116.361 74.304 115.737 74.976C115.129 75.648 114.825 76.608 114.825 77.856V84H112.281ZM131.381 84.288C130.229 84.288 129.213 84.016 128.333 83.472C127.453 82.928 126.765 82.184 126.269 81.24C125.773 80.296 125.525 79.224 125.525 78.024C125.525 76.824 125.773 75.76 126.269 74.832C126.765 73.888 127.453 73.152 128.333 72.624C129.229 72.08 130.253 71.808 131.405 71.808C132.349 71.808 133.173 71.992 133.877 72.36C134.597 72.728 135.157 73.248 135.557 73.92V66.72H138.101V84H135.821L135.557 82.152C135.173 82.712 134.645 83.208 133.973 83.64C133.301 84.072 132.437 84.288 131.381 84.288ZM131.837 82.08C132.925 82.08 133.813 81.704 134.501 80.952C135.205 80.2 135.557 79.232 135.557 78.048C135.557 76.848 135.205 75.88 134.501 75.144C133.813 74.392 132.925 74.016 131.837 74.016C130.749 74.016 129.853 74.392 129.149 75.144C128.445 75.88 128.093 76.848 128.093 78.048C128.093 78.832 128.253 79.528 128.573 80.136C128.893 80.744 129.333 81.224 129.893 81.576C130.469 81.912 131.117 82.08 131.837 82.08ZM146.397 84.288C145.229 84.288 144.189 84.032 143.277 83.52C142.381 82.992 141.677 82.264 141.165 81.336C140.653 80.408 140.397 79.328 140.397 78.096C140.397 76.848 140.645 75.752 141.141 74.808C141.653 73.864 142.357 73.128 143.253 72.6C144.165 72.072 145.221 71.808 146.421 71.808C147.589 71.808 148.605 72.072 149.469 72.6C150.333 73.112 151.005 73.8 151.485 74.664C151.965 75.528 152.205 76.48 152.205 77.52C152.205 77.68 152.197 77.856 152.181 78.048C152.181 78.224 152.173 78.424 152.157 78.648H142.893C142.973 79.8 143.349 80.68 144.021 81.288C144.709 81.88 145.501 82.176 146.397 82.176C147.117 82.176 147.717 82.016 148.197 81.696C148.693 81.36 149.061 80.912 149.301 80.352H151.845C151.525 81.472 150.885 82.408 149.925 83.16C148.981 83.912 147.805 84.288 146.397 84.288ZM146.397 73.896C145.549 73.896 144.797 74.152 144.141 74.664C143.485 75.16 143.085 75.912 142.941 76.92H149.661C149.613 75.992 149.285 75.256 148.677 74.712C148.069 74.168 147.309 73.896 146.397 73.896ZM154.364 84V72.096H156.644L156.86 74.352C157.276 73.568 157.852 72.952 158.588 72.504C159.34 72.04 160.244 71.808 161.3 71.808V74.472H160.604C159.9 74.472 159.268 74.592 158.708 74.832C158.164 75.056 157.724 75.448 157.388 76.008C157.068 76.552 156.908 77.312 156.908 78.288V84H154.364ZM174.136 84.288C173 84.288 171.976 84.032 171.064 83.52C170.168 82.992 169.456 82.264 168.928 81.336C168.4 80.392 168.136 79.296 168.136 78.048C168.136 76.8 168.4 75.712 168.928 74.784C169.472 73.84 170.2 73.112 171.112 72.6C172.024 72.072 173.04 71.808 174.16 71.808C175.296 71.808 176.312 72.072 177.208 72.6C178.12 73.112 178.84 73.84 179.368 74.784C179.912 75.712 180.184 76.8 180.184 78.048C180.184 79.296 179.912 80.392 179.368 81.336C178.84 82.264 178.12 82.992 177.208 83.52C176.296 84.032 175.272 84.288 174.136 84.288ZM174.136 82.104C174.744 82.104 175.304 81.952 175.816 81.648C176.344 81.344 176.768 80.896 177.088 80.304C177.408 79.696 177.568 78.944 177.568 78.048C177.568 77.152 177.408 76.408 177.088 75.816C176.784 75.208 176.368 74.752 175.84 74.448C175.328 74.144 174.768 73.992 174.16 73.992C173.552 73.992 172.984 74.144 172.456 74.448C171.944 74.752 171.528 75.208 171.208 75.816C170.888 76.408 170.728 77.152 170.728 78.048C170.728 78.944 170.888 79.696 171.208 80.304C171.528 80.896 171.944 81.344 172.456 81.648C172.968 81.952 173.528 82.104 174.136 82.104ZM182.456 84V72.096H184.712L184.904 74.184C185.272 73.448 185.808 72.872 186.512 72.456C187.232 72.024 188.056 71.808 188.984 71.808C190.424 71.808 191.552 72.256 192.368 73.152C193.2 74.048 193.616 75.384 193.616 77.16V84H191.096V77.424C191.096 75.12 190.152 73.968 188.264 73.968C187.32 73.968 186.536 74.304 185.912 74.976C185.304 75.648 185 76.608 185 77.856V84H182.456ZM201.7 84.288C200.532 84.288 199.492 84.032 198.58 83.52C197.684 82.992 196.98 82.264 196.468 81.336C195.956 80.408 195.7 79.328 195.7 78.096C195.7 76.848 195.948 75.752 196.444 74.808C196.956 73.864 197.66 73.128 198.556 72.6C199.468 72.072 200.524 71.808 201.724 71.808C202.892 71.808 203.908 72.072 204.772 72.6C205.636 73.112 206.308 73.8 206.788 74.664C207.268 75.528 207.508 76.48 207.508 77.52C207.508 77.68 207.5 77.856 207.484 78.048C207.484 78.224 207.476 78.424 207.46 78.648H198.196C198.276 79.8 198.652 80.68 199.324 81.288C200.012 81.88 200.804 82.176 201.7 82.176C202.42 82.176 203.02 82.016 203.5 81.696C203.996 81.36 204.364 80.912 204.604 80.352H207.148C206.828 81.472 206.188 82.408 205.228 83.16C204.284 83.912 203.108 84.288 201.7 84.288ZM201.7 73.896C200.852 73.896 200.1 74.152 199.444 74.664C198.788 75.16 198.388 75.912 198.244 76.92H204.964C204.916 75.992 204.588 75.256 203.98 74.712C203.372 74.168 202.612 73.896 201.7 73.896ZM215.234 84V72.096H217.514L217.73 74.352C218.146 73.568 218.722 72.952 219.458 72.504C220.21 72.04 221.114 71.808 222.17 71.808V74.472H221.474C220.77 74.472 220.138 74.592 219.578 74.832C219.034 75.056 218.594 75.448 218.258 76.008C217.938 76.552 217.778 77.312 217.778 78.288V84H215.234ZM229.111 84.288C227.975 84.288 226.951 84.032 226.039 83.52C225.143 82.992 224.431 82.264 223.903 81.336C223.375 80.392 223.111 79.296 223.111 78.048C223.111 76.8 223.375 75.712 223.903 74.784C224.447 73.84 225.175 73.112 226.087 72.6C226.999 72.072 228.015 71.808 229.135 71.808C230.271 71.808 231.287 72.072 232.183 72.6C233.095 73.112 233.815 73.84 234.343 74.784C234.887 75.712 235.159 76.8 235.159 78.048C235.159 79.296 234.887 80.392 234.343 81.336C233.815 82.264 233.095 82.992 232.183 83.52C231.271 84.032 230.247 84.288 229.111 84.288ZM229.111 82.104C229.719 82.104 230.279 81.952 230.791 81.648C231.319 81.344 231.743 80.896 232.063 80.304C232.383 79.696 232.543 78.944 232.543 78.048C232.543 77.152 232.383 76.408 232.063 75.816C231.759 75.208 231.343 74.752 230.815 74.448C230.303 74.144 229.743 73.992 229.135 73.992C228.527 73.992 227.959 74.144 227.431 74.448C226.919 74.752 226.503 75.208 226.183 75.816C225.863 76.408 225.703 77.152 225.703 78.048C225.703 78.944 225.863 79.696 226.183 80.304C226.503 80.896 226.919 81.344 227.431 81.648C227.943 81.952 228.503 82.104 229.111 82.104ZM242.999 84.288C241.863 84.288 240.839 84.032 239.927 83.52C239.031 82.992 238.319 82.264 237.791 81.336C237.263 80.392 236.999 79.296 236.999 78.048C236.999 76.8 237.263 75.712 237.791 74.784C238.335 73.84 239.063 73.112 239.975 72.6C240.887 72.072 241.903 71.808 243.023 71.808C244.159 71.808 245.175 72.072 246.071 72.6C246.983 73.112 247.703 73.84 248.231 74.784C248.775 75.712 249.047 76.8 249.047 78.048C249.047 79.296 248.775 80.392 248.231 81.336C247.703 82.264 246.983 82.992 246.071 83.52C245.159 84.032 244.135 84.288 242.999 84.288ZM242.999 82.104C243.607 82.104 244.167 81.952 244.679 81.648C245.207 81.344 245.631 80.896 245.951 80.304C246.271 79.696 246.431 78.944 246.431 78.048C246.431 77.152 246.271 76.408 245.951 75.816C245.647 75.208 245.231 74.752 244.703 74.448C244.191 74.144 243.631 73.992 243.023 73.992C242.415 73.992 241.847 74.144 241.319 74.448C240.807 74.752 240.391 75.208 240.071 75.816C239.751 76.408 239.591 77.152 239.591 78.048C239.591 78.944 239.751 79.696 240.071 80.304C240.391 80.896 240.807 81.344 241.319 81.648C241.831 81.952 242.391 82.104 242.999 82.104ZM251.918 84V74.232H250.214V72.096H251.918V70.368C251.918 69.072 252.238 68.144 252.878 67.584C253.534 67.008 254.454 66.72 255.638 66.72H256.886V68.88H256.022C255.462 68.88 255.062 69 254.822 69.24C254.582 69.464 254.462 69.848 254.462 70.392V72.096H257.198V74.232H254.462V84H251.918ZM259.416 84.144C258.936 84.144 258.536 83.992 258.216 83.688C257.912 83.368 257.76 82.992 257.76 82.56C257.76 82.112 257.912 81.736 258.216 81.432C258.536 81.112 258.936 80.952 259.416 80.952C259.896 80.952 260.288 81.112 260.592 81.432C260.896 81.736 261.048 82.112 261.048 82.56C261.048 82.992 260.896 83.368 260.592 83.688C260.288 83.992 259.896 84.144 259.416 84.144Z" fill="#121A26"/>
<path d="M109.705 20L107.485 11.6H109.129L110.641 18.284L112.417 11.6H114.109L115.837 18.284L117.349 11.6H119.005L116.725 20H114.901L113.233 13.772L111.517 20H109.705ZM121.078 20V11.6H126.562V12.836H122.614V15.14H126.202V16.34H122.614V18.764H126.562V20H121.078ZM128.976 20V11.6H130.512V18.8H134.232V20H128.976ZM139.588 20.144C138.74 20.144 138.012 19.964 137.404 19.604C136.796 19.236 136.328 18.728 136 18.08C135.672 17.424 135.508 16.668 135.508 15.812C135.508 14.956 135.672 14.2 136 13.544C136.328 12.888 136.796 12.376 137.404 12.008C138.012 11.64 138.74 11.456 139.588 11.456C140.596 11.456 141.42 11.708 142.06 12.212C142.708 12.708 143.112 13.408 143.272 14.312H141.58C141.476 13.856 141.252 13.5 140.908 13.244C140.572 12.98 140.124 12.848 139.564 12.848C138.788 12.848 138.18 13.112 137.74 13.64C137.3 14.168 137.08 14.892 137.08 15.812C137.08 16.732 137.3 17.456 137.74 17.984C138.18 18.504 138.788 18.764 139.564 18.764C140.124 18.764 140.572 18.644 140.908 18.404C141.252 18.156 141.476 17.816 141.58 17.384H143.272C143.112 18.248 142.708 18.924 142.06 19.412C141.42 19.9 140.596 20.144 139.588 20.144ZM149.527 20.144C148.687 20.144 147.951 19.96 147.319 19.592C146.695 19.224 146.203 18.716 145.843 18.068C145.491 17.412 145.315 16.656 145.315 15.8C145.315 14.944 145.491 14.192 145.843 13.544C146.203 12.888 146.695 12.376 147.319 12.008C147.951 11.64 148.687 11.456 149.527 11.456C150.359 11.456 151.091 11.64 151.723 12.008C152.355 12.376 152.847 12.888 153.199 13.544C153.551 14.192 153.727 14.944 153.727 15.8C153.727 16.656 153.551 17.412 153.199 18.068C152.847 18.716 152.355 19.224 151.723 19.592C151.091 19.96 150.359 20.144 149.527 20.144ZM149.527 18.764C150.327 18.764 150.963 18.5 151.435 17.972C151.915 17.444 152.155 16.72 152.155 15.8C152.155 14.88 151.915 14.156 151.435 13.628C150.963 13.1 150.327 12.836 149.527 12.836C148.727 12.836 148.087 13.1 147.607 13.628C147.127 14.156 146.887 14.88 146.887 15.8C146.887 16.72 147.127 17.444 147.607 17.972C148.087 18.5 148.727 18.764 149.527 18.764ZM156.043 20V11.6H157.867L160.543 16.928L163.183 11.6H165.007V20H163.471V14.204L161.131 18.8H159.919L157.579 14.204V20H156.043ZM167.597 20V11.6H173.081V12.836H169.133V15.14H172.721V16.34H169.133V18.764H173.081V20H167.597ZM181.27 20V12.836H178.822V11.6H185.266V12.836H182.806V20H181.27ZM190.995 20.144C190.155 20.144 189.419 19.96 188.787 19.592C188.163 19.224 187.671 18.716 187.311 18.068C186.959 17.412 186.783 16.656 186.783 15.8C186.783 14.944 186.959 14.192 187.311 13.544C187.671 12.888 188.163 12.376 188.787 12.008C189.419 11.64 190.155 11.456 190.995 11.456C191.827 11.456 192.559 11.64 193.191 12.008C193.823 12.376 194.315 12.888 194.667 13.544C195.019 14.192 195.195 14.944 195.195 15.8C195.195 16.656 195.019 17.412 194.667 18.068C194.315 18.716 193.823 19.224 193.191 19.592C192.559 19.96 191.827 20.144 190.995 20.144ZM190.995 18.764C191.795 18.764 192.431 18.5 192.903 17.972C193.383 17.444 193.623 16.72 193.623 15.8C193.623 14.88 193.383 14.156 192.903 13.628C192.431 13.1 191.795 12.836 190.995 12.836C190.195 12.836 189.555 13.1 189.075 13.628C188.595 14.156 188.355 14.88 188.355 15.8C188.355 16.72 188.595 17.444 189.075 17.972C189.555 18.5 190.195 18.764 190.995 18.764ZM203.287 20V12.836H200.839V11.6H207.283V12.836H204.823V20H203.287ZM209.381 20V11.6H212.465C213.137 11.6 213.689 11.716 214.121 11.948C214.561 12.172 214.889 12.48 215.105 12.872C215.321 13.256 215.429 13.684 215.429 14.156C215.429 14.668 215.293 15.136 215.021 15.56C214.757 15.984 214.341 16.292 213.773 16.484L215.513 20H213.749L212.189 16.688H210.917V20H209.381ZM210.917 15.56H212.369C212.881 15.56 213.257 15.436 213.497 15.188C213.737 14.94 213.857 14.612 213.857 14.204C213.857 13.804 213.737 13.484 213.497 13.244C213.265 13.004 212.885 12.884 212.357 12.884H210.917V15.56ZM217.277 20L220.349 11.6H222.077L225.149 20H223.517L222.845 18.056H219.569L218.885 20H217.277ZM219.989 16.856H222.425L221.201 13.364L219.989 16.856ZM230.515 20.144C229.667 20.144 228.939 19.964 228.331 19.604C227.723 19.236 227.255 18.728 226.927 18.08C226.599 17.424 226.435 16.668 226.435 15.812C226.435 14.956 226.599 14.2 226.927 13.544C227.255 12.888 227.723 12.376 228.331 12.008C228.939 11.64 229.667 11.456 230.515 11.456C231.523 11.456 232.347 11.708 232.987 12.212C233.635 12.708 234.039 13.408 234.199 14.312H232.507C232.403 13.856 232.179 13.5 231.835 13.244C231.499 12.98 231.051 12.848 230.491 12.848C229.715 12.848 229.107 13.112 228.667 13.64C228.227 14.168 228.007 14.892 228.007 15.812C228.007 16.732 228.227 17.456 228.667 17.984C229.107 18.504 229.715 18.764 230.491 18.764C231.051 18.764 231.499 18.644 231.835 18.404C232.179 18.156 232.403 17.816 232.507 17.384H234.199C234.039 18.248 233.635 18.924 232.987 19.412C232.347 19.9 231.523 20.144 230.515 20.144ZM236.518 20V11.6H238.054V14.996L241.162 11.6H243.058L239.962 14.936L243.142 20H241.258L238.858 16.112L238.054 16.988V20H236.518ZM245.154 20V11.6H248.238C248.91 11.6 249.462 11.716 249.894 11.948C250.334 12.172 250.662 12.48 250.878 12.872C251.094 13.256 251.202 13.684 251.202 14.156C251.202 14.668 251.066 15.136 250.794 15.56C250.53 15.984 250.114 16.292 249.546 16.484L251.286 20H249.522L247.962 16.688H246.69V20H245.154ZM246.69 15.56H248.142C248.654 15.56 249.03 15.436 249.27 15.188C249.51 14.94 249.63 14.612 249.63 14.204C249.63 13.804 249.51 13.484 249.27 13.244C249.038 13.004 248.658 12.884 248.13 12.884H246.69V15.56Z" fill="#FF8D24"/>
<path d="M12.8221 117V107.2H14.1941L17.7221 114.032L21.2221 107.2H22.6081V117H21.4321V109.3L18.1561 115.6H17.2741L13.9981 109.314V117H12.8221ZM26.9156 117.168C26.337 117.168 25.8563 117.07 25.4736 116.874C25.091 116.678 24.8063 116.417 24.6196 116.09C24.433 115.763 24.3396 115.409 24.3396 115.026C24.3396 114.317 24.6103 113.771 25.1516 113.388C25.693 113.005 26.4303 112.814 27.3636 112.814H29.2396V112.73C29.2396 112.123 29.081 111.666 28.7636 111.358C28.4463 111.041 28.0216 110.882 27.4896 110.882C27.0323 110.882 26.6356 110.999 26.2996 111.232C25.973 111.456 25.7676 111.787 25.6836 112.226H24.4796C24.5263 111.722 24.6943 111.297 24.9836 110.952C25.2823 110.607 25.651 110.345 26.0896 110.168C26.5283 109.981 26.995 109.888 27.4896 109.888C28.4603 109.888 29.1883 110.149 29.6736 110.672C30.1683 111.185 30.4156 111.871 30.4156 112.73V117H29.3656L29.2956 115.754C29.0996 116.146 28.8103 116.482 28.4276 116.762C28.0543 117.033 27.5503 117.168 26.9156 117.168ZM27.0976 116.174C27.5456 116.174 27.9283 116.057 28.2456 115.824C28.5723 115.591 28.8196 115.287 28.9876 114.914C29.1556 114.541 29.2396 114.149 29.2396 113.738V113.724H27.4616C26.771 113.724 26.281 113.845 25.9916 114.088C25.7116 114.321 25.5716 114.615 25.5716 114.97C25.5716 115.334 25.7023 115.628 25.9636 115.852C26.2343 116.067 26.6123 116.174 27.0976 116.174ZM32.1799 117V110.056H33.2439L33.3139 111.302C33.5379 110.863 33.8599 110.518 34.2799 110.266C34.6999 110.014 35.1759 109.888 35.7079 109.888C36.5292 109.888 37.1825 110.14 37.6679 110.644C38.1625 111.139 38.4099 111.904 38.4099 112.94V117H37.2339V113.066C37.2339 111.619 36.6365 110.896 35.4419 110.896C34.8445 110.896 34.3452 111.115 33.9439 111.554C33.5519 111.983 33.3559 112.599 33.3559 113.402V117H32.1799ZM42.5016 117.168C41.9229 117.168 41.4423 117.07 41.0596 116.874C40.6769 116.678 40.3923 116.417 40.2056 116.09C40.0189 115.763 39.9256 115.409 39.9256 115.026C39.9256 114.317 40.1963 113.771 40.7376 113.388C41.2789 113.005 42.0163 112.814 42.9496 112.814H44.8256V112.73C44.8256 112.123 44.6669 111.666 44.3496 111.358C44.0323 111.041 43.6076 110.882 43.0756 110.882C42.6183 110.882 42.2216 110.999 41.8856 111.232C41.5589 111.456 41.3536 111.787 41.2696 112.226H40.0656C40.1123 111.722 40.2803 111.297 40.5696 110.952C40.8683 110.607 41.2369 110.345 41.6756 110.168C42.1143 109.981 42.5809 109.888 43.0756 109.888C44.0463 109.888 44.7743 110.149 45.2596 110.672C45.7543 111.185 46.0016 111.871 46.0016 112.73V117H44.9516L44.8816 115.754C44.6856 116.146 44.3963 116.482 44.0136 116.762C43.6403 117.033 43.1363 117.168 42.5016 117.168ZM42.6836 116.174C43.1316 116.174 43.5143 116.057 43.8316 115.824C44.1583 115.591 44.4056 115.287 44.5736 114.914C44.7416 114.541 44.8256 114.149 44.8256 113.738V113.724H43.0476C42.3569 113.724 41.8669 113.845 41.5776 114.088C41.2976 114.321 41.1576 114.615 41.1576 114.97C41.1576 115.334 41.2883 115.628 41.5496 115.852C41.8203 116.067 42.1983 116.174 42.6836 116.174ZM50.5098 114.816C50.1178 114.816 49.7585 114.765 49.4318 114.662L48.7318 115.32C48.8345 115.395 48.9605 115.46 49.1098 115.516C49.2685 115.563 49.4925 115.609 49.7818 115.656C50.0711 115.693 50.4771 115.735 50.9998 115.782C51.9331 115.847 52.6005 116.062 53.0018 116.426C53.4031 116.79 53.6038 117.266 53.6038 117.854C53.6038 118.255 53.4918 118.638 53.2678 119.002C53.0531 119.366 52.7171 119.665 52.2598 119.898C51.8118 120.131 51.2331 120.248 50.5238 120.248C49.8985 120.248 49.3431 120.164 48.8578 119.996C48.3725 119.837 47.9945 119.59 47.7238 119.254C47.4531 118.927 47.3178 118.512 47.3178 118.008C47.3178 117.747 47.3878 117.462 47.5278 117.154C47.6678 116.855 47.9291 116.571 48.3118 116.3C48.1065 116.216 47.9291 116.127 47.7798 116.034C47.6398 115.931 47.5091 115.819 47.3878 115.698V115.376L48.5778 114.2C48.0271 113.733 47.7518 113.117 47.7518 112.352C47.7518 111.895 47.8591 111.479 48.0738 111.106C48.2885 110.733 48.6011 110.439 49.0118 110.224C49.4225 110 49.9218 109.888 50.5098 109.888C50.9111 109.888 51.2751 109.944 51.6018 110.056H54.1638V110.938L52.8618 110.994C53.1325 111.386 53.2678 111.839 53.2678 112.352C53.2678 112.809 53.1558 113.225 52.9318 113.598C52.7171 113.971 52.4045 114.27 51.9938 114.494C51.5925 114.709 51.0978 114.816 50.5098 114.816ZM50.5098 113.85C51.0045 113.85 51.3965 113.724 51.6858 113.472C51.9845 113.211 52.1338 112.837 52.1338 112.352C52.1338 111.876 51.9845 111.512 51.6858 111.26C51.3965 110.999 51.0045 110.868 50.5098 110.868C50.0058 110.868 49.6045 110.999 49.3058 111.26C49.0165 111.512 48.8718 111.876 48.8718 112.352C48.8718 112.837 49.0165 113.211 49.3058 113.472C49.6045 113.724 50.0058 113.85 50.5098 113.85ZM48.4658 117.896C48.4658 118.363 48.6618 118.708 49.0538 118.932C49.4458 119.165 49.9358 119.282 50.5238 119.282C51.1025 119.282 51.5645 119.156 51.9098 118.904C52.2645 118.652 52.4418 118.316 52.4418 117.896C52.4418 117.597 52.3205 117.336 52.0778 117.112C51.8351 116.897 51.3871 116.771 50.7338 116.734C50.2205 116.697 49.7771 116.65 49.4038 116.594C49.0211 116.799 48.7691 117.019 48.6478 117.252C48.5265 117.495 48.4658 117.709 48.4658 117.896ZM58.339 117.168C57.6763 117.168 57.0883 117.019 56.575 116.72C56.0616 116.412 55.6556 115.987 55.357 115.446C55.0676 114.905 54.923 114.265 54.923 113.528C54.923 112.8 55.0676 112.165 55.357 111.624C55.6463 111.073 56.0476 110.649 56.561 110.35C57.0836 110.042 57.6856 109.888 58.367 109.888C59.039 109.888 59.6176 110.042 60.103 110.35C60.5976 110.649 60.9756 111.045 61.237 111.54C61.4983 112.035 61.629 112.567 61.629 113.136C61.629 113.239 61.6243 113.341 61.615 113.444C61.615 113.547 61.615 113.663 61.615 113.794H56.085C56.113 114.326 56.2343 114.769 56.449 115.124C56.673 115.469 56.9483 115.731 57.275 115.908C57.611 116.085 57.9656 116.174 58.339 116.174C58.8243 116.174 59.2303 116.062 59.557 115.838C59.8836 115.614 60.1216 115.311 60.271 114.928H61.433C61.2463 115.572 60.887 116.109 60.355 116.538C59.8323 116.958 59.1603 117.168 58.339 117.168ZM58.339 110.882C57.779 110.882 57.2796 111.055 56.841 111.4C56.4116 111.736 56.1643 112.231 56.099 112.884H60.467C60.439 112.259 60.2243 111.769 59.823 111.414C59.4216 111.059 58.927 110.882 58.339 110.882ZM69.2028 117.168C68.6241 117.168 68.1434 117.07 67.7608 116.874C67.3781 116.678 67.0934 116.417 66.9068 116.09C66.7201 115.763 66.6268 115.409 66.6268 115.026C66.6268 114.317 66.8974 113.771 67.4388 113.388C67.9801 113.005 68.7174 112.814 69.6508 112.814H71.5268V112.73C71.5268 112.123 71.3681 111.666 71.0508 111.358C70.7334 111.041 70.3088 110.882 69.7768 110.882C69.3194 110.882 68.9228 110.999 68.5868 111.232C68.2601 111.456 68.0548 111.787 67.9708 112.226H66.7668C66.8134 111.722 66.9814 111.297 67.2708 110.952C67.5694 110.607 67.9381 110.345 68.3768 110.168C68.8154 109.981 69.2821 109.888 69.7768 109.888C70.7474 109.888 71.4754 110.149 71.9608 110.672C72.4554 111.185 72.7028 111.871 72.7028 112.73V117H71.6528L71.5828 115.754C71.3868 116.146 71.0974 116.482 70.7148 116.762C70.3414 117.033 69.8374 117.168 69.2028 117.168ZM69.3848 116.174C69.8328 116.174 70.2154 116.057 70.5328 115.824C70.8594 115.591 71.1068 115.287 71.2748 114.914C71.4428 114.541 71.5268 114.149 71.5268 113.738V113.724H69.7488C69.0581 113.724 68.5681 113.845 68.2788 114.088C67.9988 114.321 67.8588 114.615 67.8588 114.97C67.8588 115.334 67.9894 115.628 68.2508 115.852C68.5214 116.067 68.8994 116.174 69.3848 116.174ZM74.467 117V106.92H75.643V117H74.467ZM77.5705 117V106.92H78.7465V117H77.5705ZM85.1351 120.08L86.8571 116.328H86.4511L83.6931 110.056H84.9671L87.2631 115.46L89.6991 110.056H90.9171L86.3671 120.08H85.1351ZM94.6661 117.168C94.0128 117.168 93.4248 117.019 92.9021 116.72C92.3795 116.421 91.9641 116.001 91.6561 115.46C91.3575 114.909 91.2081 114.265 91.2081 113.528C91.2081 112.791 91.3621 112.151 91.6701 111.61C91.9781 111.059 92.3935 110.635 92.9161 110.336C93.4481 110.037 94.0408 109.888 94.6941 109.888C95.3475 109.888 95.9355 110.037 96.4581 110.336C96.9808 110.635 97.3915 111.059 97.6901 111.61C97.9981 112.151 98.1521 112.791 98.1521 113.528C98.1521 114.265 97.9981 114.909 97.6901 115.46C97.3821 116.001 96.9621 116.421 96.4301 116.72C95.9075 117.019 95.3195 117.168 94.6661 117.168ZM94.6661 116.16C95.0675 116.16 95.4408 116.062 95.7861 115.866C96.1315 115.67 96.4115 115.376 96.6261 114.984C96.8408 114.592 96.9481 114.107 96.9481 113.528C96.9481 112.949 96.8408 112.464 96.6261 112.072C96.4208 111.68 96.1455 111.386 95.8001 111.19C95.4548 110.994 95.0861 110.896 94.6941 110.896C94.2928 110.896 93.9195 110.994 93.5741 111.19C93.2288 111.386 92.9488 111.68 92.7341 112.072C92.5195 112.464 92.4121 112.949 92.4121 113.528C92.4121 114.107 92.5195 114.592 92.7341 114.984C92.9488 115.376 93.2241 115.67 93.5601 115.866C93.9055 116.062 94.2741 116.16 94.6661 116.16ZM102.321 117.168C101.5 117.168 100.847 116.921 100.361 116.426C99.876 115.922 99.6333 115.152 99.6333 114.116V110.056H100.809V113.99C100.809 115.437 101.402 116.16 102.587 116.16C103.194 116.16 103.693 115.945 104.085 115.516C104.487 115.077 104.687 114.457 104.687 113.654V110.056H105.863V117H104.799L104.715 115.754C104.501 116.193 104.179 116.538 103.749 116.79C103.329 117.042 102.853 117.168 102.321 117.168ZM107.799 117V110.056H108.863L108.961 111.386C109.176 110.929 109.502 110.565 109.941 110.294C110.38 110.023 110.921 109.888 111.565 109.888V111.12H111.243C110.832 111.12 110.454 111.195 110.109 111.344C109.764 111.484 109.488 111.727 109.283 112.072C109.078 112.417 108.975 112.893 108.975 113.5V117H107.799ZM119.334 117C118.699 117 118.2 116.846 117.836 116.538C117.472 116.23 117.29 115.675 117.29 114.872V111.05H116.086V110.056H117.29L117.444 108.39H118.466V110.056H120.51V111.05H118.466V114.872C118.466 115.311 118.555 115.609 118.732 115.768C118.909 115.917 119.222 115.992 119.67 115.992H120.398V117H119.334ZM122.004 117V110.056H123.068L123.166 111.386C123.381 110.929 123.707 110.565 124.146 110.294C124.585 110.023 125.126 109.888 125.77 109.888V111.12H125.448C125.037 111.12 124.659 111.195 124.314 111.344C123.969 111.484 123.693 111.727 123.488 112.072C123.283 112.417 123.18 112.893 123.18 113.5V117H122.004ZM129.4 117.168C128.821 117.168 128.341 117.07 127.958 116.874C127.575 116.678 127.291 116.417 127.104 116.09C126.917 115.763 126.824 115.409 126.824 115.026C126.824 114.317 127.095 113.771 127.636 113.388C128.177 113.005 128.915 112.814 129.848 112.814H131.724V112.73C131.724 112.123 131.565 111.666 131.248 111.358C130.931 111.041 130.506 110.882 129.974 110.882C129.517 110.882 129.12 110.999 128.784 111.232C128.457 111.456 128.252 111.787 128.168 112.226H126.964C127.011 111.722 127.179 111.297 127.468 110.952C127.767 110.607 128.135 110.345 128.574 110.168C129.013 109.981 129.479 109.888 129.974 109.888C130.945 109.888 131.673 110.149 132.158 110.672C132.653 111.185 132.9 111.871 132.9 112.73V117H131.85L131.78 115.754C131.584 116.146 131.295 116.482 130.912 116.762C130.539 117.033 130.035 117.168 129.4 117.168ZM129.582 116.174C130.03 116.174 130.413 116.057 130.73 115.824C131.057 115.591 131.304 115.287 131.472 114.914C131.64 114.541 131.724 114.149 131.724 113.738V113.724H129.946C129.255 113.724 128.765 113.845 128.476 114.088C128.196 114.321 128.056 114.615 128.056 114.97C128.056 115.334 128.187 115.628 128.448 115.852C128.719 116.067 129.097 116.174 129.582 116.174ZM137.814 117.168C137.124 117.168 136.517 117.009 135.994 116.692C135.481 116.375 135.08 115.941 134.79 115.39C134.51 114.839 134.37 114.214 134.37 113.514C134.37 112.814 134.515 112.193 134.804 111.652C135.094 111.101 135.495 110.672 136.008 110.364C136.522 110.047 137.128 109.888 137.828 109.888C138.398 109.888 138.902 110.005 139.34 110.238C139.779 110.471 140.12 110.798 140.362 111.218V106.92H141.538V117H140.474L140.362 115.852C140.138 116.188 139.816 116.491 139.396 116.762C138.976 117.033 138.449 117.168 137.814 117.168ZM137.94 116.146C138.407 116.146 138.818 116.039 139.172 115.824C139.536 115.6 139.816 115.292 140.012 114.9C140.218 114.508 140.32 114.051 140.32 113.528C140.32 113.005 140.218 112.548 140.012 112.156C139.816 111.764 139.536 111.461 139.172 111.246C138.818 111.022 138.407 110.91 137.94 110.91C137.483 110.91 137.072 111.022 136.708 111.246C136.354 111.461 136.074 111.764 135.868 112.156C135.672 112.548 135.574 113.005 135.574 113.528C135.574 114.051 135.672 114.508 135.868 114.9C136.074 115.292 136.354 115.6 136.708 115.824C137.072 116.039 137.483 116.146 137.94 116.146ZM144.169 108.516C143.936 108.516 143.74 108.441 143.581 108.292C143.432 108.133 143.357 107.937 143.357 107.704C143.357 107.48 143.432 107.293 143.581 107.144C143.74 106.995 143.936 106.92 144.169 106.92C144.393 106.92 144.585 106.995 144.743 107.144C144.902 107.293 144.981 107.48 144.981 107.704C144.981 107.937 144.902 108.133 144.743 108.292C144.585 108.441 144.393 108.516 144.169 108.516ZM143.581 117V110.056H144.757V117H143.581ZM146.805 117V110.056H147.869L147.939 111.302C148.163 110.863 148.485 110.518 148.905 110.266C149.325 110.014 149.801 109.888 150.333 109.888C151.154 109.888 151.808 110.14 152.293 110.644C152.788 111.139 153.035 111.904 153.035 112.94V117H151.859V113.066C151.859 111.619 151.262 110.896 150.067 110.896C149.47 110.896 148.97 111.115 148.569 111.554C148.177 111.983 147.981 112.599 147.981 113.402V117H146.805ZM157.561 114.816C157.169 114.816 156.809 114.765 156.483 114.662L155.783 115.32C155.885 115.395 156.011 115.46 156.161 115.516C156.319 115.563 156.543 115.609 156.833 115.656C157.122 115.693 157.528 115.735 158.051 115.782C158.984 115.847 159.651 116.062 160.053 116.426C160.454 116.79 160.655 117.266 160.655 117.854C160.655 118.255 160.543 118.638 160.319 119.002C160.104 119.366 159.768 119.665 159.311 119.898C158.863 120.131 158.284 120.248 157.575 120.248C156.949 120.248 156.394 120.164 155.909 119.996C155.423 119.837 155.045 119.59 154.775 119.254C154.504 118.927 154.369 118.512 154.369 118.008C154.369 117.747 154.439 117.462 154.579 117.154C154.719 116.855 154.98 116.571 155.363 116.3C155.157 116.216 154.98 116.127 154.831 116.034C154.691 115.931 154.56 115.819 154.439 115.698V115.376L155.629 114.2C155.078 113.733 154.803 113.117 154.803 112.352C154.803 111.895 154.91 111.479 155.125 111.106C155.339 110.733 155.652 110.439 156.063 110.224C156.473 110 156.973 109.888 157.561 109.888C157.962 109.888 158.326 109.944 158.653 110.056H161.215V110.938L159.913 110.994C160.183 111.386 160.319 111.839 160.319 112.352C160.319 112.809 160.207 113.225 159.983 113.598C159.768 113.971 159.455 114.27 159.045 114.494C158.643 114.709 158.149 114.816 157.561 114.816ZM157.561 113.85C158.055 113.85 158.447 113.724 158.737 113.472C159.035 113.211 159.185 112.837 159.185 112.352C159.185 111.876 159.035 111.512 158.737 111.26C158.447 110.999 158.055 110.868 157.561 110.868C157.057 110.868 156.655 110.999 156.357 111.26C156.067 111.512 155.923 111.876 155.923 112.352C155.923 112.837 156.067 113.211 156.357 113.472C156.655 113.724 157.057 113.85 157.561 113.85ZM155.517 117.896C155.517 118.363 155.713 118.708 156.105 118.932C156.497 119.165 156.987 119.282 157.575 119.282C158.153 119.282 158.615 119.156 158.961 118.904C159.315 118.652 159.493 118.316 159.493 117.896C159.493 117.597 159.371 117.336 159.129 117.112C158.886 116.897 158.438 116.771 157.785 116.734C157.271 116.697 156.828 116.65 156.455 116.594C156.072 116.799 155.82 117.019 155.699 117.252C155.577 117.495 155.517 117.709 155.517 117.896ZM168.556 117.168C167.978 117.168 167.497 117.07 167.114 116.874C166.732 116.678 166.447 116.417 166.26 116.09C166.074 115.763 165.98 115.409 165.98 115.026C165.98 114.317 166.251 113.771 166.792 113.388C167.334 113.005 168.071 112.814 169.004 112.814H170.88V112.73C170.88 112.123 170.722 111.666 170.404 111.358C170.087 111.041 169.662 110.882 169.13 110.882C168.673 110.882 168.276 110.999 167.94 111.232C167.614 111.456 167.408 111.787 167.324 112.226H166.12C166.167 111.722 166.335 111.297 166.624 110.952C166.923 110.607 167.292 110.345 167.73 110.168C168.169 109.981 168.636 109.888 169.13 109.888C170.101 109.888 170.829 110.149 171.314 110.672C171.809 111.185 172.056 111.871 172.056 112.73V117H171.006L170.936 115.754C170.74 116.146 170.451 116.482 170.068 116.762C169.695 117.033 169.191 117.168 168.556 117.168ZM168.738 116.174C169.186 116.174 169.569 116.057 169.886 115.824C170.213 115.591 170.46 115.287 170.628 114.914C170.796 114.541 170.88 114.149 170.88 113.738V113.724H169.102C168.412 113.724 167.922 113.845 167.632 114.088C167.352 114.321 167.212 114.615 167.212 114.97C167.212 115.334 167.343 115.628 167.604 115.852C167.875 116.067 168.253 116.174 168.738 116.174ZM177.012 117.168C176.35 117.168 175.752 117.019 175.22 116.72C174.698 116.412 174.282 115.987 173.974 115.446C173.676 114.895 173.526 114.256 173.526 113.528C173.526 112.8 173.676 112.165 173.974 111.624C174.282 111.073 174.698 110.649 175.22 110.35C175.752 110.042 176.35 109.888 177.012 109.888C177.834 109.888 178.524 110.103 179.084 110.532C179.654 110.961 180.013 111.535 180.162 112.254H178.958C178.865 111.825 178.636 111.493 178.272 111.26C177.908 111.017 177.484 110.896 176.998 110.896C176.606 110.896 176.238 110.994 175.892 111.19C175.547 111.386 175.267 111.68 175.052 112.072C174.838 112.464 174.73 112.949 174.73 113.528C174.73 114.107 174.838 114.592 175.052 114.984C175.267 115.376 175.547 115.675 175.892 115.88C176.238 116.076 176.606 116.174 176.998 116.174C177.484 116.174 177.908 116.057 178.272 115.824C178.636 115.581 178.865 115.241 178.958 114.802H180.162C180.022 115.502 179.668 116.071 179.098 116.51C178.529 116.949 177.834 117.168 177.012 117.168ZM184.357 117C183.723 117 183.223 116.846 182.859 116.538C182.495 116.23 182.313 115.675 182.313 114.872V111.05H181.109V110.056H182.313L182.467 108.39H183.489V110.056H185.533V111.05H183.489V114.872C183.489 115.311 183.578 115.609 183.755 115.768C183.933 115.917 184.245 115.992 184.693 115.992H185.421V117H184.357ZM187.742 108.516C187.508 108.516 187.312 108.441 187.154 108.292C187.004 108.133 186.93 107.937 186.93 107.704C186.93 107.48 187.004 107.293 187.154 107.144C187.312 106.995 187.508 106.92 187.742 106.92C187.966 106.92 188.157 106.995 188.316 107.144C188.474 107.293 188.554 107.48 188.554 107.704C188.554 107.937 188.474 108.133 188.316 108.292C188.157 108.441 187.966 108.516 187.742 108.516ZM187.154 117V110.056H188.33V117H187.154ZM192.379 117L189.747 110.056H190.979L193.065 115.866L195.165 110.056H196.369L193.737 117H192.379ZM198.392 108.516C198.159 108.516 197.963 108.441 197.804 108.292C197.655 108.133 197.58 107.937 197.58 107.704C197.58 107.48 197.655 107.293 197.804 107.144C197.963 106.995 198.159 106.92 198.392 106.92C198.616 106.92 198.807 106.995 198.966 107.144C199.125 107.293 199.204 107.48 199.204 107.704C199.204 107.937 199.125 108.133 198.966 108.292C198.807 108.441 198.616 108.516 198.392 108.516ZM197.804 117V110.056H198.98V117H197.804ZM203.772 117C203.137 117 202.638 116.846 202.274 116.538C201.91 116.23 201.728 115.675 201.728 114.872V111.05H200.524V110.056H201.728L201.882 108.39H202.904V110.056H204.948V111.05H202.904V114.872C202.904 115.311 202.992 115.609 203.17 115.768C203.347 115.917 203.66 115.992 204.108 115.992H204.836V117H203.772ZM207.198 120.08L208.92 116.328H208.514L205.756 110.056H207.03L209.326 115.46L211.762 110.056H212.98L208.43 120.08H207.198ZM220.46 117.168C219.639 117.168 218.985 116.921 218.5 116.426C218.015 115.922 217.772 115.152 217.772 114.116V110.056H218.948V113.99C218.948 115.437 219.541 116.16 220.726 116.16C221.333 116.16 221.832 115.945 222.224 115.516C222.625 115.077 222.826 114.457 222.826 113.654V110.056H224.002V117H222.938L222.854 115.754C222.639 116.193 222.317 116.538 221.888 116.79C221.468 117.042 220.992 117.168 220.46 117.168ZM225.938 117V110.056H227.002L227.072 111.302C227.296 110.863 227.618 110.518 228.038 110.266C228.458 110.014 228.934 109.888 229.466 109.888C230.287 109.888 230.94 110.14 231.426 110.644C231.92 111.139 232.168 111.904 232.168 112.94V117H230.992V113.066C230.992 111.619 230.394 110.896 229.2 110.896C228.602 110.896 228.103 111.115 227.702 111.554C227.31 111.983 227.114 112.599 227.114 113.402V117H225.938ZM237.099 117.168C236.409 117.168 235.802 117.009 235.279 116.692C234.766 116.375 234.365 115.941 234.075 115.39C233.795 114.839 233.655 114.214 233.655 113.514C233.655 112.814 233.8 112.193 234.089 111.652C234.379 111.101 234.78 110.672 235.293 110.364C235.807 110.047 236.413 109.888 237.113 109.888C237.683 109.888 238.187 110.005 238.625 110.238C239.064 110.471 239.405 110.798 239.647 111.218V106.92H240.823V117H239.759L239.647 115.852C239.423 116.188 239.101 116.491 238.681 116.762C238.261 117.033 237.734 117.168 237.099 117.168ZM237.225 116.146C237.692 116.146 238.103 116.039 238.457 115.824C238.821 115.6 239.101 115.292 239.297 114.9C239.503 114.508 239.605 114.051 239.605 113.528C239.605 113.005 239.503 112.548 239.297 112.156C239.101 111.764 238.821 111.461 238.457 111.246C238.103 111.022 237.692 110.91 237.225 110.91C236.768 110.91 236.357 111.022 235.993 111.246C235.639 111.461 235.359 111.764 235.153 112.156C234.957 112.548 234.859 113.005 234.859 113.528C234.859 114.051 234.957 114.508 235.153 114.9C235.359 115.292 235.639 115.6 235.993 115.824C236.357 116.039 236.768 116.146 237.225 116.146ZM245.862 117.168C245.2 117.168 244.612 117.019 244.098 116.72C243.585 116.412 243.179 115.987 242.88 115.446C242.591 114.905 242.446 114.265 242.446 113.528C242.446 112.8 242.591 112.165 242.88 111.624C243.17 111.073 243.571 110.649 244.084 110.35C244.607 110.042 245.209 109.888 245.89 109.888C246.562 109.888 247.141 110.042 247.626 110.35C248.121 110.649 248.499 111.045 248.76 111.54C249.022 112.035 249.152 112.567 249.152 113.136C249.152 113.239 249.148 113.341 249.138 113.444C249.138 113.547 249.138 113.663 249.138 113.794H243.608C243.636 114.326 243.758 114.769 243.972 115.124C244.196 115.469 244.472 115.731 244.798 115.908C245.134 116.085 245.489 116.174 245.862 116.174C246.348 116.174 246.754 116.062 247.08 115.838C247.407 115.614 247.645 115.311 247.794 114.928H248.956C248.77 115.572 248.41 116.109 247.878 116.538C247.356 116.958 246.684 117.168 245.862 117.168ZM245.862 110.882C245.302 110.882 244.803 111.055 244.364 111.4C243.935 111.736 243.688 112.231 243.622 112.884H247.99C247.962 112.259 247.748 111.769 247.346 111.414C246.945 111.059 246.45 110.882 245.862 110.882ZM250.711 117V110.056H251.775L251.873 111.386C252.088 110.929 252.414 110.565 252.853 110.294C253.292 110.023 253.833 109.888 254.477 109.888V111.12H254.155C253.744 111.12 253.366 111.195 253.021 111.344C252.676 111.484 252.4 111.727 252.195 112.072C251.99 112.417 251.887 112.893 251.887 113.5V117H250.711ZM262.666 117.168C262.013 117.168 261.425 117.019 260.902 116.72C260.379 116.421 259.964 116.001 259.656 115.46C259.357 114.909 259.208 114.265 259.208 113.528C259.208 112.791 259.362 112.151 259.67 111.61C259.978 111.059 260.393 110.635 260.916 110.336C261.448 110.037 262.041 109.888 262.694 109.888C263.347 109.888 263.935 110.037 264.458 110.336C264.981 110.635 265.391 111.059 265.69 111.61C265.998 112.151 266.152 112.791 266.152 113.528C266.152 114.265 265.998 114.909 265.69 115.46C265.382 116.001 264.962 116.421 264.43 116.72C263.907 117.019 263.319 117.168 262.666 117.168ZM262.666 116.16C263.067 116.16 263.441 116.062 263.786 115.866C264.131 115.67 264.411 115.376 264.626 114.984C264.841 114.592 264.948 114.107 264.948 113.528C264.948 112.949 264.841 112.464 264.626 112.072C264.421 111.68 264.145 111.386 263.8 111.19C263.455 110.994 263.086 110.896 262.694 110.896C262.293 110.896 261.919 110.994 261.574 111.19C261.229 111.386 260.949 111.68 260.734 112.072C260.519 112.464 260.412 112.949 260.412 113.528C260.412 114.107 260.519 114.592 260.734 114.984C260.949 115.376 261.224 115.67 261.56 115.866C261.905 116.062 262.274 116.16 262.666 116.16ZM267.787 117V110.056H268.851L268.921 111.302C269.145 110.863 269.467 110.518 269.887 110.266C270.307 110.014 270.783 109.888 271.315 109.888C272.137 109.888 272.79 110.14 273.275 110.644C273.77 111.139 274.017 111.904 274.017 112.94V117H272.841V113.066C272.841 111.619 272.244 110.896 271.049 110.896C270.452 110.896 269.953 111.115 269.551 111.554C269.159 111.983 268.963 112.599 268.963 113.402V117H267.787ZM278.921 117.168C278.258 117.168 277.67 117.019 277.157 116.72C276.644 116.412 276.238 115.987 275.939 115.446C275.65 114.905 275.505 114.265 275.505 113.528C275.505 112.8 275.65 112.165 275.939 111.624C276.228 111.073 276.63 110.649 277.143 110.35C277.666 110.042 278.268 109.888 278.949 109.888C279.621 109.888 280.2 110.042 280.685 110.35C281.18 110.649 281.558 111.045 281.819 111.54C282.08 112.035 282.211 112.567 282.211 113.136C282.211 113.239 282.206 113.341 282.197 113.444C282.197 113.547 282.197 113.663 282.197 113.794H276.667C276.695 114.326 276.816 114.769 277.031 115.124C277.255 115.469 277.53 115.731 277.857 115.908C278.193 116.085 278.548 116.174 278.921 116.174C279.406 116.174 279.812 116.062 280.139 115.838C280.466 115.614 280.704 115.311 280.853 114.928H282.015C281.828 115.572 281.469 116.109 280.937 116.538C280.414 116.958 279.742 117.168 278.921 117.168ZM278.921 110.882C278.361 110.882 277.862 111.055 277.423 111.4C276.994 111.736 276.746 112.231 276.681 112.884H281.049C281.021 112.259 280.806 111.769 280.405 111.414C280.004 111.059 279.509 110.882 278.921 110.882ZM287.475 117V110.056H288.539L288.637 111.386C288.851 110.929 289.178 110.565 289.617 110.294C290.055 110.023 290.597 109.888 291.241 109.888V111.12H290.919C290.508 111.12 290.13 111.195 289.785 111.344C289.439 111.484 289.164 111.727 288.959 112.072C288.753 112.417 288.651 112.893 288.651 113.5V117H287.475ZM295.465 117.168C294.812 117.168 294.224 117.019 293.701 116.72C293.178 116.421 292.763 116.001 292.455 115.46C292.156 114.909 292.007 114.265 292.007 113.528C292.007 112.791 292.161 112.151 292.469 111.61C292.777 111.059 293.192 110.635 293.715 110.336C294.247 110.037 294.84 109.888 295.493 109.888C296.146 109.888 296.734 110.037 297.257 110.336C297.78 110.635 298.19 111.059 298.489 111.61C298.797 112.151 298.951 112.791 298.951 113.528C298.951 114.265 298.797 114.909 298.489 115.46C298.181 116.001 297.761 116.421 297.229 116.72C296.706 117.019 296.118 117.168 295.465 117.168ZM295.465 116.16C295.866 116.16 296.24 116.062 296.585 115.866C296.93 115.67 297.21 115.376 297.425 114.984C297.64 114.592 297.747 114.107 297.747 113.528C297.747 112.949 297.64 112.464 297.425 112.072C297.22 111.68 296.944 111.386 296.599 111.19C296.254 110.994 295.885 110.896 295.493 110.896C295.092 110.896 294.718 110.994 294.373 111.19C294.028 111.386 293.748 111.68 293.533 112.072C293.318 112.464 293.211 112.949 293.211 113.528C293.211 114.107 293.318 114.592 293.533 114.984C293.748 115.376 294.023 115.67 294.359 115.866C294.704 116.062 295.073 116.16 295.465 116.16ZM303.75 117.168C303.097 117.168 302.509 117.019 301.986 116.72C301.463 116.421 301.048 116.001 300.74 115.46C300.441 114.909 300.292 114.265 300.292 113.528C300.292 112.791 300.446 112.151 300.754 111.61C301.062 111.059 301.477 110.635 302 110.336C302.532 110.037 303.125 109.888 303.778 109.888C304.431 109.888 305.019 110.037 305.542 110.336C306.065 110.635 306.475 111.059 306.774 111.61C307.082 112.151 307.236 112.791 307.236 113.528C307.236 114.265 307.082 114.909 306.774 115.46C306.466 116.001 306.046 116.421 305.514 116.72C304.991 117.019 304.403 117.168 303.75 117.168ZM303.75 116.16C304.151 116.16 304.525 116.062 304.87 115.866C305.215 115.67 305.495 115.376 305.71 114.984C305.925 114.592 306.032 114.107 306.032 113.528C306.032 112.949 305.925 112.464 305.71 112.072C305.505 111.68 305.229 111.386 304.884 111.19C304.539 110.994 304.17 110.896 303.778 110.896C303.377 110.896 303.003 110.994 302.658 111.19C302.313 111.386 302.033 111.68 301.818 112.072C301.603 112.464 301.496 112.949 301.496 113.528C301.496 114.107 301.603 114.592 301.818 114.984C302.033 115.376 302.308 115.67 302.644 115.866C302.989 116.062 303.358 116.16 303.75 116.16ZM309.249 117V111.05H308.199V110.056H309.249V108.852C309.249 108.18 309.417 107.69 309.753 107.382C310.089 107.074 310.579 106.92 311.223 106.92H311.923V107.928H311.405C311.051 107.928 310.799 108.003 310.649 108.152C310.5 108.292 310.425 108.535 310.425 108.88V110.056H312.133V111.05H310.425V117H309.249ZM313.516 117.07C313.282 117.07 313.086 116.995 312.928 116.846C312.778 116.687 312.704 116.496 312.704 116.272C312.704 116.048 312.778 115.861 312.928 115.712C313.086 115.553 313.282 115.474 313.516 115.474C313.74 115.474 313.926 115.553 314.076 115.712C314.234 115.861 314.314 116.048 314.314 116.272C314.314 116.496 314.234 116.687 314.076 116.846C313.926 116.995 313.74 117.07 313.516 117.07ZM319.619 117V107.2H325.583V108.166H320.795V111.61H324.869V112.562H320.795V117H319.619ZM327.742 108.516C327.508 108.516 327.312 108.441 327.154 108.292C327.004 108.133 326.93 107.937 326.93 107.704C326.93 107.48 327.004 107.293 327.154 107.144C327.312 106.995 327.508 106.92 327.742 106.92C327.966 106.92 328.157 106.995 328.316 107.144C328.474 107.293 328.554 107.48 328.554 107.704C328.554 107.937 328.474 108.133 328.316 108.292C328.157 108.441 327.966 108.516 327.742 108.516ZM327.154 117V110.056H328.33V117H327.154ZM330.377 117V110.056H331.441L331.511 111.302C331.735 110.863 332.057 110.518 332.477 110.266C332.897 110.014 333.373 109.888 333.905 109.888C334.726 109.888 335.38 110.14 335.865 110.644C336.36 111.139 336.607 111.904 336.607 112.94V117H335.431V113.066C335.431 111.619 334.834 110.896 333.639 110.896C333.042 110.896 332.542 111.115 332.141 111.554C331.749 111.983 331.553 112.599 331.553 113.402V117H330.377ZM341.539 117.168C340.848 117.168 340.242 117.009 339.719 116.692C339.206 116.375 338.804 115.941 338.515 115.39C338.235 114.839 338.095 114.214 338.095 113.514C338.095 112.814 338.24 112.193 338.529 111.652C338.818 111.101 339.22 110.672 339.733 110.364C340.246 110.047 340.853 109.888 341.553 109.888C342.122 109.888 342.626 110.005 343.065 110.238C343.504 110.471 343.844 110.798 344.087 111.218V106.92H345.263V117H344.199L344.087 115.852C343.863 116.188 343.541 116.491 343.121 116.762C342.701 117.033 342.174 117.168 341.539 117.168ZM341.665 116.146C342.132 116.146 342.542 116.039 342.897 115.824C343.261 115.6 343.541 115.292 343.737 114.9C343.942 114.508 344.045 114.051 344.045 113.528C344.045 113.005 343.942 112.548 343.737 112.156C343.541 111.764 343.261 111.461 342.897 111.246C342.542 111.022 342.132 110.91 341.665 110.91C341.208 110.91 340.797 111.022 340.433 111.246C340.078 111.461 339.798 111.764 339.593 112.156C339.397 112.548 339.299 113.005 339.299 113.528C339.299 114.051 339.397 114.508 339.593 114.9C339.798 115.292 340.078 115.6 340.433 115.824C340.797 116.039 341.208 116.146 341.665 116.146ZM43.2093 128.516C42.976 128.516 42.78 128.441 42.6213 128.292C42.472 128.133 42.3973 127.937 42.3973 127.704C42.3973 127.48 42.472 127.293 42.6213 127.144C42.78 126.995 42.976 126.92 43.2093 126.92C43.4333 126.92 43.6246 126.995 43.7833 127.144C43.942 127.293 44.0213 127.48 44.0213 127.704C44.0213 127.937 43.942 128.133 43.7833 128.292C43.6246 128.441 43.4333 128.516 43.2093 128.516ZM42.6213 137V130.056H43.7973V137H42.6213ZM45.8449 137V130.056H46.9089L46.9789 131.302C47.2029 130.863 47.5249 130.518 47.9449 130.266C48.3649 130.014 48.8409 129.888 49.3729 129.888C50.1942 129.888 50.8476 130.14 51.3329 130.644C51.8276 131.139 52.0749 131.904 52.0749 132.94V137H50.8989V133.066C50.8989 131.619 50.3016 130.896 49.1069 130.896C48.5096 130.896 48.0102 131.115 47.6089 131.554C47.2169 131.983 47.0209 132.599 47.0209 133.402V137H45.8449ZM56.5166 137.168C55.686 137.168 54.9953 136.958 54.4446 136.538C53.894 136.118 53.572 135.549 53.4786 134.83H54.6826C54.7573 135.194 54.9486 135.511 55.2566 135.782C55.574 136.043 55.9986 136.174 56.5306 136.174C57.0253 136.174 57.3893 136.071 57.6226 135.866C57.856 135.651 57.9726 135.399 57.9726 135.11C57.9726 134.69 57.8186 134.41 57.5106 134.27C57.212 134.13 56.7873 134.004 56.2366 133.892C55.8633 133.817 55.49 133.71 55.1166 133.57C54.7433 133.43 54.4306 133.234 54.1786 132.982C53.9266 132.721 53.8006 132.38 53.8006 131.96C53.8006 131.353 54.0246 130.859 54.4726 130.476C54.93 130.084 55.546 129.888 56.3206 129.888C57.058 129.888 57.66 130.075 58.1266 130.448C58.6026 130.812 58.878 131.335 58.9526 132.016H57.7906C57.744 131.661 57.59 131.386 57.3286 131.19C57.0766 130.985 56.736 130.882 56.3066 130.882C55.8866 130.882 55.56 130.971 55.3266 131.148C55.1026 131.325 54.9906 131.559 54.9906 131.848C54.9906 132.128 55.1353 132.347 55.4246 132.506C55.7233 132.665 56.1246 132.8 56.6286 132.912C57.058 133.005 57.464 133.122 57.8466 133.262C58.2386 133.393 58.556 133.593 58.7986 133.864C59.0506 134.125 59.1766 134.508 59.1766 135.012C59.186 135.637 58.948 136.155 58.4626 136.566C57.9866 136.967 57.338 137.168 56.5166 137.168ZM61.5706 128.516C61.3373 128.516 61.1413 128.441 60.9826 128.292C60.8333 128.133 60.7586 127.937 60.7586 127.704C60.7586 127.48 60.8333 127.293 60.9826 127.144C61.1413 126.995 61.3373 126.92 61.5706 126.92C61.7946 126.92 61.986 126.995 62.1446 127.144C62.3033 127.293 62.3826 127.48 62.3826 127.704C62.3826 127.937 62.3033 128.133 62.1446 128.292C61.986 128.441 61.7946 128.516 61.5706 128.516ZM60.9826 137V130.056H62.1586V137H60.9826ZM66.9502 134.816C66.5582 134.816 66.1989 134.765 65.8722 134.662L65.1722 135.32C65.2749 135.395 65.4009 135.46 65.5502 135.516C65.7089 135.563 65.9329 135.609 66.2222 135.656C66.5116 135.693 66.9176 135.735 67.4402 135.782C68.3736 135.847 69.0409 136.062 69.4422 136.426C69.8436 136.79 70.0442 137.266 70.0442 137.854C70.0442 138.255 69.9322 138.638 69.7082 139.002C69.4936 139.366 69.1576 139.665 68.7002 139.898C68.2522 140.131 67.6736 140.248 66.9642 140.248C66.3389 140.248 65.7836 140.164 65.2982 139.996C64.8129 139.837 64.4349 139.59 64.1642 139.254C63.8936 138.927 63.7582 138.512 63.7582 138.008C63.7582 137.747 63.8282 137.462 63.9682 137.154C64.1082 136.855 64.3696 136.571 64.7522 136.3C64.5469 136.216 64.3696 136.127 64.2202 136.034C64.0802 135.931 63.9496 135.819 63.8282 135.698V135.376L65.0182 134.2C64.4676 133.733 64.1922 133.117 64.1922 132.352C64.1922 131.895 64.2996 131.479 64.5142 131.106C64.7289 130.733 65.0416 130.439 65.4522 130.224C65.8629 130 66.3622 129.888 66.9502 129.888C67.3516 129.888 67.7156 129.944 68.0422 130.056H70.6042V130.938L69.3022 130.994C69.5729 131.386 69.7082 131.839 69.7082 132.352C69.7082 132.809 69.5962 133.225 69.3722 133.598C69.1576 133.971 68.8449 134.27 68.4342 134.494C68.0329 134.709 67.5382 134.816 66.9502 134.816ZM66.9502 133.85C67.4449 133.85 67.8369 133.724 68.1262 133.472C68.4249 133.211 68.5742 132.837 68.5742 132.352C68.5742 131.876 68.4249 131.512 68.1262 131.26C67.8369 130.999 67.4449 130.868 66.9502 130.868C66.4462 130.868 66.0449 130.999 65.7462 131.26C65.4569 131.512 65.3122 131.876 65.3122 132.352C65.3122 132.837 65.4569 133.211 65.7462 133.472C66.0449 133.724 66.4462 133.85 66.9502 133.85ZM64.9062 137.896C64.9062 138.363 65.1022 138.708 65.4942 138.932C65.8862 139.165 66.3762 139.282 66.9642 139.282C67.5429 139.282 68.0049 139.156 68.3502 138.904C68.7049 138.652 68.8822 138.316 68.8822 137.896C68.8822 137.597 68.7609 137.336 68.5182 137.112C68.2756 136.897 67.8276 136.771 67.1742 136.734C66.6609 136.697 66.2176 136.65 65.8442 136.594C65.4616 136.799 65.2096 137.019 65.0882 137.252C64.9669 137.495 64.9062 137.709 64.9062 137.896ZM71.9308 137V126.92H73.1068V131.246C73.3402 130.817 73.6715 130.485 74.1008 130.252C74.5302 130.009 74.9968 129.888 75.5008 129.888C76.3035 129.888 76.9475 130.14 77.4328 130.644C77.9182 131.139 78.1608 131.904 78.1608 132.94V137H76.9988V133.066C76.9988 131.619 76.4155 130.896 75.2488 130.896C74.6422 130.896 74.1335 131.115 73.7228 131.554C73.3122 131.983 73.1068 132.599 73.1068 133.402V137H71.9308ZM82.6866 137C82.0519 137 81.5526 136.846 81.1886 136.538C80.8246 136.23 80.6426 135.675 80.6426 134.872V131.05H79.4386V130.056H80.6426L80.7966 128.39H81.8186V130.056H83.8626V131.05H81.8186V134.872C81.8186 135.311 81.9072 135.609 82.0846 135.768C82.2619 135.917 82.5746 135.992 83.0226 135.992H83.7506V137H82.6866ZM88.0166 137.168C87.186 137.168 86.4953 136.958 85.9446 136.538C85.394 136.118 85.072 135.549 84.9786 134.83H86.1826C86.2573 135.194 86.4486 135.511 86.7566 135.782C87.074 136.043 87.4986 136.174 88.0306 136.174C88.5253 136.174 88.8893 136.071 89.1226 135.866C89.356 135.651 89.4726 135.399 89.4726 135.11C89.4726 134.69 89.3186 134.41 89.0106 134.27C88.712 134.13 88.2873 134.004 87.7366 133.892C87.3633 133.817 86.99 133.71 86.6166 133.57C86.2433 133.43 85.9306 133.234 85.6786 132.982C85.4266 132.721 85.3006 132.38 85.3006 131.96C85.3006 131.353 85.5246 130.859 85.9726 130.476C86.43 130.084 87.046 129.888 87.8206 129.888C88.558 129.888 89.16 130.075 89.6266 130.448C90.1026 130.812 90.378 131.335 90.4526 132.016H89.2906C89.244 131.661 89.09 131.386 88.8286 131.19C88.5766 130.985 88.236 130.882 87.8066 130.882C87.3866 130.882 87.06 130.971 86.8266 131.148C86.6026 131.325 86.4906 131.559 86.4906 131.848C86.4906 132.128 86.6353 132.347 86.9246 132.506C87.2233 132.665 87.6246 132.8 88.1286 132.912C88.558 133.005 88.964 133.122 89.3466 133.262C89.7386 133.393 90.056 133.593 90.2986 133.864C90.5506 134.125 90.6766 134.508 90.6766 135.012C90.686 135.637 90.448 136.155 89.9626 136.566C89.4866 136.967 88.838 137.168 88.0166 137.168ZM98.3717 137.168C97.793 137.168 97.3124 137.07 96.9297 136.874C96.547 136.678 96.2624 136.417 96.0757 136.09C95.889 135.763 95.7957 135.409 95.7957 135.026C95.7957 134.317 96.0664 133.771 96.6077 133.388C97.149 133.005 97.8864 132.814 98.8197 132.814H100.696V132.73C100.696 132.123 100.537 131.666 100.22 131.358C99.9024 131.041 99.4777 130.882 98.9457 130.882C98.4884 130.882 98.0917 130.999 97.7557 131.232C97.429 131.456 97.2237 131.787 97.1397 132.226H95.9357C95.9824 131.722 96.1504 131.297 96.4397 130.952C96.7384 130.607 97.107 130.345 97.5457 130.168C97.9844 129.981 98.451 129.888 98.9457 129.888C99.9164 129.888 100.644 130.149 101.13 130.672C101.624 131.185 101.872 131.871 101.872 132.73V137H100.822L100.752 135.754C100.556 136.146 100.266 136.482 99.8837 136.762C99.5104 137.033 99.0064 137.168 98.3717 137.168ZM98.5537 136.174C99.0017 136.174 99.3844 136.057 99.7017 135.824C100.028 135.591 100.276 135.287 100.444 134.914C100.612 134.541 100.696 134.149 100.696 133.738V133.724H98.9177C98.227 133.724 97.737 133.845 97.4477 134.088C97.1677 134.321 97.0277 134.615 97.0277 134.97C97.0277 135.334 97.1584 135.628 97.4197 135.852C97.6904 136.067 98.0684 136.174 98.5537 136.174ZM103.636 137V130.056H104.7L104.77 131.302C104.994 130.863 105.316 130.518 105.736 130.266C106.156 130.014 106.632 129.888 107.164 129.888C107.985 129.888 108.639 130.14 109.124 130.644C109.619 131.139 109.866 131.904 109.866 132.94V137H108.69V133.066C108.69 131.619 108.093 130.896 106.898 130.896C106.301 130.896 105.801 131.115 105.4 131.554C105.008 131.983 104.812 132.599 104.812 133.402V137H103.636ZM114.798 137.168C114.107 137.168 113.5 137.009 112.978 136.692C112.464 136.375 112.063 135.941 111.774 135.39C111.494 134.839 111.354 134.214 111.354 133.514C111.354 132.814 111.498 132.193 111.788 131.652C112.077 131.101 112.478 130.672 112.992 130.364C113.505 130.047 114.112 129.888 114.812 129.888C115.381 129.888 115.885 130.005 116.324 130.238C116.762 130.471 117.103 130.798 117.346 131.218V126.92H118.522V137H117.458L117.346 135.852C117.122 136.188 116.8 136.491 116.38 136.762C115.96 137.033 115.432 137.168 114.798 137.168ZM114.924 136.146C115.39 136.146 115.801 136.039 116.156 135.824C116.52 135.6 116.8 135.292 116.996 134.9C117.201 134.508 117.304 134.051 117.304 133.528C117.304 133.005 117.201 132.548 116.996 132.156C116.8 131.764 116.52 131.461 116.156 131.246C115.801 131.022 115.39 130.91 114.924 130.91C114.466 130.91 114.056 131.022 113.692 131.246C113.337 131.461 113.057 131.764 112.852 132.156C112.656 132.548 112.558 133.005 112.558 133.528C112.558 134.051 112.656 134.508 112.852 134.9C113.057 135.292 113.337 135.6 113.692 135.824C114.056 136.039 114.466 136.146 114.924 136.146ZM124.144 137V126.92H125.32V132.982L128.162 130.056H129.604L126.524 133.192L129.996 137H128.498L125.32 133.402V137H124.144ZM133.815 137.168C133.152 137.168 132.564 137.019 132.051 136.72C131.537 136.412 131.131 135.987 130.833 135.446C130.543 134.905 130.399 134.265 130.399 133.528C130.399 132.8 130.543 132.165 130.833 131.624C131.122 131.073 131.523 130.649 132.037 130.35C132.559 130.042 133.161 129.888 133.843 129.888C134.515 129.888 135.093 130.042 135.579 130.35C136.073 130.649 136.451 131.045 136.713 131.54C136.974 132.035 137.105 132.567 137.105 133.136C137.105 133.239 137.1 133.341 137.091 133.444C137.091 133.547 137.091 133.663 137.091 133.794H131.561C131.589 134.326 131.71 134.769 131.925 135.124C132.149 135.469 132.424 135.731 132.751 135.908C133.087 136.085 133.441 136.174 133.815 136.174C134.3 136.174 134.706 136.062 135.033 135.838C135.359 135.614 135.597 135.311 135.747 134.928H136.909C136.722 135.572 136.363 136.109 135.831 136.538C135.308 136.958 134.636 137.168 133.815 137.168ZM133.815 130.882C133.255 130.882 132.755 131.055 132.317 131.4C131.887 131.736 131.64 132.231 131.575 132.884H135.943C135.915 132.259 135.7 131.769 135.299 131.414C134.897 131.059 134.403 130.882 133.815 130.882ZM139.146 140.08L140.868 136.328H140.462L137.704 130.056H138.978L141.274 135.46L143.71 130.056H144.928L140.378 140.08H139.146ZM152.408 137.168C151.587 137.168 150.934 136.921 150.448 136.426C149.963 135.922 149.72 135.152 149.72 134.116V130.056H150.896V133.99C150.896 135.437 151.489 136.16 152.674 136.16C153.281 136.16 153.78 135.945 154.172 135.516C154.574 135.077 154.774 134.457 154.774 133.654V130.056H155.95V137H154.886L154.802 135.754C154.588 136.193 154.266 136.538 153.836 136.79C153.416 137.042 152.94 137.168 152.408 137.168ZM157.886 140.08V130.056H158.95L159.062 131.204C159.286 130.868 159.603 130.565 160.014 130.294C160.434 130.023 160.966 129.888 161.61 129.888C162.301 129.888 162.903 130.047 163.416 130.364C163.929 130.681 164.326 131.115 164.606 131.666C164.895 132.217 165.04 132.842 165.04 133.542C165.04 134.242 164.895 134.867 164.606 135.418C164.326 135.959 163.925 136.389 163.402 136.706C162.889 137.014 162.287 137.168 161.596 137.168C161.027 137.168 160.518 137.051 160.07 136.818C159.631 136.585 159.295 136.258 159.062 135.838V140.08H157.886ZM161.47 136.146C161.937 136.146 162.347 136.039 162.702 135.824C163.057 135.6 163.337 135.292 163.542 134.9C163.747 134.508 163.85 134.051 163.85 133.528C163.85 133.005 163.747 132.548 163.542 132.156C163.337 131.764 163.057 131.461 162.702 131.246C162.347 131.022 161.937 130.91 161.47 130.91C161.003 130.91 160.593 131.022 160.238 131.246C159.883 131.461 159.603 131.764 159.398 132.156C159.193 132.548 159.09 133.005 159.09 133.528C159.09 134.051 159.193 134.508 159.398 134.9C159.603 135.292 159.883 135.6 160.238 135.824C160.593 136.039 161.003 136.146 161.47 136.146ZM169.827 137.168C169.136 137.168 168.53 137.009 168.007 136.692C167.494 136.375 167.092 135.941 166.803 135.39C166.523 134.839 166.383 134.214 166.383 133.514C166.383 132.814 166.528 132.193 166.817 131.652C167.106 131.101 167.508 130.672 168.021 130.364C168.534 130.047 169.141 129.888 169.841 129.888C170.41 129.888 170.914 130.005 171.353 130.238C171.792 130.471 172.132 130.798 172.375 131.218V126.92H173.551V137H172.487L172.375 135.852C172.151 136.188 171.829 136.491 171.409 136.762C170.989 137.033 170.462 137.168 169.827 137.168ZM169.953 136.146C170.42 136.146 170.83 136.039 171.185 135.824C171.549 135.6 171.829 135.292 172.025 134.9C172.23 134.508 172.333 134.051 172.333 133.528C172.333 133.005 172.23 132.548 172.025 132.156C171.829 131.764 171.549 131.461 171.185 131.246C170.83 131.022 170.42 130.91 169.953 130.91C169.496 130.91 169.085 131.022 168.721 131.246C168.366 131.461 168.086 131.764 167.881 132.156C167.685 132.548 167.587 133.005 167.587 133.528C167.587 134.051 167.685 134.508 167.881 134.9C168.086 135.292 168.366 135.6 168.721 135.824C169.085 136.039 169.496 136.146 169.953 136.146ZM177.778 137.168C177.199 137.168 176.719 137.07 176.336 136.874C175.953 136.678 175.669 136.417 175.482 136.09C175.295 135.763 175.202 135.409 175.202 135.026C175.202 134.317 175.473 133.771 176.014 133.388C176.555 133.005 177.293 132.814 178.226 132.814H180.102V132.73C180.102 132.123 179.943 131.666 179.626 131.358C179.309 131.041 178.884 130.882 178.352 130.882C177.895 130.882 177.498 130.999 177.162 131.232C176.835 131.456 176.63 131.787 176.546 132.226H175.342C175.389 131.722 175.557 131.297 175.846 130.952C176.145 130.607 176.513 130.345 176.952 130.168C177.391 129.981 177.857 129.888 178.352 129.888C179.323 129.888 180.051 130.149 180.536 130.672C181.031 131.185 181.278 131.871 181.278 132.73V137H180.228L180.158 135.754C179.962 136.146 179.673 136.482 179.29 136.762C178.917 137.033 178.413 137.168 177.778 137.168ZM177.96 136.174C178.408 136.174 178.791 136.057 179.108 135.824C179.435 135.591 179.682 135.287 179.85 134.914C180.018 134.541 180.102 134.149 180.102 133.738V133.724H178.324C177.633 133.724 177.143 133.845 176.854 134.088C176.574 134.321 176.434 134.615 176.434 134.97C176.434 135.334 176.565 135.628 176.826 135.852C177.097 136.067 177.475 136.174 177.96 136.174ZM185.595 137C184.96 137 184.461 136.846 184.097 136.538C183.733 136.23 183.551 135.675 183.551 134.872V131.05H182.347V130.056H183.551L183.705 128.39H184.727V130.056H186.771V131.05H184.727V134.872C184.727 135.311 184.815 135.609 184.993 135.768C185.17 135.917 185.483 135.992 185.931 135.992H186.659V137H185.595ZM191.195 137.168C190.533 137.168 189.945 137.019 189.431 136.72C188.918 136.412 188.512 135.987 188.213 135.446C187.924 134.905 187.779 134.265 187.779 133.528C187.779 132.8 187.924 132.165 188.213 131.624C188.503 131.073 188.904 130.649 189.417 130.35C189.94 130.042 190.542 129.888 191.223 129.888C191.895 129.888 192.474 130.042 192.959 130.35C193.454 130.649 193.832 131.045 194.093 131.54C194.355 132.035 194.485 132.567 194.485 133.136C194.485 133.239 194.481 133.341 194.471 133.444C194.471 133.547 194.471 133.663 194.471 133.794H188.941C188.969 134.326 189.091 134.769 189.305 135.124C189.529 135.469 189.805 135.731 190.131 135.908C190.467 136.085 190.822 136.174 191.195 136.174C191.681 136.174 192.087 136.062 192.413 135.838C192.74 135.614 192.978 135.311 193.127 134.928H194.289C194.103 135.572 193.743 136.109 193.211 136.538C192.689 136.958 192.017 137.168 191.195 137.168ZM191.195 130.882C190.635 130.882 190.136 131.055 189.697 131.4C189.268 131.736 189.021 132.231 188.955 132.884H193.323C193.295 132.259 193.081 131.769 192.679 131.414C192.278 131.059 191.783 130.882 191.195 130.882ZM198.704 137.168C197.873 137.168 197.183 136.958 196.632 136.538C196.081 136.118 195.759 135.549 195.666 134.83H196.87C196.945 135.194 197.136 135.511 197.444 135.782C197.761 136.043 198.186 136.174 198.718 136.174C199.213 136.174 199.577 136.071 199.81 135.866C200.043 135.651 200.16 135.399 200.16 135.11C200.16 134.69 200.006 134.41 199.698 134.27C199.399 134.13 198.975 134.004 198.424 133.892C198.051 133.817 197.677 133.71 197.304 133.57C196.931 133.43 196.618 133.234 196.366 132.982C196.114 132.721 195.988 132.38 195.988 131.96C195.988 131.353 196.212 130.859 196.66 130.476C197.117 130.084 197.733 129.888 198.508 129.888C199.245 129.888 199.847 130.075 200.314 130.448C200.79 130.812 201.065 131.335 201.14 132.016H199.978C199.931 131.661 199.777 131.386 199.516 131.19C199.264 130.985 198.923 130.882 198.494 130.882C198.074 130.882 197.747 130.971 197.514 131.148C197.29 131.325 197.178 131.559 197.178 131.848C197.178 132.128 197.323 132.347 197.612 132.506C197.911 132.665 198.312 132.8 198.816 132.912C199.245 133.005 199.651 133.122 200.034 133.262C200.426 133.393 200.743 133.593 200.986 133.864C201.238 134.125 201.364 134.508 201.364 135.012C201.373 135.637 201.135 136.155 200.65 136.566C200.174 136.967 199.525 137.168 198.704 137.168ZM207.127 137V131.05H206.077V130.056H207.127V128.852C207.127 128.18 207.295 127.69 207.631 127.382C207.967 127.074 208.457 126.92 209.101 126.92H209.801V127.928H209.283C208.929 127.928 208.677 128.003 208.527 128.152C208.378 128.292 208.303 128.535 208.303 128.88V130.056H210.011V131.05H208.303V137H207.127ZM214.302 137.168C213.649 137.168 213.061 137.019 212.538 136.72C212.015 136.421 211.6 136.001 211.292 135.46C210.993 134.909 210.844 134.265 210.844 133.528C210.844 132.791 210.998 132.151 211.306 131.61C211.614 131.059 212.029 130.635 212.552 130.336C213.084 130.037 213.677 129.888 214.33 129.888C214.983 129.888 215.571 130.037 216.094 130.336C216.617 130.635 217.027 131.059 217.326 131.61C217.634 132.151 217.788 132.791 217.788 133.528C217.788 134.265 217.634 134.909 217.326 135.46C217.018 136.001 216.598 136.421 216.066 136.72C215.543 137.019 214.955 137.168 214.302 137.168ZM214.302 136.16C214.703 136.16 215.077 136.062 215.422 135.866C215.767 135.67 216.047 135.376 216.262 134.984C216.477 134.592 216.584 134.107 216.584 133.528C216.584 132.949 216.477 132.464 216.262 132.072C216.057 131.68 215.781 131.386 215.436 131.19C215.091 130.994 214.722 130.896 214.33 130.896C213.929 130.896 213.555 130.994 213.21 131.19C212.865 131.386 212.585 131.68 212.37 132.072C212.155 132.464 212.048 132.949 212.048 133.528C212.048 134.107 212.155 134.592 212.37 134.984C212.585 135.376 212.86 135.67 213.196 135.866C213.541 136.062 213.91 136.16 214.302 136.16ZM219.423 137V130.056H220.487L220.585 131.386C220.8 130.929 221.126 130.565 221.565 130.294C222.004 130.023 222.545 129.888 223.189 129.888V131.12H222.867C222.456 131.12 222.078 131.195 221.733 131.344C221.388 131.484 221.112 131.727 220.907 132.072C220.702 132.417 220.599 132.893 220.599 133.5V137H219.423ZM228.97 140.08L230.692 136.328H230.286L227.528 130.056H228.802L231.098 135.46L233.534 130.056H234.752L230.202 140.08H228.97ZM238.501 137.168C237.848 137.168 237.26 137.019 236.737 136.72C236.214 136.421 235.799 136.001 235.491 135.46C235.192 134.909 235.043 134.265 235.043 133.528C235.043 132.791 235.197 132.151 235.505 131.61C235.813 131.059 236.228 130.635 236.751 130.336C237.283 130.037 237.876 129.888 238.529 129.888C239.182 129.888 239.77 130.037 240.293 130.336C240.816 130.635 241.226 131.059 241.525 131.61C241.833 132.151 241.987 132.791 241.987 133.528C241.987 134.265 241.833 134.909 241.525 135.46C241.217 136.001 240.797 136.421 240.265 136.72C239.742 137.019 239.154 137.168 238.501 137.168ZM238.501 136.16C238.902 136.16 239.276 136.062 239.621 135.866C239.966 135.67 240.246 135.376 240.461 134.984C240.676 134.592 240.783 134.107 240.783 133.528C240.783 132.949 240.676 132.464 240.461 132.072C240.256 131.68 239.98 131.386 239.635 131.19C239.29 130.994 238.921 130.896 238.529 130.896C238.128 130.896 237.754 130.994 237.409 131.19C237.064 131.386 236.784 131.68 236.569 132.072C236.354 132.464 236.247 132.949 236.247 133.528C236.247 134.107 236.354 134.592 236.569 134.984C236.784 135.376 237.059 135.67 237.395 135.866C237.74 136.062 238.109 136.16 238.501 136.16ZM246.156 137.168C245.335 137.168 244.682 136.921 244.196 136.426C243.711 135.922 243.468 135.152 243.468 134.116V130.056H244.644V133.99C244.644 135.437 245.237 136.16 246.422 136.16C247.029 136.16 247.528 135.945 247.92 135.516C248.322 135.077 248.522 134.457 248.522 133.654V130.056H249.698V137H248.634L248.55 135.754C248.336 136.193 248.014 136.538 247.584 136.79C247.164 137.042 246.688 137.168 246.156 137.168ZM251.634 137V130.056H252.698L252.796 131.386C253.011 130.929 253.337 130.565 253.776 130.294C254.215 130.023 254.756 129.888 255.4 129.888V131.12H255.078C254.667 131.12 254.289 131.195 253.944 131.344C253.599 131.484 253.323 131.727 253.118 132.072C252.913 132.417 252.81 132.893 252.81 133.5V137H251.634ZM260.425 137V126.92H261.601V131.246C261.834 130.817 262.166 130.485 262.595 130.252C263.024 130.009 263.491 129.888 263.995 129.888C264.798 129.888 265.442 130.14 265.927 130.644C266.412 131.139 266.655 131.904 266.655 132.94V137H265.493V133.066C265.493 131.619 264.91 130.896 263.743 130.896C263.136 130.896 262.628 131.115 262.217 131.554C261.806 131.983 261.601 132.599 261.601 133.402V137H260.425ZM271.601 137.168C270.947 137.168 270.359 137.019 269.837 136.72C269.314 136.421 268.899 136.001 268.591 135.46C268.292 134.909 268.143 134.265 268.143 133.528C268.143 132.791 268.297 132.151 268.605 131.61C268.913 131.059 269.328 130.635 269.851 130.336C270.383 130.037 270.975 129.888 271.629 129.888C272.282 129.888 272.87 130.037 273.393 130.336C273.915 130.635 274.326 131.059 274.625 131.61C274.933 132.151 275.087 132.791 275.087 133.528C275.087 134.265 274.933 134.909 274.625 135.46C274.317 136.001 273.897 136.421 273.365 136.72C272.842 137.019 272.254 137.168 271.601 137.168ZM271.601 136.16C272.002 136.16 272.375 136.062 272.721 135.866C273.066 135.67 273.346 135.376 273.561 134.984C273.775 134.592 273.883 134.107 273.883 133.528C273.883 132.949 273.775 132.464 273.561 132.072C273.355 131.68 273.08 131.386 272.735 131.19C272.389 130.994 272.021 130.896 271.629 130.896C271.227 130.896 270.854 130.994 270.509 131.19C270.163 131.386 269.883 131.68 269.669 132.072C269.454 132.464 269.347 132.949 269.347 133.528C269.347 134.107 269.454 134.592 269.669 134.984C269.883 135.376 270.159 135.67 270.495 135.866C270.84 136.062 271.209 136.16 271.601 136.16ZM276.722 137V126.92H277.898V137H276.722ZM282.975 137.168C282.285 137.168 281.678 137.009 281.155 136.692C280.642 136.375 280.241 135.941 279.951 135.39C279.671 134.839 279.531 134.214 279.531 133.514C279.531 132.814 279.676 132.193 279.965 131.652C280.255 131.101 280.656 130.672 281.169 130.364C281.683 130.047 282.289 129.888 282.989 129.888C283.559 129.888 284.063 130.005 284.501 130.238C284.94 130.471 285.281 130.798 285.523 131.218V126.92H286.699V137H285.635L285.523 135.852C285.299 136.188 284.977 136.491 284.557 136.762C284.137 137.033 283.61 137.168 282.975 137.168ZM283.101 136.146C283.568 136.146 283.979 136.039 284.333 135.824C284.697 135.6 284.977 135.292 285.173 134.9C285.379 134.508 285.481 134.051 285.481 133.528C285.481 133.005 285.379 132.548 285.173 132.156C284.977 131.764 284.697 131.461 284.333 131.246C283.979 131.022 283.568 130.91 283.101 130.91C282.644 130.91 282.233 131.022 281.869 131.246C281.515 131.461 281.235 131.764 281.029 132.156C280.833 132.548 280.735 133.005 280.735 133.528C280.735 134.051 280.833 134.508 281.029 134.9C281.235 135.292 281.515 135.6 281.869 135.824C282.233 136.039 282.644 136.146 283.101 136.146ZM289.33 128.516C289.097 128.516 288.901 128.441 288.742 128.292C288.593 128.133 288.518 127.937 288.518 127.704C288.518 127.48 288.593 127.293 288.742 127.144C288.901 126.995 289.097 126.92 289.33 126.92C289.554 126.92 289.746 126.995 289.904 127.144C290.063 127.293 290.142 127.48 290.142 127.704C290.142 127.937 290.063 128.133 289.904 128.292C289.746 128.441 289.554 128.516 289.33 128.516ZM288.742 137V130.056H289.918V137H288.742ZM291.966 137V130.056H293.03L293.1 131.302C293.324 130.863 293.646 130.518 294.066 130.266C294.486 130.014 294.962 129.888 295.494 129.888C296.315 129.888 296.969 130.14 297.454 130.644C297.949 131.139 298.196 131.904 298.196 132.94V137H297.02V133.066C297.02 131.619 296.423 130.896 295.228 130.896C294.631 130.896 294.131 131.115 293.73 131.554C293.338 131.983 293.142 132.599 293.142 133.402V137H291.966ZM302.722 134.816C302.33 134.816 301.97 134.765 301.644 134.662L300.944 135.32C301.046 135.395 301.172 135.46 301.322 135.516C301.48 135.563 301.704 135.609 301.994 135.656C302.283 135.693 302.689 135.735 303.212 135.782C304.145 135.847 304.812 136.062 305.214 136.426C305.615 136.79 305.816 137.266 305.816 137.854C305.816 138.255 305.704 138.638 305.48 139.002C305.265 139.366 304.929 139.665 304.472 139.898C304.024 140.131 303.445 140.248 302.736 140.248C302.11 140.248 301.555 140.164 301.07 139.996C300.584 139.837 300.206 139.59 299.936 139.254C299.665 138.927 299.53 138.512 299.53 138.008C299.53 137.747 299.6 137.462 299.74 137.154C299.88 136.855 300.141 136.571 300.524 136.3C300.318 136.216 300.141 136.127 299.992 136.034C299.852 135.931 299.721 135.819 299.6 135.698V135.376L300.79 134.2C300.239 133.733 299.964 133.117 299.964 132.352C299.964 131.895 300.071 131.479 300.286 131.106C300.5 130.733 300.813 130.439 301.224 130.224C301.634 130 302.134 129.888 302.722 129.888C303.123 129.888 303.487 129.944 303.814 130.056H306.376V130.938L305.074 130.994C305.344 131.386 305.48 131.839 305.48 132.352C305.48 132.809 305.368 133.225 305.144 133.598C304.929 133.971 304.616 134.27 304.206 134.494C303.804 134.709 303.31 134.816 302.722 134.816ZM302.722 133.85C303.216 133.85 303.608 133.724 303.898 133.472C304.196 133.211 304.346 132.837 304.346 132.352C304.346 131.876 304.196 131.512 303.898 131.26C303.608 130.999 303.216 130.868 302.722 130.868C302.218 130.868 301.816 130.999 301.518 131.26C301.228 131.512 301.084 131.876 301.084 132.352C301.084 132.837 301.228 133.211 301.518 133.472C301.816 133.724 302.218 133.85 302.722 133.85ZM300.678 137.896C300.678 138.363 300.874 138.708 301.266 138.932C301.658 139.165 302.148 139.282 302.736 139.282C303.314 139.282 303.776 139.156 304.122 138.904C304.476 138.652 304.654 138.316 304.654 137.896C304.654 137.597 304.532 137.336 304.29 137.112C304.047 136.897 303.599 136.771 302.946 136.734C302.432 136.697 301.989 136.65 301.616 136.594C301.233 136.799 300.981 137.019 300.86 137.252C300.738 137.495 300.678 137.709 300.678 137.896ZM310.362 137.168C309.532 137.168 308.841 136.958 308.29 136.538C307.74 136.118 307.418 135.549 307.324 134.83H308.528C308.603 135.194 308.794 135.511 309.102 135.782C309.42 136.043 309.844 136.174 310.376 136.174C310.871 136.174 311.235 136.071 311.468 135.866C311.702 135.651 311.818 135.399 311.818 135.11C311.818 134.69 311.664 134.41 311.356 134.27C311.058 134.13 310.633 134.004 310.082 133.892C309.709 133.817 309.336 133.71 308.962 133.57C308.589 133.43 308.276 133.234 308.024 132.982C307.772 132.721 307.646 132.38 307.646 131.96C307.646 131.353 307.87 130.859 308.318 130.476C308.776 130.084 309.392 129.888 310.166 129.888C310.904 129.888 311.506 130.075 311.972 130.448C312.448 130.812 312.724 131.335 312.798 132.016H311.636C311.59 131.661 311.436 131.386 311.174 131.19C310.922 130.985 310.582 130.882 310.152 130.882C309.732 130.882 309.406 130.971 309.172 131.148C308.948 131.325 308.836 131.559 308.836 131.848C308.836 132.128 308.981 132.347 309.27 132.506C309.569 132.665 309.97 132.8 310.474 132.912C310.904 133.005 311.31 133.122 311.692 133.262C312.084 133.393 312.402 133.593 312.644 133.864C312.896 134.125 313.022 134.508 313.022 135.012C313.032 135.637 312.794 136.155 312.308 136.566C311.832 136.967 311.184 137.168 310.362 137.168ZM315.108 137.07C314.875 137.07 314.679 136.995 314.52 136.846C314.371 136.687 314.296 136.496 314.296 136.272C314.296 136.048 314.371 135.861 314.52 135.712C314.679 135.553 314.875 135.474 315.108 135.474C315.332 135.474 315.519 135.553 315.668 135.712C315.827 135.861 315.906 136.048 315.906 136.272C315.906 136.496 315.827 136.687 315.668 136.846C315.519 136.995 315.332 137.07 315.108 137.07Z" fill="#6B7280"/>
</svg>
