<svg width="73" height="73" viewBox="0 0 73 73" fill="none" xmlns="http://www.w3.org/2000/svg">
<path d="M12.4435 10.8503C18.6128 4.82792 26.9854 1.74328 35.358 1.00884C48.2841 0.715064 61.0633 7.76567 67.5264 18.9291C59.0069 26.7142 50.9281 34.6461 42.8492 42.578C35.5049 40.2278 28.3074 37.2901 21.1099 34.6461C14.9406 38.759 8.62442 42.7249 2.45514 46.6909C-1.51083 34.0586 2.8958 19.6636 12.4435 10.8503Z" fill="#5367FF" stroke="#5367FF" stroke-width="0.125"/>
<path d="M67.5264 18.9291C68.5546 21.1324 69.4359 23.3358 70.4641 25.5391C60.7695 32.2959 54.1596 42.8718 43.8775 49.0411C36.5331 48.1598 30.2169 43.0187 22.7256 42.1374C16.4095 45.222 11.1215 49.9224 4.51157 52.2726C3.77713 50.51 3.04269 48.6004 2.45514 46.6909C8.62442 42.7249 14.9406 38.759 21.1099 34.6461C28.3074 37.2901 35.5049 40.2278 42.8492 42.578C50.9281 34.6461 59.0069 26.7142 67.5264 18.9291Z" fill="#00FFC4" stroke="#00FFC4" stroke-width="0.125"/>
<path d="M43.8774 49.0411C54.1596 42.8718 60.7695 32.2959 70.4641 25.5391C71.0516 28.0362 71.4923 30.5333 72.0798 33.1773C63.4135 39.1996 55.9222 46.8378 48.4309 54.1822C47.1089 55.2104 45.787 56.6793 44.0243 57.1199C36.533 56.6793 30.2169 51.3913 22.7256 50.8038C17.5845 52.7133 13.3248 56.3855 8.77128 59.1764C7.3024 56.973 5.83352 54.6228 4.51154 52.2726C11.1215 49.9224 16.4094 45.222 22.7256 42.1374C30.2169 43.0187 36.533 48.1598 43.8774 49.0411Z" fill="#00EBB4" stroke="#00EBB4" stroke-width="0.125"/>
<path d="M48.431 54.1822C55.9222 46.8378 63.4135 39.1996 72.0799 33.1772C72.2268 36.115 72.0799 39.0527 71.933 41.9905C64.1479 47.4253 57.0973 53.7415 50.6343 60.7921C48.5778 62.7016 46.6683 65.0518 44.0243 65.9332C36.8268 65.3456 30.8044 60.6452 23.7538 59.4701C19.9348 60.2046 16.7032 62.261 13.3248 64.0236C11.8559 62.4079 10.2402 60.7921 8.7713 59.1763C13.3248 56.3855 17.5846 52.7133 22.7256 50.8037C30.2169 51.3913 36.5331 56.6793 44.0243 57.1199C45.787 56.6793 47.109 55.2104 48.431 54.1822Z" fill="#00D8A5" stroke="#00D8A5" stroke-width="0.125"/>
<path d="M50.6342 60.7921C57.0973 53.7415 64.1479 47.4253 71.9329 41.9905C69.7296 59.0294 54.0126 72.69 36.8268 72.69C28.3073 72.69 19.9347 69.3116 13.3248 64.0236C16.7032 62.261 19.9347 60.2045 23.7538 59.4701C30.8044 60.6452 36.8268 65.3456 44.0243 65.9332C46.6683 65.0518 48.5778 62.7016 50.6342 60.7921Z" fill="#00C798" stroke="#00C798" stroke-width="0.125"/>
</svg>
