<svg version="1.1" xmlns="http://www.w3.org/2000/svg" xmlns:xlink="http://www.w3.org/1999/xlink" viewBox="0 0 226 226">
	<g fill="none" fill-rule="nonzero" stroke="none" stroke-width="1" stroke-linecap="butt" stroke-linejoin="miter" stroke-miterlimit="10" stroke-dasharray="" stroke-dashoffset="0" font-family="none" font-weight="none" font-size="none" text-anchor="none" style="mix-blend-mode: normal">
		<path d="M0,226v-226h226v226z" fill="none">
		</path>
		<g fill="#FF8D247a">
			<path d="M188.33333,142.57775v-86.07775c0,-15.60342 -12.64658,-28.25 -28.25,-28.25h-94.16667c-15.60342,0 -28.25,12.64658 -28.25,28.25v122.41667c0,15.60342 12.64658,28.25 28.25,28.25h88.32833c6.61992,5.79125 15.18908,9.41667 24.67167,9.41667c20.80142,0 37.66667,-16.86525 37.66667,-37.66667c0,-17.53383 -12.0345,-32.13908 -28.25,-36.33892z" opacity="0.35">
			</path>
			<path d="M131.83333,9.41667h-37.66667c-10.40542,0 -18.83333,8.42792 -18.83333,18.83333c0,10.40542 8.42792,18.83333 18.83333,18.83333h37.66667c10.40542,0 18.83333,-8.42792 18.83333,-18.83333c0,-10.40542 -8.42792,-18.83333 -18.83333,-18.83333z">
			</path>
			<path d="M212.214,145.61933c-18.38133,-18.38133 -48.20392,-18.38133 -66.58525,0c-18.38133,18.38133 -18.38133,48.20392 0,66.58525c18.38133,18.38133 48.20392,18.38133 66.58525,0c18.38133,-18.38133 18.37192,-48.20392 0,-66.58525zM188.90775,202.22292l-9.99108,-9.99108l-9.99108,9.99108c-3.66308,3.66308 -9.65208,3.66308 -13.31517,0c-3.66308,-3.66308 -3.66308,-9.65208 0,-13.31517l9.99108,-9.99108l-9.99108,-9.99108c-3.66308,-3.66308 -3.66308,-9.65208 0,-13.31517c3.66308,-3.66308 9.65208,-3.66308 13.31517,0l9.99108,9.99108l9.99108,-9.99108c3.66308,-3.66308 9.65208,-3.66308 13.31517,0c3.66308,3.66308 3.66308,9.65208 0,13.31517l-9.99108,9.99108l9.99108,9.99108c3.66308,3.66308 3.66308,9.65208 0,13.31517c-3.66308,3.66308 -9.65208,3.66308 -13.31517,0z">
			</path>
			<path d="M150.66667,84.75h-75.33333c-5.198,0 -9.41667,-4.21867 -9.41667,-9.41667v0c0,-5.198 4.21867,-9.41667 9.41667,-9.41667h75.33333c5.198,0 9.41667,4.21867 9.41667,9.41667v0c0,5.198 -4.21867,9.41667 -9.41667,9.41667z">
			</path>
			<path d="M150.66667,122.41667h-75.33333c-5.198,0 -9.41667,-4.21867 -9.41667,-9.41667v0c0,-5.198 4.21867,-9.41667 9.41667,-9.41667h75.33333c5.198,0 9.41667,4.21867 9.41667,9.41667v0c0,5.198 -4.21867,9.41667 -9.41667,9.41667z">
			</path>
			<path d="M103.58333,160.08333h-28.25c-5.198,0 -9.41667,-4.21867 -9.41667,-9.41667v0c0,-5.198 4.21867,-9.41667 9.41667,-9.41667h28.25c5.198,0 9.41667,4.21867 9.41667,9.41667v0c0,5.198 -4.21867,9.41667 -9.41667,9.41667z">
			</path>
		</g>
	</g>
</svg>
