<svg width="20" height="21" viewBox="0 0 20 21" fill="none" xmlns="http://www.w3.org/2000/svg">
<path d="M15.8333 10.1666V7.66665C15.8333 6.11955 15.2187 4.63582 14.1248 3.54186C13.0308 2.44789 11.5471 1.83331 9.99999 1.83331C8.45289 1.83331 6.96916 2.44789 5.8752 3.54186C4.78124 4.63582 4.16666 6.11955 4.16666 7.66665V10.1666C4.16666 12.9166 1.66666 13.5833 1.66666 15.1666C1.66666 16.5833 4.91666 17.6666 9.99999 17.6666C15.0833 17.6666 18.3333 16.5833 18.3333 15.1666C18.3333 13.5833 15.8333 12.9166 15.8333 10.1666Z" stroke="#797E8A" stroke-width="2" stroke-miterlimit="10" stroke-linecap="square"/>
<path d="M9.99992 18.381C8.80331 18.381 7.67889 18.3364 6.62076 18.2499C6.84634 19.0465 7.29576 19.7426 7.90356 20.2368C8.51135 20.7309 9.24579 20.9974 9.99992 20.9974C10.7541 20.9974 11.4885 20.7309 12.0963 20.2368C12.7041 19.7426 13.1535 19.0465 13.3791 18.2499C12.321 18.3364 11.1965 18.381 9.99992 18.381Z" fill="#797E8A"/>
</svg>
