<svg width="20" height="21" viewBox="0 0 20 21" fill="none" xmlns="http://www.w3.org/2000/svg">
<path d="M15.8331 10.1666V7.66665C15.8331 6.11955 15.2185 4.63582 14.1246 3.54186C13.0306 2.44789 11.5469 1.83331 9.99983 1.83331C8.45273 1.83331 6.969 2.44789 5.87504 3.54186C4.78108 4.63582 4.1665 6.11955 4.1665 7.66665V10.1666C4.1665 12.9166 1.6665 13.5833 1.6665 15.1666C1.6665 16.5833 4.9165 17.6666 9.99983 17.6666C15.0831 17.6666 18.3331 16.5833 18.3331 15.1666C18.3331 13.5833 15.8331 12.9166 15.8331 10.1666Z" stroke="#FF8D24" stroke-width="2" stroke-miterlimit="10" stroke-linecap="square"/>
<path d="M9.99977 18.381C8.80316 18.381 7.67874 18.3364 6.62061 18.2499C6.84619 19.0465 7.29561 19.7426 7.90341 20.2368C8.5112 20.7309 9.24564 20.9974 9.99977 20.9974C10.7539 20.9974 11.4883 20.7309 12.0961 20.2368C12.7039 19.7426 13.1533 19.0465 13.3789 18.2499C12.3208 18.3364 11.1963 18.381 9.99977 18.381Z" fill="#FF8D24"/>
</svg>
