<svg width="20" height="20" viewBox="0 0 20 20" fill="none" xmlns="http://www.w3.org/2000/svg">
<path d="M1.66666 6.66663H18.3333" stroke="#797E8A" stroke-width="2" stroke-miterlimit="10"/>
<path d="M1.66666 12.5H18.3333" stroke="#797E8A" stroke-width="2" stroke-miterlimit="10"/>
<path d="M6.66666 1.66663V18.3333" stroke="#797E8A" stroke-width="2" stroke-miterlimit="10"/>
<path d="M16.6667 18.3333H3.33332C2.8913 18.3333 2.46737 18.1577 2.15481 17.8451C1.84225 17.5326 1.66666 17.1087 1.66666 16.6666V3.33329C1.66666 2.89127 1.84225 2.46734 2.15481 2.15478C2.46737 1.84222 2.8913 1.66663 3.33332 1.66663H16.6667C17.1087 1.66663 17.5326 1.84222 17.8452 2.15478C18.1577 2.46734 18.3333 2.89127 18.3333 3.33329V16.6666C18.3333 17.1087 18.1577 17.5326 17.8452 17.8451C17.5326 18.1577 17.1087 18.3333 16.6667 18.3333Z" stroke="#797E8A" stroke-width="2" stroke-miterlimit="10" stroke-linecap="square"/>
</svg>
