<svg width="20" height="22" viewBox="0 0 20 22" fill="none" xmlns="http://www.w3.org/2000/svg">
<path d="M10 13.5C11.3807 13.5 12.5 12.3807 12.5 11C12.5 9.61929 11.3807 8.5 10 8.5C8.61929 8.5 7.5 9.61929 7.5 11C7.5 12.3807 8.61929 13.5 10 13.5Z" stroke="#FF8D24" stroke-width="2" stroke-miterlimit="10" stroke-linecap="square" stroke-linejoin="round"/>
<path d="M16.6669 11C16.6659 10.5199 16.6134 10.0413 16.5102 9.57248L18.7719 7.85998L17.1052 4.97331L14.486 6.07831C13.7768 5.42806 12.9349 4.93933 12.0185 4.64581L11.6669 1.83331H8.33352L7.98186 4.64581C7.06548 4.93933 6.22364 5.42806 5.51436 6.07831L2.89519 4.97331L1.22852 7.85998L3.49019 9.57248C3.28135 10.5127 3.28135 11.4873 3.49019 12.4275L1.22852 14.14L2.89519 17.0266L5.51436 15.9216C6.22364 16.5719 7.06548 17.0606 7.98186 17.3541L8.33352 20.1666H11.6669L12.0185 17.3541C12.9349 17.0606 13.7768 16.5719 14.486 15.9216L17.1052 17.0266L18.7719 14.14L16.5102 12.4275C16.6134 11.9586 16.6659 11.48 16.6669 11Z" stroke="#FF8D24" stroke-width="2" stroke-miterlimit="10" stroke-linecap="square" stroke-linejoin="round"/>
</svg>
