<svg width="20" height="22" viewBox="0 0 20 22" fill="none" xmlns="http://www.w3.org/2000/svg">
<path d="M10 13.5C11.3807 13.5 12.5 12.3807 12.5 11C12.5 9.61929 11.3807 8.5 10 8.5C8.61929 8.5 7.5 9.61929 7.5 11C7.5 12.3807 8.61929 13.5 10 13.5Z" stroke="#797E8A" stroke-width="2" stroke-miterlimit="10" stroke-linecap="square" stroke-linejoin="round"/>
<path d="M16.6667 11C16.6657 10.5199 16.6132 10.0413 16.51 9.57248L18.7717 7.85998L17.105 4.97331L14.4858 6.07831C13.7766 5.42806 12.9347 4.93933 12.0183 4.64581L11.6667 1.83331H8.33333L7.98167 4.64581C7.06529 4.93933 6.22345 5.42806 5.51417 6.07831L2.895 4.97331L1.22833 7.85998L3.49 9.57248C3.28116 10.5127 3.28116 11.4873 3.49 12.4275L1.22833 14.14L2.895 17.0266L5.51417 15.9216C6.22345 16.5719 7.06529 17.0606 7.98167 17.3541L8.33333 20.1666H11.6667L12.0183 17.3541C12.9347 17.0606 13.7766 16.5719 14.4858 15.9216L17.105 17.0266L18.7717 14.14L16.51 12.4275C16.6132 11.9586 16.6657 11.48 16.6667 11V11Z" stroke="#797E8A" stroke-width="2" stroke-miterlimit="10" stroke-linecap="square" stroke-linejoin="round"/>
</svg>
