<svg width="580" height="200" viewBox="0 0 580 200" fill="none" xmlns="http://www.w3.org/2000/svg">
<path d="M81.0006 197V190H82.2506L84.6206 194.66L86.9806 190H88.2306V197H87.1706V191.83L85.0306 196H84.2106L82.0606 191.84V197H81.0006ZM91.093 197.12C90.673 197.12 90.3263 197.05 90.053 196.91C89.7796 196.77 89.5763 196.587 89.443 196.36C89.3096 196.127 89.243 195.873 89.243 195.6C89.243 195.12 89.4296 194.74 89.803 194.46C90.1763 194.18 90.7096 194.04 91.403 194.04H92.703V193.95C92.703 193.563 92.5963 193.273 92.383 193.08C92.1763 192.887 91.9063 192.79 91.573 192.79C91.2796 192.79 91.023 192.863 90.803 193.01C90.5896 193.15 90.4596 193.36 90.413 193.64H89.353C89.3863 193.28 89.5063 192.973 89.713 192.72C89.9263 192.46 90.193 192.263 90.513 192.13C90.8396 191.99 91.1963 191.92 91.583 191.92C92.2763 191.92 92.813 192.103 93.193 192.47C93.573 192.83 93.763 193.323 93.763 193.95V197H92.843L92.753 196.15C92.613 196.423 92.4096 196.653 92.143 196.84C91.8763 197.027 91.5263 197.12 91.093 197.12ZM91.303 196.26C91.5896 196.26 91.8296 196.193 92.023 196.06C92.223 195.92 92.3763 195.737 92.483 195.51C92.5963 195.283 92.6663 195.033 92.693 194.76H91.513C91.093 194.76 90.793 194.833 90.613 194.98C90.4396 195.127 90.353 195.31 90.353 195.53C90.353 195.757 90.4363 195.937 90.603 196.07C90.7763 196.197 91.0096 196.26 91.303 196.26ZM94.7989 197V192.04H95.7489L95.8389 192.98C96.0122 192.653 96.2522 192.397 96.5589 192.21C96.8722 192.017 97.2489 191.92 97.6889 191.92V193.03H97.3989C97.1056 193.03 96.8422 193.08 96.6089 193.18C96.3822 193.273 96.1989 193.437 96.0589 193.67C95.9256 193.897 95.8589 194.213 95.8589 194.62V197H94.7989ZM100.617 197V196.24C101.071 195.88 101.504 195.517 101.917 195.15C102.331 194.783 102.697 194.423 103.017 194.07C103.344 193.71 103.601 193.36 103.787 193.02C103.974 192.673 104.067 192.34 104.067 192.02C104.067 191.807 104.031 191.607 103.957 191.42C103.884 191.227 103.764 191.073 103.597 190.96C103.431 190.84 103.207 190.78 102.927 190.78C102.507 190.78 102.191 190.913 101.977 191.18C101.771 191.447 101.671 191.767 101.677 192.14H100.647C100.654 191.647 100.757 191.233 100.957 190.9C101.164 190.567 101.437 190.313 101.777 190.14C102.124 189.967 102.514 189.88 102.947 189.88C103.607 189.88 104.134 190.067 104.527 190.44C104.927 190.807 105.127 191.32 105.127 191.98C105.127 192.373 105.031 192.763 104.837 193.15C104.651 193.537 104.404 193.91 104.097 194.27C103.797 194.623 103.474 194.957 103.127 195.27C102.781 195.583 102.451 195.867 102.137 196.12H105.337V197H100.617ZM109.002 197.12C108.368 197.12 107.822 196.97 107.362 196.67C106.908 196.363 106.558 195.94 106.312 195.4C106.072 194.853 105.952 194.22 105.952 193.5C105.952 192.78 106.072 192.15 106.312 191.61C106.558 191.063 106.908 190.64 107.362 190.34C107.822 190.033 108.368 189.88 109.002 189.88C109.635 189.88 110.178 190.033 110.632 190.34C111.085 190.64 111.432 191.063 111.672 191.61C111.918 192.15 112.042 192.78 112.042 193.5C112.042 194.22 111.918 194.853 111.672 195.4C111.432 195.94 111.085 196.363 110.632 196.67C110.178 196.97 109.635 197.12 109.002 197.12ZM109.002 196.17C109.382 196.17 109.718 196.063 110.012 195.85C110.312 195.637 110.545 195.33 110.712 194.93C110.878 194.53 110.962 194.053 110.962 193.5C110.962 192.947 110.878 192.47 110.712 192.07C110.545 191.67 110.312 191.363 110.012 191.15C109.718 190.937 109.382 190.83 109.002 190.83C108.615 190.83 108.275 190.937 107.982 191.15C107.688 191.363 107.458 191.67 107.292 192.07C107.125 192.47 107.042 192.947 107.042 193.5C107.042 194.053 107.125 194.53 107.292 194.93C107.458 195.33 107.688 195.637 107.982 195.85C108.275 196.063 108.615 196.17 109.002 196.17ZM112.805 197V196.24C113.258 195.88 113.692 195.517 114.105 195.15C114.518 194.783 114.885 194.423 115.205 194.07C115.532 193.71 115.788 193.36 115.975 193.02C116.162 192.673 116.255 192.34 116.255 192.02C116.255 191.807 116.218 191.607 116.145 191.42C116.072 191.227 115.952 191.073 115.785 190.96C115.618 190.84 115.395 190.78 115.115 190.78C114.695 190.78 114.378 190.913 114.165 191.18C113.958 191.447 113.858 191.767 113.865 192.14H112.835C112.842 191.647 112.945 191.233 113.145 190.9C113.352 190.567 113.625 190.313 113.965 190.14C114.312 189.967 114.702 189.88 115.135 189.88C115.795 189.88 116.322 190.067 116.715 190.44C117.115 190.807 117.315 191.32 117.315 191.98C117.315 192.373 117.218 192.763 117.025 193.15C116.838 193.537 116.592 193.91 116.285 194.27C115.985 194.623 115.662 194.957 115.315 195.27C114.968 195.583 114.638 195.867 114.325 196.12H117.525V197H112.805ZM119.188 197V191.2L118.058 191.46V190.68L119.608 190H120.288V197H119.188Z" fill="#878B93"/>
<path d="M354.233 197.12C353.719 197.12 353.269 197.03 352.883 196.85C352.496 196.67 352.193 196.413 351.973 196.08C351.759 195.747 351.649 195.35 351.643 194.89H352.763C352.769 195.263 352.899 195.58 353.153 195.84C353.406 196.1 353.763 196.23 354.223 196.23C354.629 196.23 354.946 196.133 355.173 195.94C355.406 195.74 355.523 195.487 355.523 195.18C355.523 194.933 355.466 194.733 355.353 194.58C355.246 194.427 355.096 194.3 354.903 194.2C354.716 194.1 354.499 194.01 354.253 193.93C354.006 193.85 353.746 193.763 353.473 193.67C352.933 193.49 352.526 193.257 352.253 192.97C351.986 192.683 351.853 192.307 351.853 191.84C351.846 191.447 351.936 191.103 352.123 190.81C352.316 190.517 352.583 190.29 352.923 190.13C353.269 189.963 353.673 189.88 354.133 189.88C354.586 189.88 354.983 189.963 355.323 190.13C355.669 190.297 355.939 190.53 356.133 190.83C356.326 191.123 356.426 191.467 356.433 191.86H355.313C355.313 191.68 355.266 191.51 355.173 191.35C355.079 191.183 354.943 191.047 354.763 190.94C354.583 190.833 354.363 190.78 354.103 190.78C353.769 190.773 353.493 190.857 353.273 191.03C353.059 191.203 352.953 191.443 352.953 191.75C352.953 192.023 353.033 192.233 353.193 192.38C353.353 192.527 353.573 192.65 353.853 192.75C354.133 192.843 354.453 192.953 354.813 193.08C355.159 193.193 355.469 193.33 355.743 193.49C356.016 193.65 356.233 193.86 356.393 194.12C356.559 194.38 356.643 194.71 356.643 195.11C356.643 195.463 356.553 195.793 356.373 196.1C356.193 196.4 355.923 196.647 355.563 196.84C355.203 197.027 354.759 197.12 354.233 197.12ZM359.881 197.12C359.395 197.12 358.961 197.013 358.581 196.8C358.208 196.58 357.915 196.277 357.701 195.89C357.488 195.503 357.381 195.053 357.381 194.54C357.381 194.02 357.485 193.563 357.691 193.17C357.905 192.777 358.198 192.47 358.571 192.25C358.951 192.03 359.391 191.92 359.891 191.92C360.378 191.92 360.801 192.03 361.161 192.25C361.521 192.463 361.801 192.75 362.001 193.11C362.201 193.47 362.301 193.867 362.301 194.3C362.301 194.367 362.298 194.44 362.291 194.52C362.291 194.593 362.288 194.677 362.281 194.77H358.421C358.455 195.25 358.611 195.617 358.891 195.87C359.178 196.117 359.508 196.24 359.881 196.24C360.181 196.24 360.431 196.173 360.631 196.04C360.838 195.9 360.991 195.713 361.091 195.48H362.151C362.018 195.947 361.751 196.337 361.351 196.65C360.958 196.963 360.468 197.12 359.881 197.12ZM359.881 192.79C359.528 192.79 359.215 192.897 358.941 193.11C358.668 193.317 358.501 193.63 358.441 194.05H361.241C361.221 193.663 361.085 193.357 360.831 193.13C360.578 192.903 360.261 192.79 359.881 192.79ZM363.201 199.2V192.04H364.151L364.261 192.81C364.421 192.577 364.641 192.37 364.921 192.19C365.201 192.01 365.561 191.92 366.001 191.92C366.481 191.92 366.905 192.033 367.271 192.26C367.638 192.487 367.925 192.797 368.131 193.19C368.345 193.583 368.451 194.03 368.451 194.53C368.451 195.03 368.345 195.477 368.131 195.87C367.925 196.257 367.638 196.563 367.271 196.79C366.905 197.01 366.478 197.12 365.991 197.12C365.605 197.12 365.261 197.043 364.961 196.89C364.668 196.737 364.435 196.52 364.261 196.24V199.2H363.201ZM365.811 196.2C366.265 196.2 366.638 196.047 366.931 195.74C367.225 195.427 367.371 195.02 367.371 194.52C367.371 194.193 367.305 193.903 367.171 193.65C367.038 193.397 366.855 193.2 366.621 193.06C366.388 192.913 366.118 192.84 365.811 192.84C365.358 192.84 364.985 192.997 364.691 193.31C364.405 193.623 364.261 194.027 364.261 194.52C364.261 195.02 364.405 195.427 364.691 195.74C364.985 196.047 365.358 196.2 365.811 196.2ZM371.617 197V196.24C372.071 195.88 372.504 195.517 372.917 195.15C373.331 194.783 373.697 194.423 374.017 194.07C374.344 193.71 374.601 193.36 374.787 193.02C374.974 192.673 375.067 192.34 375.067 192.02C375.067 191.807 375.031 191.607 374.957 191.42C374.884 191.227 374.764 191.073 374.597 190.96C374.431 190.84 374.207 190.78 373.927 190.78C373.507 190.78 373.191 190.913 372.977 191.18C372.771 191.447 372.671 191.767 372.677 192.14H371.647C371.654 191.647 371.757 191.233 371.957 190.9C372.164 190.567 372.437 190.313 372.777 190.14C373.124 189.967 373.514 189.88 373.947 189.88C374.607 189.88 375.134 190.067 375.527 190.44C375.927 190.807 376.127 191.32 376.127 191.98C376.127 192.373 376.031 192.763 375.837 193.15C375.651 193.537 375.404 193.91 375.097 194.27C374.797 194.623 374.474 194.957 374.127 195.27C373.781 195.583 373.451 195.867 373.137 196.12H376.337V197H371.617ZM380.002 197.12C379.368 197.12 378.822 196.97 378.362 196.67C377.908 196.363 377.558 195.94 377.312 195.4C377.072 194.853 376.952 194.22 376.952 193.5C376.952 192.78 377.072 192.15 377.312 191.61C377.558 191.063 377.908 190.64 378.362 190.34C378.822 190.033 379.368 189.88 380.002 189.88C380.635 189.88 381.178 190.033 381.632 190.34C382.085 190.64 382.432 191.063 382.672 191.61C382.918 192.15 383.042 192.78 383.042 193.5C383.042 194.22 382.918 194.853 382.672 195.4C382.432 195.94 382.085 196.363 381.632 196.67C381.178 196.97 380.635 197.12 380.002 197.12ZM380.002 196.17C380.382 196.17 380.718 196.063 381.012 195.85C381.312 195.637 381.545 195.33 381.712 194.93C381.878 194.53 381.962 194.053 381.962 193.5C381.962 192.947 381.878 192.47 381.712 192.07C381.545 191.67 381.312 191.363 381.012 191.15C380.718 190.937 380.382 190.83 380.002 190.83C379.615 190.83 379.275 190.937 378.982 191.15C378.688 191.363 378.458 191.67 378.292 192.07C378.125 192.47 378.042 192.947 378.042 193.5C378.042 194.053 378.125 194.53 378.292 194.93C378.458 195.33 378.688 195.637 378.982 195.85C379.275 196.063 379.615 196.17 380.002 196.17ZM383.805 197V196.24C384.258 195.88 384.692 195.517 385.105 195.15C385.518 194.783 385.885 194.423 386.205 194.07C386.532 193.71 386.788 193.36 386.975 193.02C387.162 192.673 387.255 192.34 387.255 192.02C387.255 191.807 387.218 191.607 387.145 191.42C387.072 191.227 386.952 191.073 386.785 190.96C386.618 190.84 386.395 190.78 386.115 190.78C385.695 190.78 385.378 190.913 385.165 191.18C384.958 191.447 384.858 191.767 384.865 192.14H383.835C383.842 191.647 383.945 191.233 384.145 190.9C384.352 190.567 384.625 190.313 384.965 190.14C385.312 189.967 385.702 189.88 386.135 189.88C386.795 189.88 387.322 190.067 387.715 190.44C388.115 190.807 388.315 191.32 388.315 191.98C388.315 192.373 388.218 192.763 388.025 193.15C387.838 193.537 387.592 193.91 387.285 194.27C386.985 194.623 386.662 194.957 386.315 195.27C385.968 195.583 385.638 195.867 385.325 196.12H388.525V197H383.805ZM390.188 197V191.2L389.058 191.46V190.68L390.608 190H391.288V197H390.188Z" fill="#878B93"/>
<path d="M218.775 197.12C218.121 197.12 217.601 196.937 217.215 196.57C216.835 196.203 216.645 195.687 216.645 195.02H217.705C217.705 195.353 217.785 195.63 217.945 195.85C218.111 196.07 218.381 196.18 218.755 196.18C219.121 196.18 219.381 196.077 219.535 195.87C219.688 195.657 219.765 195.387 219.765 195.06V190H220.825V195.06C220.825 195.72 220.641 196.23 220.275 196.59C219.908 196.943 219.408 197.12 218.775 197.12ZM223.831 197.12C223.231 197.12 222.758 196.933 222.411 196.56C222.071 196.187 221.901 195.63 221.901 194.89V192.04H222.961V194.78C222.961 195.74 223.354 196.22 224.141 196.22C224.534 196.22 224.858 196.08 225.111 195.8C225.364 195.52 225.491 195.12 225.491 194.6V192.04H226.551V197H225.611L225.531 196.13C225.378 196.437 225.151 196.68 224.851 196.86C224.558 197.033 224.218 197.12 223.831 197.12ZM227.699 197V192.04H228.639L228.719 192.91C228.873 192.603 229.096 192.363 229.389 192.19C229.689 192.01 230.033 191.92 230.419 191.92C231.019 191.92 231.489 192.107 231.829 192.48C232.176 192.853 232.349 193.41 232.349 194.15V197H231.299V194.26C231.299 193.3 230.906 192.82 230.119 192.82C229.726 192.82 229.399 192.96 229.139 193.24C228.886 193.52 228.759 193.92 228.759 194.44V197H227.699ZM235.617 197V196.24C236.071 195.88 236.504 195.517 236.917 195.15C237.331 194.783 237.697 194.423 238.017 194.07C238.344 193.71 238.601 193.36 238.787 193.02C238.974 192.673 239.067 192.34 239.067 192.02C239.067 191.807 239.031 191.607 238.957 191.42C238.884 191.227 238.764 191.073 238.597 190.96C238.431 190.84 238.207 190.78 237.927 190.78C237.507 190.78 237.191 190.913 236.977 191.18C236.771 191.447 236.671 191.767 236.677 192.14H235.647C235.654 191.647 235.757 191.233 235.957 190.9C236.164 190.567 236.437 190.313 236.777 190.14C237.124 189.967 237.514 189.88 237.947 189.88C238.607 189.88 239.134 190.067 239.527 190.44C239.927 190.807 240.127 191.32 240.127 191.98C240.127 192.373 240.031 192.763 239.837 193.15C239.651 193.537 239.404 193.91 239.097 194.27C238.797 194.623 238.474 194.957 238.127 195.27C237.781 195.583 237.451 195.867 237.137 196.12H240.337V197H235.617ZM244.002 197.12C243.368 197.12 242.822 196.97 242.362 196.67C241.908 196.363 241.558 195.94 241.312 195.4C241.072 194.853 240.952 194.22 240.952 193.5C240.952 192.78 241.072 192.15 241.312 191.61C241.558 191.063 241.908 190.64 242.362 190.34C242.822 190.033 243.368 189.88 244.002 189.88C244.635 189.88 245.178 190.033 245.632 190.34C246.085 190.64 246.432 191.063 246.672 191.61C246.918 192.15 247.042 192.78 247.042 193.5C247.042 194.22 246.918 194.853 246.672 195.4C246.432 195.94 246.085 196.363 245.632 196.67C245.178 196.97 244.635 197.12 244.002 197.12ZM244.002 196.17C244.382 196.17 244.718 196.063 245.012 195.85C245.312 195.637 245.545 195.33 245.712 194.93C245.878 194.53 245.962 194.053 245.962 193.5C245.962 192.947 245.878 192.47 245.712 192.07C245.545 191.67 245.312 191.363 245.012 191.15C244.718 190.937 244.382 190.83 244.002 190.83C243.615 190.83 243.275 190.937 242.982 191.15C242.688 191.363 242.458 191.67 242.292 192.07C242.125 192.47 242.042 192.947 242.042 193.5C242.042 194.053 242.125 194.53 242.292 194.93C242.458 195.33 242.688 195.637 242.982 195.85C243.275 196.063 243.615 196.17 244.002 196.17ZM247.805 197V196.24C248.258 195.88 248.692 195.517 249.105 195.15C249.518 194.783 249.885 194.423 250.205 194.07C250.532 193.71 250.788 193.36 250.975 193.02C251.162 192.673 251.255 192.34 251.255 192.02C251.255 191.807 251.218 191.607 251.145 191.42C251.072 191.227 250.952 191.073 250.785 190.96C250.618 190.84 250.395 190.78 250.115 190.78C249.695 190.78 249.378 190.913 249.165 191.18C248.958 191.447 248.858 191.767 248.865 192.14H247.835C247.842 191.647 247.945 191.233 248.145 190.9C248.352 190.567 248.625 190.313 248.965 190.14C249.312 189.967 249.702 189.88 250.135 189.88C250.795 189.88 251.322 190.067 251.715 190.44C252.115 190.807 252.315 191.32 252.315 191.98C252.315 192.373 252.218 192.763 252.025 193.15C251.838 193.537 251.592 193.91 251.285 194.27C250.985 194.623 250.662 194.957 250.315 195.27C249.968 195.583 249.638 195.867 249.325 196.12H252.525V197H247.805ZM254.188 197V191.2L253.058 191.46V190.68L254.608 190H255.288V197H254.188Z" fill="#878B93"/>
<path d="M488.317 197V190H490.587C491.407 190 492.08 190.143 492.607 190.43C493.14 190.717 493.534 191.123 493.787 191.65C494.047 192.17 494.177 192.79 494.177 193.51C494.177 194.223 494.047 194.843 493.787 195.37C493.534 195.89 493.14 196.293 492.607 196.58C492.08 196.86 491.407 197 490.587 197H488.317ZM489.377 196.1H490.547C491.18 196.1 491.68 195.997 492.047 195.79C492.42 195.583 492.687 195.287 492.847 194.9C493.014 194.513 493.097 194.05 493.097 193.51C493.097 192.97 493.014 192.503 492.847 192.11C492.687 191.717 492.42 191.417 492.047 191.21C491.68 190.997 491.18 190.89 490.547 190.89H489.377V196.1ZM497.428 197.12C496.942 197.12 496.508 197.013 496.128 196.8C495.755 196.58 495.462 196.277 495.248 195.89C495.035 195.503 494.928 195.053 494.928 194.54C494.928 194.02 495.032 193.563 495.238 193.17C495.452 192.777 495.745 192.47 496.118 192.25C496.498 192.03 496.938 191.92 497.438 191.92C497.925 191.92 498.348 192.03 498.708 192.25C499.068 192.463 499.348 192.75 499.548 193.11C499.748 193.47 499.848 193.867 499.848 194.3C499.848 194.367 499.845 194.44 499.838 194.52C499.838 194.593 499.835 194.677 499.828 194.77H495.968C496.002 195.25 496.158 195.617 496.438 195.87C496.725 196.117 497.055 196.24 497.428 196.24C497.728 196.24 497.978 196.173 498.178 196.04C498.385 195.9 498.538 195.713 498.638 195.48H499.698C499.565 195.947 499.298 196.337 498.898 196.65C498.505 196.963 498.015 197.12 497.428 197.12ZM497.428 192.79C497.075 192.79 496.762 192.897 496.488 193.11C496.215 193.317 496.048 193.63 495.988 194.05H498.788C498.768 193.663 498.632 193.357 498.378 193.13C498.125 192.903 497.808 192.79 497.428 192.79ZM503.098 197.12C502.611 197.12 502.175 197.01 501.788 196.79C501.408 196.57 501.108 196.267 500.888 195.88C500.675 195.487 500.568 195.033 500.568 194.52C500.568 194.007 500.675 193.557 500.888 193.17C501.108 192.777 501.408 192.47 501.788 192.25C502.175 192.03 502.611 191.92 503.098 191.92C503.711 191.92 504.225 192.08 504.638 192.4C505.058 192.72 505.328 193.153 505.448 193.7H504.338C504.271 193.427 504.125 193.213 503.898 193.06C503.671 192.907 503.405 192.83 503.098 192.83C502.838 192.83 502.598 192.897 502.378 193.03C502.158 193.157 501.981 193.347 501.848 193.6C501.715 193.847 501.648 194.153 501.648 194.52C501.648 194.887 501.715 195.197 501.848 195.45C501.981 195.697 502.158 195.887 502.378 196.02C502.598 196.153 502.838 196.22 503.098 196.22C503.405 196.22 503.671 196.143 503.898 195.99C504.125 195.837 504.271 195.62 504.338 195.34H505.448C505.335 195.873 505.068 196.303 504.648 196.63C504.228 196.957 503.711 197.12 503.098 197.12ZM508.617 197V196.24C509.071 195.88 509.504 195.517 509.917 195.15C510.331 194.783 510.697 194.423 511.017 194.07C511.344 193.71 511.601 193.36 511.787 193.02C511.974 192.673 512.067 192.34 512.067 192.02C512.067 191.807 512.031 191.607 511.957 191.42C511.884 191.227 511.764 191.073 511.597 190.96C511.431 190.84 511.207 190.78 510.927 190.78C510.507 190.78 510.191 190.913 509.977 191.18C509.771 191.447 509.671 191.767 509.677 192.14H508.647C508.654 191.647 508.757 191.233 508.957 190.9C509.164 190.567 509.437 190.313 509.777 190.14C510.124 189.967 510.514 189.88 510.947 189.88C511.607 189.88 512.134 190.067 512.527 190.44C512.927 190.807 513.127 191.32 513.127 191.98C513.127 192.373 513.031 192.763 512.837 193.15C512.651 193.537 512.404 193.91 512.097 194.27C511.797 194.623 511.474 194.957 511.127 195.27C510.781 195.583 510.451 195.867 510.137 196.12H513.337V197H508.617ZM517.002 197.12C516.368 197.12 515.822 196.97 515.362 196.67C514.908 196.363 514.558 195.94 514.312 195.4C514.072 194.853 513.952 194.22 513.952 193.5C513.952 192.78 514.072 192.15 514.312 191.61C514.558 191.063 514.908 190.64 515.362 190.34C515.822 190.033 516.368 189.88 517.002 189.88C517.635 189.88 518.178 190.033 518.632 190.34C519.085 190.64 519.432 191.063 519.672 191.61C519.918 192.15 520.042 192.78 520.042 193.5C520.042 194.22 519.918 194.853 519.672 195.4C519.432 195.94 519.085 196.363 518.632 196.67C518.178 196.97 517.635 197.12 517.002 197.12ZM517.002 196.17C517.382 196.17 517.718 196.063 518.012 195.85C518.312 195.637 518.545 195.33 518.712 194.93C518.878 194.53 518.962 194.053 518.962 193.5C518.962 192.947 518.878 192.47 518.712 192.07C518.545 191.67 518.312 191.363 518.012 191.15C517.718 190.937 517.382 190.83 517.002 190.83C516.615 190.83 516.275 190.937 515.982 191.15C515.688 191.363 515.458 191.67 515.292 192.07C515.125 192.47 515.042 192.947 515.042 193.5C515.042 194.053 515.125 194.53 515.292 194.93C515.458 195.33 515.688 195.637 515.982 195.85C516.275 196.063 516.615 196.17 517.002 196.17ZM520.805 197V196.24C521.258 195.88 521.692 195.517 522.105 195.15C522.518 194.783 522.885 194.423 523.205 194.07C523.532 193.71 523.788 193.36 523.975 193.02C524.162 192.673 524.255 192.34 524.255 192.02C524.255 191.807 524.218 191.607 524.145 191.42C524.072 191.227 523.952 191.073 523.785 190.96C523.618 190.84 523.395 190.78 523.115 190.78C522.695 190.78 522.378 190.913 522.165 191.18C521.958 191.447 521.858 191.767 521.865 192.14H520.835C520.842 191.647 520.945 191.233 521.145 190.9C521.352 190.567 521.625 190.313 521.965 190.14C522.312 189.967 522.702 189.88 523.135 189.88C523.795 189.88 524.322 190.067 524.715 190.44C525.115 190.807 525.315 191.32 525.315 191.98C525.315 192.373 525.218 192.763 525.025 193.15C524.838 193.537 524.592 193.91 524.285 194.27C523.985 194.623 523.662 194.957 523.315 195.27C522.968 195.583 522.638 195.867 522.325 196.12H525.525V197H520.805ZM527.188 197V191.2L526.058 191.46V190.68L527.608 190H528.288V197H527.188Z" fill="#878B93"/>
<path d="M15.4504 182.12C14.8037 182.12 14.2504 181.97 13.7904 181.67C13.3304 181.363 12.9737 180.94 12.7204 180.4C12.4737 179.853 12.3504 179.22 12.3504 178.5C12.3504 177.787 12.4737 177.157 12.7204 176.61C12.9737 176.063 13.3304 175.64 13.7904 175.34C14.2504 175.033 14.8037 174.88 15.4504 174.88C16.0971 174.88 16.6504 175.033 17.1104 175.34C17.5704 175.64 17.9237 176.063 18.1704 176.61C18.4237 177.157 18.5504 177.787 18.5504 178.5C18.5504 179.22 18.4237 179.853 18.1704 180.4C17.9237 180.94 17.5704 181.363 17.1104 181.67C16.6504 181.97 16.0971 182.12 15.4504 182.12ZM15.4504 180.97C15.9771 180.97 16.4071 180.75 16.7404 180.31C17.0737 179.87 17.2404 179.267 17.2404 178.5C17.2404 177.733 17.0737 177.13 16.7404 176.69C16.4071 176.25 15.9771 176.03 15.4504 176.03C14.9171 176.03 14.4837 176.25 14.1504 176.69C13.8237 177.13 13.6604 177.733 13.6604 178.5C13.6604 179.267 13.8237 179.87 14.1504 180.31C14.4837 180.75 14.9171 180.97 15.4504 180.97Z" fill="#878B93"/>
<path d="M4.78531 150V144.46L3.63531 144.73V143.75L5.32531 143H6.11531V150H4.78531ZM10.1426 150.12C9.49591 150.12 8.94258 149.97 8.48258 149.67C8.02258 149.363 7.66591 148.94 7.41258 148.4C7.16591 147.853 7.04258 147.22 7.04258 146.5C7.04258 145.787 7.16591 145.157 7.41258 144.61C7.66591 144.063 8.02258 143.64 8.48258 143.34C8.94258 143.033 9.49591 142.88 10.1426 142.88C10.7892 142.88 11.3426 143.033 11.8026 143.34C12.2626 143.64 12.6159 144.063 12.8626 144.61C13.1159 145.157 13.2426 145.787 13.2426 146.5C13.2426 147.22 13.1159 147.853 12.8626 148.4C12.6159 148.94 12.2626 149.363 11.8026 149.67C11.3426 149.97 10.7892 150.12 10.1426 150.12ZM10.1426 148.97C10.6692 148.97 11.0992 148.75 11.4326 148.31C11.7659 147.87 11.9326 147.267 11.9326 146.5C11.9326 145.733 11.7659 145.13 11.4326 144.69C11.0992 144.25 10.6692 144.03 10.1426 144.03C9.60924 144.03 9.17591 144.25 8.84258 144.69C8.51591 145.13 8.35258 145.733 8.35258 146.5C8.35258 147.267 8.51591 147.87 8.84258 148.31C9.17591 148.75 9.60924 148.97 10.1426 148.97ZM14.1722 150V143H15.4522V149H18.5522V150H14.1722Z" fill="#878B93"/>
<path d="M1.63852 118V117.07C2.06518 116.717 2.47852 116.367 2.87852 116.02C3.28518 115.673 3.64518 115.33 3.95852 114.99C4.27852 114.65 4.53185 114.32 4.71852 114C4.91185 113.673 5.00852 113.357 5.00852 113.05C5.00852 112.763 4.92852 112.51 4.76852 112.29C4.61518 112.07 4.35852 111.96 3.99852 111.96C3.63185 111.96 3.35518 112.08 3.16852 112.32C2.98185 112.56 2.88852 112.85 2.88852 113.19H1.64852C1.66185 112.677 1.77518 112.25 1.98852 111.91C2.20185 111.563 2.48518 111.307 2.83852 111.14C3.19185 110.967 3.58852 110.88 4.02852 110.88C4.74185 110.88 5.29518 111.077 5.68852 111.47C6.08852 111.857 6.28852 112.36 6.28852 112.98C6.28852 113.367 6.19852 113.743 6.01852 114.11C5.84518 114.477 5.61518 114.83 5.32852 115.17C5.04185 115.51 4.73185 115.83 4.39852 116.13C4.06518 116.423 3.74185 116.697 3.42852 116.95H6.45852V118H1.63852ZM10.1426 118.12C9.49591 118.12 8.94258 117.97 8.48258 117.67C8.02258 117.363 7.66591 116.94 7.41258 116.4C7.16591 115.853 7.04258 115.22 7.04258 114.5C7.04258 113.787 7.16591 113.157 7.41258 112.61C7.66591 112.063 8.02258 111.64 8.48258 111.34C8.94258 111.033 9.49591 110.88 10.1426 110.88C10.7892 110.88 11.3426 111.033 11.8026 111.34C12.2626 111.64 12.6159 112.063 12.8626 112.61C13.1159 113.157 13.2426 113.787 13.2426 114.5C13.2426 115.22 13.1159 115.853 12.8626 116.4C12.6159 116.94 12.2626 117.363 11.8026 117.67C11.3426 117.97 10.7892 118.12 10.1426 118.12ZM10.1426 116.97C10.6692 116.97 11.0992 116.75 11.4326 116.31C11.7659 115.87 11.9326 115.267 11.9326 114.5C11.9326 113.733 11.7659 113.13 11.4326 112.69C11.0992 112.25 10.6692 112.03 10.1426 112.03C9.60924 112.03 9.17591 112.25 8.84258 112.69C8.51591 113.13 8.35258 113.733 8.35258 114.5C8.35258 115.267 8.51591 115.87 8.84258 116.31C9.17591 116.75 9.60924 116.97 10.1426 116.97ZM14.1722 118V111H15.4522V117H18.5522V118H14.1722Z" fill="#878B93"/>
<path d="M3.80555 86.12C3.34555 86.12 2.92888 86.04 2.55555 85.88C2.18221 85.7133 1.88221 85.46 1.65555 85.12C1.42888 84.78 1.30888 84.3533 1.29555 83.84H2.55555C2.56221 84.18 2.67221 84.4667 2.88555 84.7C3.10555 84.9267 3.41221 85.04 3.80555 85.04C4.17888 85.04 4.46555 84.9367 4.66555 84.73C4.86555 84.5233 4.96555 84.2633 4.96555 83.95C4.96555 83.5833 4.83221 83.3067 4.56555 83.12C4.30555 82.9267 3.96888 82.83 3.55555 82.83H3.03555V81.78H3.56555C3.90555 81.78 4.18888 81.7 4.41555 81.54C4.64221 81.38 4.75555 81.1433 4.75555 80.83C4.75555 80.57 4.66888 80.3633 4.49555 80.21C4.32888 80.05 4.09555 79.97 3.79555 79.97C3.46888 79.97 3.21221 80.0667 3.02555 80.26C2.84555 80.4533 2.74555 80.69 2.72555 80.97H1.47555C1.50221 80.3233 1.72555 79.8133 2.14555 79.44C2.57221 79.0667 3.12221 78.88 3.79555 78.88C4.27555 78.88 4.67888 78.9667 5.00555 79.14C5.33888 79.3067 5.58888 79.53 5.75555 79.81C5.92888 80.09 6.01555 80.4 6.01555 80.74C6.01555 81.1333 5.90555 81.4667 5.68555 81.74C5.47221 82.0067 5.20555 82.1867 4.88555 82.28C5.27888 82.36 5.59888 82.5533 5.84555 82.86C6.09221 83.16 6.21555 83.54 6.21555 84C6.21555 84.3867 6.12221 84.74 5.93555 85.06C5.74888 85.38 5.47555 85.6367 5.11555 85.83C4.76221 86.0233 4.32555 86.12 3.80555 86.12ZM10.1426 86.12C9.49591 86.12 8.94258 85.97 8.48258 85.67C8.02258 85.3633 7.66591 84.94 7.41258 84.4C7.16591 83.8533 7.04258 83.22 7.04258 82.5C7.04258 81.7867 7.16591 81.1567 7.41258 80.61C7.66591 80.0633 8.02258 79.64 8.48258 79.34C8.94258 79.0333 9.49591 78.88 10.1426 78.88C10.7892 78.88 11.3426 79.0333 11.8026 79.34C12.2626 79.64 12.6159 80.0633 12.8626 80.61C13.1159 81.1567 13.2426 81.7867 13.2426 82.5C13.2426 83.22 13.1159 83.8533 12.8626 84.4C12.6159 84.94 12.2626 85.3633 11.8026 85.67C11.3426 85.97 10.7892 86.12 10.1426 86.12ZM10.1426 84.97C10.6692 84.97 11.0992 84.75 11.4326 84.31C11.7659 83.87 11.9326 83.2667 11.9326 82.5C11.9326 81.7333 11.7659 81.13 11.4326 80.69C11.0992 80.25 10.6692 80.03 10.1426 80.03C9.60924 80.03 9.17591 80.25 8.84258 80.69C8.51591 81.13 8.35258 81.7333 8.35258 82.5C8.35258 83.2667 8.51591 83.87 8.84258 84.31C9.17591 84.75 9.60924 84.97 10.1426 84.97ZM14.1722 86V79H15.4522V85H18.5522V86H14.1722Z" fill="#878B93"/>
<path d="M4.26633 54V52.7H0.816328V51.68L4.09633 47H5.54633V51.59H6.46633V52.7H5.54633V54H4.26633ZM2.18633 51.59H4.34633V48.41L2.18633 51.59ZM10.1426 54.12C9.49591 54.12 8.94258 53.97 8.48258 53.67C8.02258 53.3633 7.66591 52.94 7.41258 52.4C7.16591 51.8533 7.04258 51.22 7.04258 50.5C7.04258 49.7867 7.16591 49.1567 7.41258 48.61C7.66591 48.0633 8.02258 47.64 8.48258 47.34C8.94258 47.0333 9.49591 46.88 10.1426 46.88C10.7892 46.88 11.3426 47.0333 11.8026 47.34C12.2626 47.64 12.6159 48.0633 12.8626 48.61C13.1159 49.1567 13.2426 49.7867 13.2426 50.5C13.2426 51.22 13.1159 51.8533 12.8626 52.4C12.6159 52.94 12.2626 53.3633 11.8026 53.67C11.3426 53.97 10.7892 54.12 10.1426 54.12ZM10.1426 52.97C10.6692 52.97 11.0992 52.75 11.4326 52.31C11.7659 51.87 11.9326 51.2667 11.9326 50.5C11.9326 49.7333 11.7659 49.13 11.4326 48.69C11.0992 48.25 10.6692 48.03 10.1426 48.03C9.60924 48.03 9.17591 48.25 8.84258 48.69C8.51591 49.13 8.35258 49.7333 8.35258 50.5C8.35258 51.2667 8.51591 51.87 8.84258 52.31C9.17591 52.75 9.60924 52.97 10.1426 52.97ZM14.1722 54V47H15.4522V53H18.5522V54H14.1722Z" fill="#878B93"/>
<path d="M3.78141 22.12C3.26807 22.12 2.82474 22.03 2.45141 21.85C2.08474 21.67 1.79474 21.4233 1.58141 21.11C1.37474 20.79 1.25474 20.43 1.22141 20.03H2.47141C2.53141 20.3167 2.67807 20.5567 2.91141 20.75C3.14474 20.9367 3.43474 21.03 3.78141 21.03C4.15474 21.03 4.45807 20.8933 4.69141 20.62C4.93141 20.3467 5.05141 20.0067 5.05141 19.6C5.05141 19.18 4.93141 18.8467 4.69141 18.6C4.45807 18.3533 4.16141 18.23 3.80141 18.23C3.50141 18.23 3.24141 18.3033 3.02141 18.45C2.80141 18.5967 2.64474 18.78 2.55141 19H1.32141L1.92141 15H5.80141V16.12H2.88141L2.56141 17.74C2.70807 17.58 2.90807 17.45 3.16141 17.35C3.41474 17.2433 3.69807 17.19 4.01141 17.19C4.51141 17.19 4.92807 17.3033 5.26141 17.53C5.59474 17.75 5.84807 18.0433 6.02141 18.41C6.19474 18.77 6.28141 19.1633 6.28141 19.59C6.28141 20.0767 6.17474 20.51 5.96141 20.89C5.75474 21.27 5.46141 21.57 5.08141 21.79C4.70807 22.01 4.27474 22.12 3.78141 22.12ZM10.1426 22.12C9.49591 22.12 8.94258 21.97 8.48258 21.67C8.02258 21.3633 7.66591 20.94 7.41258 20.4C7.16591 19.8533 7.04258 19.22 7.04258 18.5C7.04258 17.7867 7.16591 17.1567 7.41258 16.61C7.66591 16.0633 8.02258 15.64 8.48258 15.34C8.94258 15.0333 9.49591 14.88 10.1426 14.88C10.7892 14.88 11.3426 15.0333 11.8026 15.34C12.2626 15.64 12.6159 16.0633 12.8626 16.61C13.1159 17.1567 13.2426 17.7867 13.2426 18.5C13.2426 19.22 13.1159 19.8533 12.8626 20.4C12.6159 20.94 12.2626 21.3633 11.8026 21.67C11.3426 21.97 10.7892 22.12 10.1426 22.12ZM10.1426 20.97C10.6692 20.97 11.0992 20.75 11.4326 20.31C11.7659 19.87 11.9326 19.2667 11.9326 18.5C11.9326 17.7333 11.7659 17.13 11.4326 16.69C11.0992 16.25 10.6692 16.03 10.1426 16.03C9.60924 16.03 9.17591 16.25 8.84258 16.69C8.51591 17.13 8.35258 17.7333 8.35258 18.5C8.35258 19.2667 8.51591 19.87 8.84258 20.31C9.17591 20.75 9.60924 20.97 10.1426 20.97ZM14.1722 22V15H15.4522V21H18.5522V22H14.1722Z" fill="#878B93"/>
<line opacity="0.3" x1="29" y1="180.5" x2="580" y2="180.5" stroke="#C9CACD"/>
<line opacity="0.3" x1="29" y1="148.5" x2="580" y2="148.5" stroke="#ECEEF2"/>
<line opacity="0.3" x1="29" y1="116.5" x2="580" y2="116.5" stroke="#ECEEF2"/>
<line opacity="0.3" x1="29" y1="84.5" x2="580" y2="84.5" stroke="#ECEEF2"/>
<line opacity="0.3" x1="29" y1="52.5" x2="580" y2="52.5" stroke="#ECEEF2"/>
<line opacity="0.3" x1="29" y1="20.5" x2="580" y2="20.5" stroke="#ECEEF2"/>
<path opacity="0.8" d="M29.5 97.5V180.5H580V0C527.667 23.6667 398.2 65.3 299 42.5C175 14 118.5 104.5 91 110.5C69 115.3 40.8333 103.833 29.5 97.5Z" fill="#46C631"/>
<path opacity="0.8" d="M29.5 97.5013V180.501H580V49C527.667 72.6667 398.2 118.8 299 96.0003C175 67.5003 166 81 138.5 87C116.5 91.8 40.8333 103.835 29.5 97.5013Z" fill="#1877F2"/>
</svg>
