<svg width="193" height="193" viewBox="0 0 193 193" fill="none" xmlns="http://www.w3.org/2000/svg">
<path d="M193 96.5C193 149.795 149.795 193 96.5 193C43.2045 193 0 149.795 0 96.5C0 43.2045 43.2045 0 96.5 0C149.795 0 193 43.2045 193 96.5ZM19.3 96.5C19.3 139.136 53.8636 173.7 96.5 173.7C139.136 173.7 173.7 139.136 173.7 96.5C173.7 53.8636 139.136 19.3 96.5 19.3C53.8636 19.3 19.3 53.8636 19.3 96.5Z" fill="#1877F2"/>
<path d="M8.25212 57.4544C14.8289 42.59 25.0538 29.6278 37.978 19.7704L49.6824 35.1163C39.343 43.0022 31.1631 53.372 25.9017 65.2635L8.25212 57.4544Z" fill="#00B2FE"/>
<path d="M37.8381 19.8773C54.0192 7.48916 73.7068 0.541589 94.0792 0.0303686C114.452 -0.480852 134.463 5.47052 151.245 17.0315L140.296 32.9252C126.87 23.6764 110.861 18.9153 94.5634 19.3243C78.2655 19.7333 62.5154 25.2913 49.5705 35.2019L37.8381 19.8773Z" fill="#2ECE14"/>
<path d="M150.726 16.6768C162.476 24.659 172.319 35.1368 179.553 47.3622C186.786 59.5877 191.231 73.2592 192.57 87.4009C193.909 101.543 192.11 115.805 187.301 129.172C182.492 142.538 174.791 154.677 164.748 164.723L151.099 151.079C159.133 143.042 165.293 133.33 169.141 122.637C172.988 111.944 174.428 100.534 173.356 89.2207C172.285 77.9074 168.729 66.9701 162.942 57.1898C157.156 47.4094 149.281 39.0272 139.881 32.6414L150.726 16.6768Z" fill="#FF8D24"/>
<path d="M61.6963 97.24C60.6697 97.24 59.803 97.0467 59.0963 96.66C58.3897 96.2733 57.8163 95.76 57.3763 95.12C56.9497 94.48 56.643 93.76 56.4563 92.96C56.2697 92.16 56.1763 91.34 56.1763 90.5C56.1763 88.9533 56.3897 87.6 56.8163 86.44C57.2563 85.28 57.883 84.38 58.6963 83.74C59.5097 83.0867 60.4963 82.76 61.6563 82.76C62.5763 82.76 63.363 82.94 64.0163 83.3C64.6697 83.66 65.1763 84.14 65.5363 84.74C65.9097 85.34 66.1363 85.9933 66.2163 86.7H64.2363C64.1163 86.0067 63.8297 85.4733 63.3763 85.1C62.923 84.7267 62.343 84.54 61.6363 84.54C60.663 84.54 59.8563 85 59.2163 85.92C58.5897 86.8267 58.2563 88.2267 58.2163 90.12C58.5363 89.5333 59.0297 89.0333 59.6963 88.62C60.3763 88.2067 61.1563 88 62.0363 88C62.823 88 63.5563 88.1867 64.2363 88.56C64.9297 88.9333 65.4897 89.46 65.9163 90.14C66.3563 90.8067 66.5763 91.6 66.5763 92.52C66.5763 93.3333 66.3763 94.1 65.9763 94.82C65.5763 95.54 65.0097 96.1267 64.2763 96.58C63.5563 97.02 62.6963 97.24 61.6963 97.24ZM61.5763 95.4C62.1363 95.4 62.6363 95.28 63.0763 95.04C63.5163 94.8 63.863 94.4733 64.1163 94.06C64.3697 93.6333 64.4963 93.1533 64.4963 92.62C64.4963 91.7667 64.2163 91.0867 63.6563 90.58C63.1097 90.0733 62.4097 89.82 61.5563 89.82C60.9963 89.82 60.4897 89.9467 60.0363 90.2C59.5963 90.4533 59.2497 90.7933 58.9963 91.22C58.743 91.6333 58.6163 92.0933 58.6163 92.6C58.6163 93.1467 58.743 93.6333 58.9963 94.06C59.263 94.4733 59.6163 94.8 60.0563 95.04C60.5097 95.28 61.0163 95.4 61.5763 95.4ZM68.193 99V98.1C68.833 98.1 69.153 97.72 69.153 96.96V96.52H68.113V94.66H70.093C70.1864 95.02 70.253 95.3667 70.293 95.7C70.3464 96.02 70.373 96.32 70.373 96.6C70.373 98.2 69.6464 99 68.193 99ZM77.0816 97.24C76.095 97.24 75.2416 97.0667 74.5216 96.72C73.8016 96.36 73.2283 95.8733 72.8016 95.26C72.3883 94.6333 72.135 93.9267 72.0416 93.14H74.1216C74.255 93.8067 74.5883 94.36 75.1216 94.8C75.655 95.2267 76.315 95.44 77.1016 95.44C77.6883 95.44 78.195 95.3 78.6216 95.02C79.0483 94.7267 79.3816 94.34 79.6216 93.86C79.8616 93.38 79.9816 92.84 79.9816 92.24C79.9816 91.2933 79.715 90.54 79.1816 89.98C78.6483 89.4067 77.975 89.12 77.1616 89.12C76.4683 89.12 75.875 89.2867 75.3816 89.62C74.8883 89.94 74.5283 90.3467 74.3016 90.84H72.2816L73.4816 83H81.0416V84.86H75.0816L74.3616 88.6C74.6683 88.2533 75.0883 87.9667 75.6216 87.74C76.1683 87.5 76.7816 87.38 77.4616 87.38C78.4083 87.38 79.2216 87.6 79.9016 88.04C80.5816 88.4667 81.1016 89.0467 81.4616 89.78C81.835 90.5133 82.0216 91.3267 82.0216 92.22C82.0216 93.1533 81.8216 94 81.4216 94.76C81.0216 95.52 80.4483 96.1267 79.7016 96.58C78.9683 97.02 78.095 97.24 77.0816 97.24ZM90.5059 97V94.2H83.4859V92.52L90.1659 83H92.6059V92.36H94.5659V94.2H92.6059V97H90.5059ZM85.7859 92.36H90.6259V85.34L85.7859 92.36ZM95.5868 99V98.1C96.2268 98.1 96.5468 97.72 96.5468 96.96V96.52H95.5068V94.66H97.4868C97.5801 95.02 97.6468 95.3667 97.6868 95.7C97.7401 96.02 97.7668 96.32 97.7668 96.6C97.7668 98.2 97.0401 99 95.5868 99ZM104.375 97.24C103.442 97.24 102.595 97.0733 101.835 96.74C101.089 96.3933 100.489 95.9133 100.035 95.3C99.5954 94.6867 99.3754 93.9667 99.3754 93.14C99.3754 92.3 99.6087 91.5467 100.075 90.88C100.555 90.2133 101.189 89.76 101.975 89.52C101.269 89.24 100.722 88.8333 100.335 88.3C99.9487 87.7533 99.7554 87.1533 99.7554 86.5C99.7554 85.82 99.9354 85.2 100.295 84.64C100.655 84.0667 101.175 83.6133 101.855 83.28C102.549 82.9333 103.389 82.76 104.375 82.76C105.362 82.76 106.195 82.9333 106.875 83.28C107.569 83.6133 108.095 84.0667 108.455 84.64C108.815 85.2 108.995 85.82 108.995 86.5C108.995 87.14 108.795 87.74 108.395 88.3C108.009 88.8467 107.462 89.2533 106.755 89.52C107.542 89.7733 108.169 90.2333 108.635 90.9C109.115 91.5533 109.355 92.3 109.355 93.14C109.355 93.9667 109.135 94.6867 108.695 95.3C108.255 95.9133 107.655 96.3933 106.895 96.74C106.149 97.0733 105.309 97.24 104.375 97.24ZM104.375 88.84C105.149 88.84 105.755 88.64 106.195 88.24C106.649 87.84 106.875 87.3267 106.875 86.7C106.875 85.9933 106.655 85.4533 106.215 85.08C105.775 84.7067 105.162 84.52 104.375 84.52C103.589 84.52 102.975 84.7067 102.535 85.08C102.095 85.4533 101.875 85.9933 101.875 86.7C101.875 87.3267 102.095 87.84 102.535 88.24C102.975 88.64 103.589 88.84 104.375 88.84ZM104.375 95.44C105.335 95.44 106.055 95.2133 106.535 94.76C107.015 94.2933 107.255 93.7 107.255 92.98C107.255 92.18 106.995 91.5667 106.475 91.14C105.969 90.7 105.269 90.48 104.375 90.48C103.482 90.48 102.775 90.7 102.255 91.14C101.735 91.5667 101.475 92.18 101.475 92.98C101.475 93.7 101.715 94.2933 102.195 94.76C102.689 95.2133 103.415 95.44 104.375 95.44ZM117.198 97.24C115.931 97.24 114.838 96.94 113.918 96.34C113.011 95.7267 112.311 94.88 111.818 93.8C111.338 92.7067 111.098 91.44 111.098 90C111.098 88.56 111.338 87.3 111.818 86.22C112.311 85.1267 113.011 84.28 113.918 83.68C114.838 83.0667 115.931 82.76 117.198 82.76C118.464 82.76 119.551 83.0667 120.458 83.68C121.364 84.28 122.058 85.1267 122.538 86.22C123.031 87.3 123.278 88.56 123.278 90C123.278 91.44 123.031 92.7067 122.538 93.8C122.058 94.88 121.364 95.7267 120.458 96.34C119.551 96.94 118.464 97.24 117.198 97.24ZM117.198 95.34C117.958 95.34 118.631 95.1267 119.218 94.7C119.818 94.2733 120.284 93.66 120.618 92.86C120.951 92.06 121.118 91.1067 121.118 90C121.118 88.8933 120.951 87.94 120.618 87.14C120.284 86.34 119.818 85.7267 119.218 85.3C118.631 84.8733 117.958 84.66 117.198 84.66C116.424 84.66 115.744 84.8733 115.158 85.3C114.571 85.7267 114.111 86.34 113.778 87.14C113.444 87.94 113.278 88.8933 113.278 90C113.278 91.1067 113.444 92.06 113.778 92.86C114.111 93.66 114.571 94.2733 115.158 94.7C115.744 95.1267 116.424 95.34 117.198 95.34ZM130.841 97.24C129.574 97.24 128.481 96.94 127.561 96.34C126.654 95.7267 125.954 94.88 125.461 93.8C124.981 92.7067 124.741 91.44 124.741 90C124.741 88.56 124.981 87.3 125.461 86.22C125.954 85.1267 126.654 84.28 127.561 83.68C128.481 83.0667 129.574 82.76 130.841 82.76C132.107 82.76 133.194 83.0667 134.101 83.68C135.007 84.28 135.701 85.1267 136.181 86.22C136.674 87.3 136.921 88.56 136.921 90C136.921 91.44 136.674 92.7067 136.181 93.8C135.701 94.88 135.007 95.7267 134.101 96.34C133.194 96.94 132.107 97.24 130.841 97.24ZM130.841 95.34C131.601 95.34 132.274 95.1267 132.861 94.7C133.461 94.2733 133.927 93.66 134.261 92.86C134.594 92.06 134.761 91.1067 134.761 90C134.761 88.8933 134.594 87.94 134.261 87.14C133.927 86.34 133.461 85.7267 132.861 85.3C132.274 84.8733 131.601 84.66 130.841 84.66C130.067 84.66 129.387 84.8733 128.801 85.3C128.214 85.7267 127.754 86.34 127.421 87.14C127.087 87.94 126.921 88.8933 126.921 90C126.921 91.1067 127.087 92.06 127.421 92.86C127.754 93.66 128.214 94.2733 128.801 94.7C129.387 95.1267 130.067 95.34 130.841 95.34Z" fill="#505359"/>
<path d="M59.68 113V106H60.96L64.25 110.93V106H65.53V113H64.25L60.96 108.08V113H59.68ZM68.487 113V106H73.057V107.03H69.767V108.95H72.757V109.95H69.767V111.97H73.057V113H68.487ZM77.4983 113V107.03H75.4583V106H80.8283V107.03H78.7783V113H77.4983ZM88.7793 113L86.9293 106H88.2993L89.5593 111.57L91.0393 106H92.4493L93.8893 111.57L95.1493 106H96.5293L94.6293 113H93.1093L91.7193 107.81L90.2893 113H88.7793ZM99.057 113V106H103.627V107.03H100.337V108.95H103.327V109.95H100.337V111.97H103.627V113H99.057ZM105.988 113L108.548 106H109.988L112.548 113H111.188L110.628 111.38H107.898L107.328 113H105.988ZM108.248 110.38H110.278L109.258 107.47L108.248 110.38ZM115.05 113V106H116.33V112H119.43V113H115.05ZM122.626 113V107.03H120.586V106H125.956V107.03H123.906V113H122.626ZM128.504 113V106H129.784V108.91H132.924V106H134.204V113H132.924V109.95H129.784V113H128.504Z" fill="#FF8D24"/>
</svg>
