<svg width="193" height="193" viewBox="0 0 193 193" fill="none" xmlns="http://www.w3.org/2000/svg">
<path d="M193 96.5C193 149.795 149.795 193 96.5 193C43.2045 193 0 149.795 0 96.5C0 43.2045 43.2045 0 96.5 0C149.795 0 193 43.2045 193 96.5ZM19.3 96.5C19.3 139.136 53.8636 173.7 96.5 173.7C139.136 173.7 173.7 139.136 173.7 96.5C173.7 53.8636 139.136 19.3 96.5 19.3C53.8636 19.3 19.3 53.8636 19.3 96.5Z" fill="#E3E7EC"/>
<path d="M8.25212 57.4544C14.8289 42.59 25.0538 29.6278 37.978 19.7704L49.6824 35.1163C39.343 43.0022 31.1631 53.372 25.9017 65.2635L8.25212 57.4544Z" fill="#AAB1B7"/>
<path d="M37.8381 19.8773C54.0192 7.48916 73.7068 0.541589 94.0792 0.0303686C114.452 -0.480852 134.463 5.47052 151.245 17.0315L140.296 32.9252C126.87 23.6764 110.861 18.9153 94.5634 19.3243C78.2655 19.7333 62.5154 25.2913 49.5705 35.2019L37.8381 19.8773Z" fill="#BCC0C3"/>
<path d="M150.726 16.6768C162.476 24.659 172.319 35.1368 179.553 47.3622C186.786 59.5877 191.231 73.2592 192.57 87.4009C193.909 101.543 192.11 115.805 187.301 129.172C182.492 142.538 174.791 154.677 164.748 164.723L151.099 151.079C159.133 143.042 165.293 133.33 169.141 122.637C172.988 111.944 174.428 100.534 173.356 89.2207C172.285 77.9074 168.729 66.9701 162.942 57.1898C157.156 47.4094 149.281 39.0272 139.881 32.6414L150.726 16.6768Z" fill="#CFD4D9"/>
<path d="M96.4985 97.24C95.2318 97.24 94.1385 96.94 93.2185 96.34C92.3118 95.7267 91.6118 94.88 91.1185 93.8C90.6385 92.7067 90.3985 91.44 90.3985 90C90.3985 88.56 90.6385 87.3 91.1185 86.22C91.6118 85.1267 92.3118 84.28 93.2185 83.68C94.1385 83.0667 95.2318 82.76 96.4985 82.76C97.7652 82.76 98.8518 83.0667 99.7585 83.68C100.665 84.28 101.359 85.1267 101.839 86.22C102.332 87.3 102.579 88.56 102.579 90C102.579 91.44 102.332 92.7067 101.839 93.8C101.359 94.88 100.665 95.7267 99.7585 96.34C98.8518 96.94 97.7652 97.24 96.4985 97.24ZM96.4985 95.34C97.2585 95.34 97.9318 95.1267 98.5185 94.7C99.1185 94.2733 99.5852 93.66 99.9185 92.86C100.252 92.06 100.419 91.1067 100.419 90C100.419 88.8933 100.252 87.94 99.9185 87.14C99.5852 86.34 99.1185 85.7267 98.5185 85.3C97.9318 84.8733 97.2585 84.66 96.4985 84.66C95.7252 84.66 95.0452 84.8733 94.4585 85.3C93.8718 85.7267 93.4118 86.34 93.0785 87.14C92.7452 87.94 92.5785 88.8933 92.5785 90C92.5785 91.1067 92.7452 92.06 93.0785 92.86C93.4118 93.66 93.8718 94.2733 94.4585 94.7C95.0452 95.1267 95.7252 95.34 96.4985 95.34Z" fill="#505359"/>
<path d="M59.68 113V106H60.96L64.25 110.93V106H65.53V113H64.25L60.96 108.08V113H59.68ZM68.487 113V106H73.057V107.03H69.767V108.95H72.757V109.95H69.767V111.97H73.057V113H68.487ZM77.4983 113V107.03H75.4583V106H80.8283V107.03H78.7783V113H77.4983ZM88.7793 113L86.9293 106H88.2993L89.5593 111.57L91.0393 106H92.4493L93.8893 111.57L95.1493 106H96.5293L94.6293 113H93.1093L91.7193 107.81L90.2893 113H88.7793ZM99.057 113V106H103.627V107.03H100.337V108.95H103.327V109.95H100.337V111.97H103.627V113H99.057ZM105.988 113L108.548 106H109.988L112.548 113H111.188L110.628 111.38H107.898L107.328 113H105.988ZM108.248 110.38H110.278L109.258 107.47L108.248 110.38ZM115.05 113V106H116.33V112H119.43V113H115.05ZM122.626 113V107.03H120.586V106H125.956V107.03H123.906V113H122.626ZM128.504 113V106H129.784V108.91H132.924V106H134.204V113H132.924V109.95H129.784V113H128.504Z" fill="#FF8D24"/>
</svg>
