<svg width="454" height="231" viewBox="0 0 454 231" fill="none" xmlns="http://www.w3.org/2000/svg">
<rect opacity="0.7" width="6" height="80" rx="3" transform="matrix(1 0 0 -1 0 231)" fill="#62B979"/>
<rect opacity="0.6" width="6" height="62" rx="3" transform="matrix(1 0 0 -1 14 190)" fill="#E58484"/>
<rect opacity="0.7" width="6" height="82" rx="3" transform="matrix(1 0 0 -1 28 176)" fill="#62B979"/>
<rect opacity="0.6" width="6" height="37" rx="3" transform="matrix(1 0 0 -1 42 203)" fill="#E58484"/>
<rect opacity="0.6" width="6" height="68" rx="3" transform="matrix(1 0 0 -1 56 176)" fill="#E58484"/>
<rect opacity="0.7" width="6" height="96" rx="3" transform="matrix(1 0 0 -1 70 176)" fill="#62B979"/>
<rect opacity="0.7" width="6" height="62" rx="3" transform="matrix(1 0 0 -1 84 190)" fill="#62B979"/>
<rect opacity="0.6" width="6" height="37" rx="3" transform="matrix(1 0 0 -1 98 128)" fill="#E58484"/>
<rect opacity="0.6" width="6" height="41" rx="3" transform="matrix(1 0 0 -1 112 89)" fill="#E58484"/>
<rect opacity="0.6" width="6" height="72" rx="3" transform="matrix(1 0 0 -1 126 125)" fill="#E58484"/>
<rect opacity="0.7" width="6" height="111" rx="3" transform="matrix(1 0 0 -1 140 190)" fill="#62B979"/>
<rect opacity="0.7" width="6" height="111" rx="3" transform="matrix(1 0 0 -1 350 190)" fill="#62B979"/>
<rect opacity="0.7" width="6" height="55" rx="3" transform="matrix(1 0 0 -1 154 200)" fill="#62B979"/>
<rect opacity="0.7" width="6" height="55" rx="3" transform="matrix(1 0 0 -1 364 168)" fill="#62B979"/>
<rect opacity="0.6" width="6" height="37" rx="3" transform="matrix(1 0 0 -1 168 151)" fill="#E58484"/>
<rect opacity="0.6" width="6" height="37" rx="3" transform="matrix(1 0 0 -1 378 119)" fill="#E58484"/>
<rect opacity="0.6" width="6" height="55" rx="3" transform="matrix(1 0 0 -1 182 142)" fill="#E58484"/>
<rect opacity="0.6" width="6" height="55" rx="3" transform="matrix(1 0 0 -1 392 110)" fill="#E58484"/>
<rect opacity="0.7" width="6" height="127" rx="3" transform="matrix(1 0 0 -1 196 166)" fill="#62B979"/>
<rect opacity="0.7" width="6" height="127" rx="3" transform="matrix(1 0 0 -1 406 134)" fill="#62B979"/>
<rect opacity="0.7" width="6" height="62" rx="3" transform="matrix(1 0 0 -1 210 173)" fill="#62B979"/>
<rect opacity="0.7" width="6" height="62" rx="3" transform="matrix(1 0 0 -1 420 141)" fill="#62B979"/>
<rect opacity="0.6" width="6" height="27" rx="3" transform="matrix(1 0 0 -1 224 119)" fill="#E58484"/>
<rect opacity="0.6" width="6" height="27" rx="3" transform="matrix(1 0 0 -1 434 87)" fill="#E58484"/>
<rect opacity="0.7" width="6" height="68" rx="3" transform="matrix(1 0 0 -1 238 171)" fill="#62B979"/>
<rect opacity="0.7" width="6" height="68" rx="3" transform="matrix(1 0 0 -1 448 139)" fill="#62B979"/>
<rect opacity="0.6" width="6" height="48" rx="3" transform="matrix(1 0 0 -1 252 116)" fill="#E58484"/>
<rect opacity="0.7" width="6" height="68" rx="3" transform="matrix(1 0 0 -1 266 159)" fill="#62B979"/>
<rect width="6" height="96" rx="3" transform="matrix(1 0 0 -1 280 119)" fill="#8FCDA0"/>
<rect width="6" height="22" rx="3" transform="matrix(1 0 0 -1 294 68)" fill="#8FCDA0"/>
<rect opacity="0.7" width="6" height="82" rx="3" transform="matrix(1 0 0 -1 308 82)" fill="#62B979"/>
<rect opacity="0.6" width="6" height="37" rx="3" transform="matrix(1 0 0 -1 322 54)" fill="#E58484"/>
<rect opacity="0.6" width="6" height="55" rx="3" transform="matrix(1 0 0 -1 336 109)" fill="#E58484"/>
</svg>
