<svg width="1440" height="1024" viewBox="0 0 1440 1024" fill="none" xmlns="http://www.w3.org/2000/svg">
<g clip-path="url(#clip0_333_5)">
<g style="mix-blend-mode:overlay">
<g style="mix-blend-mode:multiply">
<path d="M652.492 1334.08C596.115 1290.12 603.2 1198.22 645.345 1140.55C687.489 1082.88 753.611 1048.87 813.36 1009.72C873.108 970.572 932.173 918.354 944.385 847.945C959.996 757.935 893.969 667.463 913.415 578.134C928.518 508.552 991.789 461.572 1055.44 438.442C1091.44 425.375 1131.57 423.784 1168.42 413.755C1335.63 368.309 1467.23 485.52 1576.1 413.751C1694 336.012 1699.34 235.201 1684.71 183.646C1665.89 117.648 1595.35 -31.8531 1422.27 -11.7048C1351.97 -3.51906 1280.11 2.11433 1210.32 -9.90655C1105.86 -27.9157 1012.54 -121.821 1017.22 -227.72C1020.42 -300.272 1065.94 -371.139 1047.22 -441.34C1034.63 -488.543 993.731 -524.697 947.632 -540.926C901.533 -557.155 851.09 -555.938 802.892 -547.846" stroke="white" stroke-opacity="0.16" stroke-miterlimit="10"/>
</g>
<g style="mix-blend-mode:multiply">
<path d="M657.226 1334.34C601.291 1286.98 605.956 1193.19 648.483 1132.93C689.948 1074.14 756.926 1039.24 817.678 1001.09C877.796 963.464 937.23 914.241 951.907 846.68C970.646 760.241 911.168 671.158 930.939 582.419C946.839 511.864 1006.18 462.699 1068.31 435.985C1103.99 420.646 1144.77 416.194 1182.95 405.251C1344.77 358.873 1473.69 470.685 1580.37 400.596C1695.06 325.186 1702.66 227.223 1689.27 175.476C1672.27 109.848 1603.9 -33.7374 1437.11 -17.9817C1368.31 -11.5063 1297.21 -7.93751 1228.18 -20.1498C1126.43 -37.9808 1035.77 -127.903 1037.79 -230.234C1039.18 -301.031 1081.14 -371.265 1062.88 -440.802C1050.47 -488.389 1011.4 -525.279 967.012 -543.691C922.224 -562.264 872.237 -564.395 823.743 -558.811" stroke="white" stroke-opacity="0.16" stroke-miterlimit="10"/>
</g>
<g style="mix-blend-mode:multiply">
<path d="M661.976 1334.6C606.57 1283.91 608.712 1188.19 651.651 1125.33C692.57 1065.41 760.093 1029.49 822.025 992.497C882.498 956.371 942.184 910.29 959.428 845.443C981.326 762.575 928.176 674.837 948.552 586.674C965.1 515.116 1020.65 463.693 1081.25 433.497C1116.64 415.813 1158.07 408.588 1197.55 396.732C1353.97 349.703 1480.26 455.79 1584.66 387.367C1696.13 314.257 1706.02 219.171 1693.9 167.218C1678.68 102.107 1612.46 -35.7991 1451.8 -24.4952C1384.48 -19.7448 1314.25 -18.2111 1245.89 -30.6591C1146.89 -48.3119 1058.84 -134.236 1058.25 -233.043C1057.82 -302.085 1096.25 -371.672 1078.44 -440.515C1066.21 -488.516 1028.95 -526.187 986.244 -546.662C942.635 -567.566 893.281 -573.044 844.373 -570.056" stroke="white" stroke-opacity="0.16" stroke-miterlimit="10"/>
</g>
<g style="mix-blend-mode:multiply">
<path d="M666.725 1334.87C611.79 1280.82 611.512 1183.21 654.819 1117.74C695.177 1056.72 763.304 1019.82 826.358 983.885C887.17 949.25 947.197 906.28 966.965 844.193C991.991 764.896 945.316 678.562 966.164 590.929C983.42 518.399 1035.15 464.629 1094.21 431.01C1129.35 411.01 1171.4 401.043 1212.14 388.183C1363.32 340.651 1486.82 440.911 1589.06 374.257C1697.35 303.476 1709.47 211.238 1698.6 159.064C1685.16 94.4554 1621.03 -37.8158 1466.75 -30.7718C1400.85 -27.7613 1331.57 -28.3953 1263.84 -40.9316C1167.62 -58.6864 1082.11 -140.391 1078.9 -235.541C1076.63 -302.888 1111.35 -371.754 1094.2 -439.948C1082.01 -488.346 1046.7 -526.843 1005.62 -549.338C963.224 -572.601 914.547 -581.442 865.239 -580.947" stroke="white" stroke-opacity="0.16" stroke-miterlimit="10"/>
</g>
<g style="mix-blend-mode:multiply">
<path d="M671.46 1335.12C617.01 1277.72 614.313 1178.22 657.987 1110.14C697.814 1048.07 766.545 1010.08 830.809 975.333C891.961 942.128 952.358 902.271 974.59 843.031C1002.69 767.216 962.413 682.33 983.748 595.155C1001.68 521.681 1049.58 465.431 1107.1 428.479C1141.99 406.074 1184.61 393.408 1226.76 379.65C1372.67 331.834 1493.39 426.017 1593.39 361.073C1698.47 292.591 1712.8 203.304 1703.26 150.865C1691.54 86.744 1629.51 -40.01 1481.59 -37.1375C1417.09 -35.8816 1348.68 -38.6539 1281.69 -51.2635C1188.2 -68.914 1105.24 -146.635 1099.47 -238.143C1095.32 -303.81 1126.53 -371.969 1109.86 -439.47C1097.82 -488.281 1064.34 -527.632 1024.94 -552.133C983.738 -577.77 935.694 -589.782 886.017 -591.956" stroke="white" stroke-opacity="0.16" stroke-miterlimit="10"/>
</g>
<g style="mix-blend-mode:multiply">
<path d="M676.209 1335.39C622.245 1274.61 617.069 1173.2 661.155 1102.55C700.465 1039.42 769.756 1000.38 835.068 966.676C896.53 934.902 957.297 898.364 982.082 841.766C1013.54 769.669 979.686 686.04 1001.45 599.499C1020.18 524.992 1064.14 466.278 1120.15 426.08C1154.76 401.242 1197.97 385.95 1241.4 371.175C1382.15 323.21 1500.01 411.167 1597.8 347.933C1699.69 281.75 1716.23 195.325 1708.01 142.637C1698 79.0179 1638 -42.3665 1496.52 -43.5473C1433.38 -44.0607 1365.92 -48.8681 1299.65 -61.6692C1208.91 -79.2005 1128.43 -152.953 1120.15 -240.819C1114.12 -304.82 1141.81 -372.228 1125.66 -439.065C1113.75 -488.274 1082.09 -528.539 1044.38 -554.986C1004.34 -583.056 956.826 -598.313 906.897 -603.039" stroke="white" stroke-opacity="0.16" stroke-miterlimit="10"/>
</g>
<g style="mix-blend-mode:multiply">
<path d="M680.988 1335.63C627.494 1271.49 620.002 1168.28 664.367 1094.91C703.175 1030.75 773.012 990.603 839.445 958.02C901.144 927.78 962.443 894.251 989.618 840.456C1024.27 771.901 996.87 689.661 1019.06 603.666C1038.51 528.142 1078.58 466.889 1133.09 423.504C1167.43 396.188 1211.27 378.345 1256.01 362.552C1391.53 314.689 1506.58 396.214 1602.14 334.675C1700.82 270.822 1719.59 187.274 1712.64 134.408C1704.3 71.3213 1646.26 -44.8113 1511.33 -49.9127C1446.23 -52.2314 1381.4 -59.6215 1317.44 -72.0157C1229.33 -89.3542 1151.35 -159.256 1140.62 -243.436C1132.68 -305.815 1156.88 -372.457 1141.22 -438.63C1129.47 -488.238 1099.66 -529.431 1063.59 -557.78C1024.75 -588.328 977.9 -606.814 927.616 -614.136" stroke="white" stroke-opacity="0.16" stroke-miterlimit="10"/>
</g>
<g style="mix-blend-mode:multiply">
<path d="M685.679 1335.9C632.655 1268.39 622.788 1163.34 667.461 1087.33C705.782 1022.15 776.12 980.884 843.718 949.438C905.698 920.599 967.383 890.285 997.081 839.22C1034.86 774.294 1014 693.399 1036.57 607.906C1056.82 531.438 1092.88 467.514 1145.93 420.987C1179.98 391.164 1224.47 370.813 1270.55 353.945C1400.89 306.241 1513.09 381.231 1606.41 321.431C1701.89 259.893 1722.85 179.236 1717.22 126.136C1710.61 63.5067 1654.45 -47.4776 1526.09 -56.3521C1462 -60.9502 1398.26 -69.6778 1335.28 -82.4805C1249.99 -99.744 1174.31 -165.692 1161.2 -246.156C1151.3 -306.913 1172.09 -372.761 1156.9 -438.255C1145.58 -485.717 1119.73 -528.474 1082.95 -560.56C1045.24 -593.674 999.017 -615.331 948.349 -625.101" stroke="white" stroke-opacity="0.16" stroke-miterlimit="10"/>
</g>
<g style="mix-blend-mode:multiply">
<path d="M690.413 1336.21C637.875 1265.36 625.676 1158.48 670.629 1079.79C708.478 1013.59 779.272 971.151 848.066 940.9C910.312 913.477 972.411 886.32 1004.66 838.015C1045.6 776.659 1031.24 697.138 1054.26 612.206C1075.27 534.765 1107.32 468.155 1158.96 418.56C1192.66 386.184 1237.78 363.341 1285.17 345.47C1410.43 298.118 1519.63 366.425 1610.73 308.351C1702.98 249.126 1726.12 171.391 1721.82 118.026C1716.82 56.002 1662.67 -50.0698 1540.91 -62.6142C1477.84 -69.4993 1415.16 -79.5534 1353.09 -92.7384C1270.56 -109.868 1197.19 -171.98 1181.74 -248.669C1169.8 -307.79 1187.25 -372.902 1172.56 -437.717C1161.66 -485.462 1137.27 -529.078 1102.29 -563.369C1065.28 -599.203 1019.26 -624.35 969.126 -636.14" stroke="white" stroke-opacity="0.16" stroke-miterlimit="10"/>
</g>
<g style="mix-blend-mode:multiply">
<path d="M695.192 1336.45C643.139 1262.22 628.595 1153.52 673.841 1072.19C711.217 1004.97 782.498 961.374 852.398 932.288C914.881 906.311 977.438 882.325 1012.15 836.808C1056.22 779.053 1048.42 700.907 1071.84 616.52C1093.64 538.062 1121.62 468.736 1171.89 416.131C1205.25 381.204 1251.13 356.016 1299.76 337.04C1419.97 290.113 1526.22 351.634 1615.14 295.24C1704.18 238.33 1729.48 163.487 1726.53 109.886C1723.14 48.3498 1670.83 -53.0309 1555.81 -68.9206C1497.66 -76.9394 1434.45 -89.5179 1371.02 -103.026C1291.21 -120.007 1220.03 -178.238 1202.39 -251.256C1188.46 -308.829 1202.52 -373.057 1188.28 -437.179C1177.79 -485.283 1154.79 -529.776 1121.61 -566.163C1085.96 -604.725 1040.4 -632.748 989.918 -647.164" stroke="white" stroke-opacity="0.16" stroke-miterlimit="10"/>
</g>
<g style="mix-blend-mode:multiply">
<path d="M699.942 1336.71C648.374 1259.14 631.498 1148.61 676.979 1064.56C713.913 996.345 785.621 951.552 856.746 923.632C919.509 898.997 982.422 878.286 1019.69 835.528C1066.91 781.344 1065.65 704.572 1089.45 620.716C1112.02 541.315 1135.91 469.2 1184.81 413.571C1217.8 376.032 1264.41 348.515 1314.29 328.358C1429.46 281.976 1532.69 336.607 1619.38 281.909C1705.23 227.313 1732.66 155.406 1731.12 101.525C1729.35 40.5795 1678.88 -56.3313 1570.57 -75.4483C1513.63 -85.502 1451.51 -99.8501 1388.79 -113.535C1311.72 -130.338 1242.68 -184.778 1222.89 -254.02C1206.86 -310.031 1217.63 -373.449 1203.89 -436.878C1192.76 -488.137 1170.53 -533.368 1140.85 -569.06C1106.58 -610.279 1061.51 -641.146 1010.7 -658.202" stroke="white" stroke-opacity="0.16" stroke-miterlimit="10"/>
</g>
<g style="mix-blend-mode:multiply">
<path d="M704.676 1336.97C653.594 1256.04 634.417 1143.72 680.177 1057C716.682 987.792 788.817 941.774 861.123 915.064C924.123 891.786 987.494 874.276 1027.26 834.307C1077.6 783.723 1082.9 708.34 1107.1 625.001C1130.44 544.641 1150.22 469.736 1197.79 411.098C1230.37 370.963 1277.77 341.175 1328.98 319.898C1439.15 274.147 1539.35 321.801 1623.83 268.813C1706.46 216.546 1736.02 147.531 1735.86 93.4145C1735.69 33.0005 1687.08 -59.6027 1585.51 -81.711C1529.75 -93.8291 1468.81 -109.947 1406.75 -123.793C1332.4 -140.447 1265.43 -191.17 1243.55 -256.564C1225.37 -311.012 1232.94 -373.591 1219.67 -436.311C1208.74 -487.968 1188.35 -534.364 1160.32 -571.737C1127.42 -615.71 1082.77 -649.497 1031.52 -669.197" stroke="white" stroke-opacity="0.16" stroke-miterlimit="10"/>
</g>
<g style="mix-blend-mode:multiply">
<path d="M709.426 1337.23C658.829 1252.93 637.35 1138.84 683.345 1049.4C719.378 979.282 791.955 931.938 865.456 906.452C928.707 884.517 992.493 870.281 1034.79 833.086C1088.26 786.058 1100.14 712.079 1124.71 629.256C1148.85 547.923 1164.42 470.2 1210.74 408.625C1242.89 365.851 1291.13 333.835 1343.53 311.423C1448.81 266.32 1545.97 307.128 1628.13 255.687C1707.65 205.882 1739.17 139.685 1740.48 85.2601C1741.87 25.3777 1695.21 -63.2128 1600.31 -88.0469C1545.64 -102.377 1485.83 -119.969 1424.54 -134.081C1352.94 -150.542 1287.89 -197.34 1264.1 -259.136C1243.66 -312.007 1248.14 -373.791 1235.29 -435.847C1224.52 -487.903 1206.09 -535.404 1179.57 -574.516C1148.09 -621.219 1103.87 -657.92 1052.18 -680.265" stroke="white" stroke-opacity="0.16" stroke-miterlimit="10"/>
</g>
<g style="mix-blend-mode:multiply">
<path d="M714.175 1337.5C664.049 1249.84 640.342 1133.93 686.513 1041.81C722.236 970.67 795.107 922.087 869.833 897.826C933.321 877.218 997.506 866.271 1042.36 831.806C1098.95 788.348 1117.41 715.789 1142.35 633.482C1167.29 551.176 1178.62 470.634 1223.72 406.094C1255.42 360.694 1304.52 326.496 1358.22 302.816C1458.5 258.61 1552.61 292.161 1632.55 242.444C1708.89 194.939 1742.52 131.619 1745.19 76.973C1748.13 17.637 1703.33 -67.0883 1615.22 -94.4859C1561.72 -111.131 1503.08 -130.227 1442.5 -144.545C1373.67 -160.71 1310.44 -203.717 1284.72 -261.811C1262.03 -313.105 1263.4 -374.064 1251.03 -435.442C1240.42 -487.925 1223.97 -536.517 1198.95 -577.369C1168.9 -626.747 1125.15 -666.336 1073.03 -691.318" stroke="white" stroke-opacity="0.16" stroke-miterlimit="10"/>
</g>
<g style="mix-blend-mode:multiply">
<path d="M718.925 1337.77C669.225 1246.79 643.275 1129.08 689.637 1034.26C724.916 962.117 798.186 912.279 874.092 889.317C937.801 870.022 1002.45 862.306 1049.81 830.674C1109.51 790.772 1134.58 719.602 1159.95 637.9C1185.74 554.591 1192.75 471.23 1236.62 403.755C1267.85 355.729 1317.87 319.407 1372.79 294.415C1468.18 251.018 1559.2 277.37 1636.86 229.393C1709.97 184.231 1745.68 123.818 1749.84 68.9071C1754.28 10.1322 1711.52 -70.9934 1630.06 -100.704C1577.7 -119.797 1520.22 -140.22 1460.34 -154.744C1394.17 -170.79 1332.78 -209.917 1305.31 -264.31C1280.23 -313.982 1278.65 -374.176 1266.71 -434.86C1256.29 -487.771 1241.84 -537.483 1218.28 -580.06C1189.69 -632.118 1146.4 -674.608 1093.82 -702.224" stroke="white" stroke-opacity="0.16" stroke-miterlimit="10"/>
</g>
<g style="mix-blend-mode:multiply">
<path d="M723.659 1338.02C674.577 1243.71 646.267 1124.19 692.863 1026.6C727.759 953.489 801.367 902.339 878.483 880.646C942.444 862.664 1007.5 858.222 1057.4 829.364C1120.26 793.062 1151.87 723.325 1177.56 642.037C1204.15 557.814 1206.87 471.575 1249.58 401.149C1280.3 350.483 1331.29 312.097 1387.38 285.778C1477.91 243.293 1565.71 262.416 1641.21 216.105C1711.12 173.228 1748.87 115.736 1754.49 60.5902C1760.43 2.33213 1719.8 -75.415 1644.88 -107.202C1593.75 -128.847 1537.34 -150.464 1478.18 -165.238C1414.75 -181.077 1355.08 -216.25 1325.87 -267.074C1298.31 -315.066 1293.87 -374.553 1282.31 -434.47C1272.07 -487.794 1259.6 -538.656 1237.52 -582.913C1210.47 -637.677 1167.69 -683.131 1114.67 -713.454" stroke="white" stroke-opacity="0.16" stroke-miterlimit="10"/>
</g>
<g style="mix-blend-mode:multiply">
<path d="M728.409 1338.29C679.724 1240.54 649.288 1119.34 696.031 1019.01C730.558 944.936 804.505 892.414 882.845 872.034C947.013 855.35 1012.47 854.227 1064.94 828.143C1130.9 795.353 1169.23 726.976 1195.22 646.337C1222.6 561.111 1220.97 472.053 1262.55 398.633C1292.75 345.326 1344.77 304.934 1402.03 277.215C1487.78 235.731 1572.3 247.478 1645.58 202.906C1712.28 162.329 1752.05 107.743 1759.18 52.3621C1766.6 -5.37909 1728.25 -79.9688 1659.77 -113.597C1609.98 -138.029 1554.53 -160.575 1496.1 -175.6C1435.37 -191.216 1377.26 -222.465 1346.5 -269.706C1316.38 -315.958 1309.2 -374.826 1298.1 -434.109C1288.09 -487.846 1277.68 -539.769 1256.97 -585.811C1231.34 -643.211 1188.97 -691.537 1135.4 -724.449" stroke="white" stroke-opacity="0.16" stroke-miterlimit="10"/>
</g>
<g style="mix-blend-mode:multiply">
<path d="M733.173 1338.57C684.958 1237.46 652.31 1114.49 699.214 1011.43C733.327 936.441 807.642 882.489 887.208 863.452C951.598 848.021 1017.48 850.07 1072.49 826.907C1141.51 797.555 1186.48 730.803 1212.82 650.548C1241.08 564.437 1235.06 472.516 1275.5 396.189C1305.09 340.272 1358.26 297.904 1416.61 268.71C1497.54 228.242 1578.75 232.495 1649.91 189.781C1713.32 151.371 1755.17 99.8093 1763.81 44.1925C1772.72 -13.0318 1736.82 -84.641 1674.61 -119.904C1624.08 -148.65 1570.09 -170.829 1513.96 -185.902C1455.96 -201.266 1399.39 -228.488 1367.13 -272.219C1334.39 -316.614 1324.49 -374.923 1313.85 -433.543C1303.97 -487.648 1295.68 -540.705 1276.36 -588.472C1252.24 -648.533 1210.33 -699.795 1156.26 -735.384" stroke="white" stroke-opacity="0.16" stroke-miterlimit="10"/>
</g>
<g style="mix-blend-mode:multiply">
<path d="M737.893 1338.81C690.178 1234.36 655.346 1109.48 702.367 1003.82C736.185 927.799 810.75 872.535 891.526 854.825C956.152 840.663 1022.48 846.046 1080.03 825.686C1152.19 799.89 1203.69 734.483 1230.5 654.759C1259.61 567.69 1249.17 472.92 1288.49 393.643C1317.58 335.041 1371.84 290.875 1431.27 260.132C1507.46 220.71 1585.38 217.542 1654.32 176.523C1714.51 140.442 1758.33 91.8166 1768.54 35.9203C1778.88 -20.7872 1745.67 -89.5635 1689.52 -126.343C1640.91 -157.699 1587.72 -181.308 1531.87 -196.322C1476.56 -211.449 1421.52 -234.526 1387.72 -274.983C1352.25 -317.418 1339.71 -375.3 1329.51 -433.211C1319.78 -487.7 1313.54 -541.863 1295.67 -591.429C1273.04 -654.122 1231.59 -708.307 1177 -746.57" stroke="white" stroke-opacity="0.16" stroke-miterlimit="10"/>
</g>
<g style="mix-blend-mode:multiply">
<path d="M742.643 1339.08C695.413 1231.25 658.383 1104.76 705.535 996.224C738.999 919.231 813.902 862.565 895.873 846.228C960.736 833.305 1027.51 842.021 1087.55 824.421C1162.88 802.21 1221.2 738.34 1248.04 659.058C1278.18 571.105 1263.1 473.457 1301.38 391.2C1329.87 329.958 1385.38 284.037 1445.81 251.643C1517.28 213.309 1591.87 202.707 1658.59 163.398C1715.58 129.631 1761.39 83.8235 1773.12 27.7656C1784.85 -28.2923 1754.66 -94.4566 1704.28 -132.664C1659.59 -166.563 1605.93 -190.731 1549.66 -206.64C1497.07 -221.485 1443.51 -240.343 1408.16 -277.63C1369.92 -317.942 1354.95 -375.574 1345 -432.851C1335.68 -487.87 1331.38 -543.035 1314.81 -594.312C1293.69 -659.624 1252.72 -716.733 1197.6 -757.668" stroke="white" stroke-opacity="0.16" stroke-miterlimit="10"/>
</g>
<g style="mix-blend-mode:multiply">
<path d="M747.392 1339.34C700.633 1228.16 661.596 1099.98 708.718 988.644C741.945 910.736 817.084 852.507 900.22 837.631C965.246 825.991 1032.58 838.07 1095.11 823.17C1173.56 804.486 1238.45 742.05 1265.68 663.284C1296.62 574.358 1277.14 473.905 1314.34 388.684C1342.24 324.815 1399.08 277.213 1460.44 243.065C1527.19 205.821 1598.41 187.724 1662.97 150.199C1716.74 118.732 1764.5 75.7865 1777.81 19.5375C1791 -36.21 1764.04 -99.4968 1719.17 -139.059C1676.74 -176.482 1623.05 -200.827 1567.51 -217.001C1517.6 -231.536 1465.57 -246.086 1428.81 -280.187C1387.76 -318.288 1370.23 -375.745 1360.81 -432.254C1351.67 -487.686 1349.45 -543.868 1334.27 -596.973C1314.67 -664.906 1274.17 -724.951 1218.51 -768.573" stroke="white" stroke-opacity="0.16" stroke-miterlimit="10"/>
</g>
<g style="mix-blend-mode:multiply">
<path d="M752.141 1339.61C705.853 1225.06 664.514 1095.06 711.959 980.975C744.729 902.05 820.236 842.479 904.627 828.945C969.889 818.545 1037.48 834.061 1102.62 821.949C1184.21 806.851 1255.57 745.73 1283.27 667.569C1315 577.669 1291.11 474.427 1327.26 386.211C1354.54 319.717 1412.81 270.597 1475.02 234.56C1537.23 198.524 1605.02 172.904 1667.3 137.044C1717.82 107.95 1767.53 67.7936 1782.44 11.3683C1797.04 -43.9067 1773.77 -104.301 1733.98 -145.395C1694.18 -186.489 1640.08 -210.864 1585.39 -227.347C1538.18 -241.615 1487.66 -251.711 1449.39 -282.819C1405.43 -318.546 1385.45 -375.974 1376.49 -431.82C1367.53 -487.665 1367.5 -544.952 1353.6 -599.782C1335.53 -670.32 1295.5 -733.3 1239.29 -779.612" stroke="white" stroke-opacity="0.16" stroke-miterlimit="10"/>
</g>
</g>
</g>
<defs>
<clipPath id="clip0_333_5">
<rect width="1914" height="1300" fill="white" transform="translate(-236 479.402) rotate(-45)"/>
</clipPath>
</defs>
</svg>
