<svg width="158" height="49" viewBox="0 0 158 49" fill="none" xmlns="http://www.w3.org/2000/svg">
<path opacity="0.7" fill-rule="evenodd" clip-rule="evenodd" d="M2.9421 25.7564C4.29034 24.7934 6.16399 25.1057 7.12702 26.4539L13.5206 35.405C14.4837 36.7532 14.1714 38.6269 12.8231 39.5899C11.4749 40.5529 9.60126 40.2406 8.63823 38.8924L2.24461 29.9413C1.28159 28.5931 1.59386 26.7194 2.9421 25.7564Z" fill="#FF8D24"/>
<path opacity="0.7" fill-rule="evenodd" clip-rule="evenodd" d="M21.6057 18.9881C23.0443 19.8102 23.5441 21.6427 22.722 23.0813L13.7915 38.7097C12.9695 40.1482 11.1369 40.648 9.69839 39.826C8.25983 39.004 7.76004 37.1714 8.58207 35.7328L17.5126 20.1045C18.3346 18.6659 20.1672 18.1661 21.6057 18.9881Z" fill="#FF8D24"/>
<path opacity="0.7" fill-rule="evenodd" clip-rule="evenodd" d="M18.5964 18.9881C17.1579 19.8102 16.6581 21.6427 17.4801 23.0813L26.4106 38.7097C27.2326 40.1482 29.0652 40.648 30.5038 39.826C31.9423 39.004 32.4421 37.1714 31.6201 35.7328L22.6896 20.1045C21.8675 18.6659 20.035 18.1661 18.5964 18.9881Z" fill="#FF8D24"/>
<path opacity="0.7" fill-rule="evenodd" clip-rule="evenodd" d="M42.51 9.3066C44.0014 10.0283 44.6254 11.8223 43.9038 13.3138L31.7081 38.5182C30.9864 40.0096 29.1923 40.6337 27.7009 39.912C26.2095 39.1904 25.5854 37.3963 26.3071 35.9049L38.5028 10.7004C39.2245 9.20896 41.0185 8.58494 42.51 9.3066Z" fill="#FF8D24"/>
<path d="M58.2285 38L52.4325 20.324H56.3925L59.0565 28.892C59.2725 29.54 59.4645 30.224 59.6325 30.944C59.8245 31.664 59.9925 32.42 60.1365 33.212C60.2565 32.66 60.3765 32.144 60.4965 31.664C60.6165 31.184 60.7485 30.716 60.8925 30.26C61.0365 29.804 61.1685 29.348 61.2885 28.892L64.0965 20.324H67.9485L70.6485 28.892C70.7205 29.084 70.8045 29.36 70.9005 29.72C70.9965 30.08 71.0925 30.476 71.1885 30.908C71.3085 31.316 71.4165 31.724 71.5125 32.132C71.6085 32.54 71.6925 32.9 71.7645 33.212C71.8845 32.732 72.0045 32.252 72.1245 31.772C72.2445 31.268 72.3765 30.776 72.5205 30.296C72.6645 29.816 72.7965 29.348 72.9165 28.892L75.6525 20.324H79.6125L73.5285 38H69.9645L67.1565 29.252C66.8445 28.244 66.5925 27.368 66.4005 26.624C66.2085 25.88 66.0765 25.28 66.0045 24.824C65.9085 25.256 65.7645 25.808 65.5725 26.48C65.4045 27.152 65.1285 28.088 64.7445 29.288L61.9365 38H58.2285ZM83.6192 20.324L89.6312 37.172L87.4352 40.7L79.5872 20.324H83.6192ZM80.0912 46.028V42.896H82.4672C83.0432 42.896 83.5472 42.836 83.9792 42.716C84.4352 42.596 84.8432 42.356 85.2032 41.996C85.5872 41.66 85.9112 41.132 86.1752 40.412L93.5552 20.324H97.4432L88.9832 41.96C88.3832 43.52 87.6032 44.648 86.6432 45.344C85.7072 46.04 84.5432 46.388 83.1512 46.388C82.5752 46.388 82.0352 46.352 81.5312 46.28C81.0272 46.232 80.5472 46.148 80.0912 46.028ZM97.6926 32.78H101.293C101.317 33.62 101.629 34.292 102.229 34.796C102.829 35.276 103.657 35.516 104.713 35.516C105.865 35.516 106.741 35.3 107.341 34.868C107.941 34.436 108.241 33.848 108.241 33.104C108.241 32.576 108.085 32.132 107.773 31.772C107.461 31.412 106.861 31.124 105.973 30.908L102.841 30.188C101.281 29.804 100.105 29.216 99.3126 28.424C98.5446 27.632 98.1606 26.564 98.1606 25.22C98.1606 24.092 98.4486 23.132 99.0246 22.34C99.6246 21.524 100.429 20.9 101.437 20.468C102.469 20.036 103.645 19.82 104.965 19.82C106.285 19.82 107.425 20.048 108.385 20.504C109.369 20.96 110.137 21.608 110.689 22.448C111.241 23.288 111.517 24.284 111.517 25.436H107.917C107.893 24.572 107.605 23.9 107.053 23.42C106.525 22.94 105.781 22.7 104.821 22.7C103.861 22.7 103.105 22.916 102.553 23.348C102.025 23.756 101.761 24.332 101.761 25.076C101.761 26.18 102.589 26.936 104.245 27.344L107.377 28.064C108.865 28.424 109.981 28.976 110.725 29.72C111.469 30.464 111.841 31.508 111.841 32.852C111.841 33.98 111.541 34.976 110.941 35.84C110.341 36.68 109.501 37.328 108.421 37.784C107.341 38.24 106.081 38.468 104.641 38.468C102.529 38.468 100.837 37.952 99.5646 36.92C98.3166 35.864 97.6926 34.484 97.6926 32.78ZM122.429 38.468C120.701 38.468 119.165 38.072 117.821 37.28C116.501 36.488 115.457 35.396 114.689 34.004C113.945 32.612 113.573 30.992 113.573 29.144C113.573 27.32 113.933 25.712 114.653 24.32C115.397 22.904 116.429 21.8 117.749 21.008C119.069 20.216 120.581 19.82 122.285 19.82C124.013 19.82 125.501 20.192 126.749 20.936C128.021 21.656 129.005 22.676 129.701 23.996C130.397 25.316 130.745 26.864 130.745 28.64V29.936L115.589 29.972L115.661 27.488H126.965C126.965 26.12 126.545 25.028 125.705 24.212C124.865 23.372 123.725 22.952 122.285 22.952C121.205 22.952 120.281 23.192 119.513 23.672C118.745 24.128 118.157 24.812 117.749 25.724C117.365 26.636 117.173 27.74 117.173 29.036C117.173 31.076 117.629 32.636 118.541 33.716C119.453 34.772 120.773 35.3 122.501 35.3C123.773 35.3 124.817 35.06 125.633 34.58C126.449 34.076 126.989 33.356 127.253 32.42H130.781C130.373 34.316 129.437 35.804 127.973 36.884C126.509 37.94 124.661 38.468 122.429 38.468ZM137.544 38H133.764V11.396H137.544V38ZM143.563 20.324L149.575 37.172L147.379 40.7L139.531 20.324H143.563ZM140.035 46.028V42.896H142.411C142.987 42.896 143.491 42.836 143.923 42.716C144.379 42.596 144.787 42.356 145.147 41.996C145.531 41.66 145.855 41.132 146.119 40.412L153.499 20.324H157.387L148.927 41.96C148.327 43.52 147.547 44.648 146.587 45.344C145.651 46.04 144.487 46.388 143.095 46.388C142.519 46.388 141.979 46.352 141.475 46.28C140.971 46.232 140.491 46.148 140.035 46.028Z" fill="#585552"/>
</svg>
